<?xml version="1.0" encoding="utf-8"?>
<!-- Generator: Adobe Illustrator 19.0.0, SVG Export Plug-In . SVG Version: 6.00 Build 0)  -->
<svg version="1.1" id="Layer_1" xmlns="http://www.w3.org/2000/svg" xmlns:xlink="http://www.w3.org/1999/xlink" x="0px" y="0px"
	 viewBox="0 0 206.8 183.9" style="enable-background:new 0 0 206.8 183.9;" xml:space="preserve">
<style type="text/css">
	.st0{fill:none;stroke:#6DB43D;stroke-width:10;stroke-linejoin:round;stroke-miterlimit:10;}
	.st1{fill:#6DB43D;}
	.st2{fill:none;stroke:#FFFFFF;stroke-width:8;stroke-linecap:round;stroke-linejoin:round;stroke-miterlimit:10;}
	.st3{display:none;}
	.st4{display:inline;fill:none;stroke:#6DB43D;stroke-width:10;stroke-linecap:round;stroke-linejoin:round;stroke-miterlimit:10;}
	.st5{display:inline;}
	.st6{display:inline;fill:none;stroke:#6DB43D;stroke-width:10;stroke-linecap:round;stroke-linejoin:bevel;stroke-miterlimit:10;}
	.st7{fill:none;stroke:#6DB43D;stroke-width:12;stroke-linejoin:round;stroke-miterlimit:10;}
	.st8{display:inline;fill:#6DB43D;}
	.st9{display:inline;fill:none;stroke:#6DB43D;stroke-width:8;stroke-linejoin:bevel;stroke-miterlimit:10;}
</style>
<g id="XMLID_1_">
	<g id="XMLID_6_">
		<path id="XMLID_7_" class="st0" d="M178.3,104.1l0.6-0.6l7.3-7.3c10.4-10.4,15.6-24.1,15.6-37.8s-5.2-27.4-15.6-37.8
			c-20.8-20.8-54.7-20.8-75.5,0l-7.3,7.3l-7.3-7.3c-20.8-20.8-54.7-20.8-75.5,0C10.2,31,5,44.6,5,58.3s5.2,27.4,15.6,37.8l82.8,82.8
			l12.1-12.1"/>
	</g>
	<g id="XMLID_2_">
		<path id="XMLID_8_" class="st1" d="M153.9,171.5c-16,0-29-13-29-29s13-29,29-29s29,13,29,29S169.9,171.5,153.9,171.5z"/>
		<g id="XMLID_3_">
			<line id="XMLID_4_" class="st2" x1="166.4" y1="143" x2="141.4" y2="143"/>
			<line id="XMLID_5_" class="st2" x1="154.4" y1="131" x2="154.4" y2="156"/>
		</g>
	</g>
</g>
<g id="XMLID_66_" class="st3">
	<circle id="XMLID_23_" class="st4" cx="392.7" cy="60.3" r="68.8"/>
	<g id="XMLID_44_" class="st5">
		
			<rect id="XMLID_45_" x="483" y="126.9" transform="matrix(0.7071 -0.7071 0.7071 0.7071 29.8704 395.2201)" class="st1" width="18" height="69.2"/>
		
			<rect id="XMLID_46_" x="452.9" y="120.8" transform="matrix(0.7071 0.7071 -0.7071 0.7071 226.5609 -287.4205)" class="st1" width="14.7" height="18"/>
		
			<rect id="XMLID_47_" x="439.1" y="107.7" transform="matrix(0.7071 0.7071 -0.7071 0.7071 213.5285 -282.022)" class="st1" width="16.2" height="18"/>
	</g>
</g>
<g id="XMLID_125_" class="st3">
	<rect id="XMLID_81_" x="637.4" y="-8" class="st6" width="50" height="50"/>
	<rect id="XMLID_120_" x="637.4" y="67" class="st6" width="50" height="50"/>
	<rect id="XMLID_121_" x="637.4" y="142" class="st6" width="50" height="50"/>
	<g id="XMLID_123_" class="st5">
		<polyline id="XMLID_134_" class="st7" points="712.4,12 729.5,22.9 746.7,12 763.8,22.9 780.9,12 798,22.9 815.2,12 832.3,22.9 
			849.4,12 		"/>
	</g>
	<g id="XMLID_122_" class="st5">
		<polyline id="XMLID_112_" class="st7" points="712.4,86 729.5,96.9 746.7,86 763.8,96.9 780.9,86 798,96.9 815.2,86 832.3,96.9 
			849.4,86 		"/>
	</g>
	<g id="XMLID_124_" class="st5">
		<polyline id="XMLID_110_" class="st7" points="712.4,161 729.5,171.9 746.7,161 763.8,171.9 780.9,161 798,171.9 815.2,161 
			832.3,171.9 849.4,161 		"/>
	</g>
</g>
<g id="XMLID_32_" class="st3">
	<path id="XMLID_103_" class="st8" d="M1017.2,105.3c-0.2,0-0.5,0.1-0.7,0.1c-1.6,0.2-3.1,0.5-4.6,0.8c-1.1,0.2-2.5,0.4-3.5,0.6
		V92.2c-3,0.2-5.8,0.8-8.8,0.8c-0.1,0-0.2,0-0.2,0v19.3l5.6,4.4l0,0c4.7-1,9.3-1.8,14.3-2.5V105
		C1018.4,105.1,1017.9,105.2,1017.2,105.3z M1017.2,105.3c-0.2,0-0.5,0.1-0.7,0.1c-1.6,0.2-3.1,0.5-4.6,0.8
		c-1.1,0.2-2.5,0.4-3.5,0.6V92.2c-3,0.2-5.8,0.8-8.8,0.8c-0.1,0-0.2,0-0.2,0v19.3l5.6,4.4l0,0c4.7-1,9.3-1.8,14.3-2.5V105
		C1018.4,105.1,1017.9,105.2,1017.2,105.3z M1019.2,105C1019.2,105,1019.2,105,1019.2,105c-0.6,0.1-1.3,0.2-1.9,0.3
		c-0.2,0-0.5,0.1-0.7,0.1c-1.6,0.2-3.1,0.5-4.6,0.8c-1.1,0.2-2.5,0.4-3.5,0.6V82.2c-3,0.2-6,0.8-9,0.8h0v29.3l5.6,4.4
		c4.7-1,9.4-1.8,14.1-2.5c0.1,0,0.1,0,0.2,0c0,0,0.1,0,0.1,0V105C1019.4,105,1019.2,105,1019.2,105z M1125.4,33.9
		c-16.8-3.5-54.1-5.2-71.1-5.2c-17.1,0-34.3,1.8-51.1,5.2l-3.7,4.4v73.9l5.4,4.4c0.1,0,0.1,0,0.2,0c4.7-1,9.4-1.8,14.1-2.5
		c0.1,0,0.1,0,0.2,0c0,0,0,0,0.1,0c2.9-0.4,5.7-0.8,8.6-1.1c0.1,0,0.2,0,0.3,0c0,0,0,0,0.1,0c8.5-0.9,17-1.3,25.6-1.3
		c8.2,0,36.4,0.4,44.6,1.3c0.2,0,0.3,0,0.4,0c0.1,0,0.3,0,0.4,0c2.7,0.3,5.4,0.6,8.2,1c0.1,0,0.3,0,0.4,0.1c0.1,0,0.3,0,0.4,0.1
		c4.9,0.7,10.3,1.5,15.1,2.6l5.9-4.4V38.3L1125.4,33.9z M1120.4,106.8c-4-0.7-8.1-1.3-12-1.8l-0.2,0c-0.1,0-0.2,0-0.3,0
		c-2.7-0.4-5.7-0.7-8.5-1c-0.1,0-0.2,0-0.4,0c-0.1,0-0.3,0-0.5,0c-8.2-0.8-36.4-1.2-44.6-1.2c-8.5,0-17.1,0.4-25.6,1.3
		c-0.1,0-0.3,0-0.4,0c-2.8,0.3-5.8,0.6-8.6,1c-0.1,0-0.2,0-0.3,0c0,0,0,0,0,0c-0.7,0.1-1.3,0.2-1.9,0.3c-0.2,0-0.5,0.1-0.7,0.1
		c-1.6,0.2-3.1,0.5-4.6,0.8c-1.1,0.2-2.5,0.4-3.5,0.6V42c16-2.9,30.8-4.3,46-4.3c15.2,0,50,1.4,66,4.3V106.8z M1019.2,105
		C1019.2,105,1019.2,105,1019.2,105c-0.6,0.1-1.3,0.2-1.9,0.3c-0.2,0-0.5,0.1-0.7,0.1c-1.6,0.2-3.1,0.5-4.6,0.8
		c-1.1,0.2-2.5,0.4-3.5,0.6V82.2c-3,0.2-6,0.8-9,0.8h0v29.3l5.6,4.4c4.7-1,9.4-1.8,14.1-2.5c0.1,0,0.1,0,0.2,0c0,0,0.1,0,0.1,0V105
		C1019.4,105,1019.2,105,1019.2,105z M1017.2,105.3c-0.2,0-0.5,0.1-0.7,0.1c-1.6,0.2-3.1,0.5-4.6,0.8c-1.1,0.2-2.5,0.4-3.5,0.6V92.2
		c-3,0.2-5.8,0.8-8.8,0.8c-0.1,0-0.2,0-0.2,0v19.3l5.6,4.4l0,0c4.7-1,9.3-1.8,14.3-2.5V105C1018.4,105.1,1017.9,105.2,1017.2,105.3z
		"/>
	<path id="XMLID_305_" class="st8" d="M1028.4,103.9v20.9l-3.6,4.4c-8.7,1.8-17.5,2.4-26.3,2.4c-3,0-6.1,0.3-9.1-0.6
		c-0.1,0-0.1-0.1-0.2-0.1h-0.1c-2.9,0-5.9,0-8.8-0.9c-0.1,0-0.1-0.1-0.2-0.1h0c-2.7,0-5-0.5-7.6-1l-3.2-4V75.4l5-4.4
		c8.1,1.7,16.1,2.5,24.3,2.5c0.2,0,0.2,0.2,0.3,0.2c0.1,0,0.2,0.2,0.4,0.2h0.1c3,0,5.9-0.6,8.9-0.8v9c-3,0.2-6,0.8-9,0.8h0
		c-0.1,0-0.3-0.2-0.3-0.2c-0.1,0,0-0.1-0.2-0.1c-7,0-14.4-0.7-20.4-1.8v40.3c0,0.1,1.1,0.3,2,0.4l0,0l0.1,0c3,0.4,5.8,0.9,8.7,1.2
		c0,0,0,0.2,0.1,0.2h0.1c3.1,0,6.1,0.2,9.2,0.2c7,0,13.8-0.8,20.8-2V105c3-0.4,5.8-0.7,8.6-1C1028.1,104,1028.4,103.9,1028.4,103.9z
		"/>
	<path id="XMLID_99_" class="st8" d="M1153,70.7c-7.8,1.6-15.7,2.2-23.6,2.2h-0.9c-2.8,0-6.1,0.3-8.1,0.2v9c2,0.2,5.2-0.2,8.1-0.2
		h0.9c6.7,0,13,0,20-1.1v40.3c-1,0.1-1.8,0.3-2.6,0.4c-0.1,0-0.2,0-0.3,0c-3,0.5-5.9,0.8-8.9,1c0,0-0.1,0-0.1,0
		c-3,0.2-5.6,0.3-8.6,0.3c-7,0-14.5-0.6-20.5-1.8v-16.2l-0.2,0c-0.1,0-0.2,0-0.3,0c-2.7-0.4-5.5-0.7-8.5-1v21l3.2,4.4
		c8.7,1.8,17.3,2.3,26.1,2.3c3,0,5.9,0.3,8.9-0.7h0.1c0.3,0,0.5,0,0.8,0c2.7,0,5.5,0,8.2-1h0c0.3,0,0.5,0,0.8,0c2.5-0.1,5-0.5,7.4-1
		l3.6-4V75.4L1153,70.7z"/>
	<path id="XMLID_92_" class="st8" d="M989.4,122.6v23.3l-2.9,4.2c-8.5,3.4-17.6,5.2-26.7,5.2c-9.2,0-18.5-1.7-27.3-5.2l-0.8-8
		c6.8-4.4,14-10,21.3-16.8c-7.7-7.9-15.3-17.1-22.6-27.5l5.3-6.8c7.6,3,15.6,4.5,23.6,4.5c3.2,0,6.6-0.2,9.8-0.7
		c3-0.4,6.2-1.1,9.2-2v9.4c-3,0.8-6.2,1.4-9.2,1.8c-3.2,0.4-6.5,0.6-9.7,0.6c-4.6,0-8.8-0.4-13.4-1.3c5.5,7,11.3,13.3,17.3,18.9v6.4
		c-7,6-12.8,11.3-18.8,15.8c5.1,1.2,10.2,1.8,15.4,1.8c6.9,0,14.4-1.2,20.4-3.5v-21.2l0.2,0C983.6,122,986.4,122.4,989.4,122.6z"/>
	<path id="XMLID_87_" class="st8" d="M1173.8,125.3c7.3,6.8,14.5,12.4,21.3,16.8l-0.8,8c-8.8,3.5-18,5.2-27.3,5.2
		c-9.1,0-17.7-1.8-26.3-5.2l-2.4-4.2v-23.3c3-0.2,5.8-0.6,8.8-1c0.1,0,0.2,0,0.2,0v21.2c6,2.3,13.2,3.5,20.1,3.5
		c5.2,0,10.3-0.6,15.4-1.8c-6-4.5-12.5-9.7-18.5-15.8v-6.4c6-5.6,11.3-11.9,16.8-18.9c-4.5,0.9-9.2,1.3-13.8,1.3
		c-3.1,0-6.1-0.2-9.2-0.6c-3-0.4-5.8-1-8.8-1.7v-9.3c3,0.9,5.8,1.6,8.8,2c3.1,0.5,6.2,0.7,9.3,0.7c8,0,16-1.5,23.6-4.5l5.3,6.8
		C1189.2,108.3,1181.5,117.4,1173.8,125.3z"/>
	<g id="XMLID_10_" class="st5">
		<g id="XMLID_152_">
			<path id="XMLID_163_" class="st1" d="M1031.2,58.9c0.9,10.2,1.8,20.3,2.7,30.5c-1.5,0.1-3,0.3-4.6,0.4c-1-10.1-2.1-20.3-3.1-30.4
				c-3,0.3-5.9,0.6-8.9,1c-0.2-1.5-0.4-3-0.6-4.5c7.7-1,15.4-1.7,23.1-2.2c0.1,1.5,0.2,3,0.3,4.5
				C1037.2,58.4,1034.2,58.7,1031.2,58.9z"/>
			<path id="XMLID_157_" class="st1" d="M1077.9,57.9c3.7,3.6,5.4,8,5.1,12.9c-0.2,5-2.3,9.1-6,12.5c-3.7,3.4-8,5.1-12.9,5.1
				c-5,0-9.2-1.6-13-5c-3.7-3.4-5.8-7.5-6.1-12.5c-0.3-5,1.4-9.3,5.1-13c3.7-3.7,8.4-5.5,13.9-5.6
				C1069.5,52.4,1074.1,54.3,1077.9,57.9z M1064,57c-4,0-7.5,1.4-10.2,4.1c-2.7,2.7-4,5.9-3.8,9.6c0.2,3.7,1.7,6.8,4.4,9.3
				c2.8,2.5,6,3.8,9.7,3.8c3.8,0,7-1.3,9.7-3.8c2.7-2.6,4.2-5.7,4.4-9.4c0.1-3.7-1.1-6.9-3.9-9.6C1071.5,58.4,1068,57,1064,57z"/>
			<path id="XMLID_153_" class="st1" d="M1093.6,77.9c-0.3,3.7-0.6,7.5-0.9,11.2c-1.5-0.1-3-0.2-4.6-0.3c0.8-11.7,1.6-23.4,2.3-35.1
				c3.7,0.2,7.3,0.5,11,0.9c3.1,0.7,5.6,2.1,7.5,4.3c2.3,2.6,3.2,5.6,2.7,8.8c-0.4,3.3-2,5.9-4.7,8c-2.7,2-5.7,2.9-9.1,2.6
				C1096.5,78.2,1095.1,78,1093.6,77.9z M1095.2,58.7c-0.4,4.9-0.8,9.8-1.2,14.7c1.4,0.1,2.9,0.2,4.3,0.4c2.1,0.2,4-0.3,5.7-1.6
				c1.7-1.3,2.6-2.9,2.9-5c0.2-2-0.3-3.8-1.8-5.4c-1.4-1.6-3.2-2.5-5.4-2.7C1098.2,58.9,1096.7,58.8,1095.2,58.7z"/>
		</g>
	</g>
</g>
<g id="XMLID_98_" class="st3">
	<polygon id="XMLID_132_" class="st8" points="1446.4,35 1434.5,35 1428.7,44 1440.6,44 	"/>
	<polygon id="XMLID_142_" class="st8" points="1426.8,47 1394.4,97.5 1393.6,100 1391.9,156.7 1363.4,179.9 1363.4,98.9 
		1362.8,96.5 1308.6,-1 1457.6,-1 1444.8,19 1456.6,19 1471,-3.3 1466.7,-11 1300.1,-11 1295.7,-3.6 1353.4,100.2 1353.4,190.4 
		1361.6,194.3 1400,163 1401.8,159.3 1403.6,101.7 1438.7,47 	"/>
	<polygon id="XMLID_143_" class="st8" points="1442.8,22 1436.4,32 1448.3,32 1454.7,22 	"/>
	<g id="XMLID_33_" class="st5">
		<polygon id="XMLID_53_" class="st1" points="1428.8,44 1426.8,47 1403.4,47 1406.7,44 		"/>
		<polygon id="XMLID_73_" class="st1" points="1436.8,32 1434.8,35 1411.4,35 1414.7,32 		"/>
		<polygon id="XMLID_96_" class="st1" points="1444.8,19 1442.8,22 1419.4,22 1422.7,19 		"/>
	</g>
</g>
<g id="XMLID_180_" class="st3">
	<polygon id="XMLID_186_" class="st8" points="1645.1,114.9 1643.3,112.8 1619.1,122.9 1621.7,89.1 1599.8,63.3 1632.7,55.4 
		1650.4,26.5 1667.7,54.6 1669.4,54.2 1671.2,51.3 1673.1,48.2 1650.4,11.2 1627.6,48.4 1585.2,58.6 1613.5,91.8 1610.1,135.2 
		1648.4,119.4 1648.5,118.8 	"/>
	<polygon id="XMLID_188_" class="st8" points="1793.3,91.8 1821.6,58.6 1779.2,48.4 1756.4,11.2 1733.7,48.2 1735.6,51.3 
		1737.4,54.2 1739.1,54.6 1756.4,26.5 1774.1,55.4 1807.1,63.3 1785.1,89.1 1787.7,122.9 1763.5,112.8 1761.7,114.9 1758.4,118.8 
		1758.4,119.4 1796.7,135.2 	"/>
	<g id="XMLID_129_" class="st5">
		<path id="XMLID_146_" class="st1" d="M1684.3,59.3l-8.2-2l-1.5,2.5l-53.6,12.9l32.9,38.6l10.8,4.5l0.3-3.8l-29.5-34.6l44.2-10.6
			L1684.3,59.3z M1750.1,114.7l2.9-3.3l33-38.6l-53.6-12.9l-1.5-2.5l-4.4-7.2l-22.9-37.4l-22.9,37.4l-4.4,7.2l-1.5,2.5l-53.6,12.9
			l32.9,38.6l2.9,3.3l-0.5,6.3l-3.8,48.7l51-21.1l51,21.1l-3.8-48.7L1750.1,114.7z M1703.4,140l-42,17.4l2.6-33.1l0.6-8.4l0.3-3.8
			l-29.5-34.6l44.2-10.6l4.6-7.5l4.4-7.2l14.8-24.1l14.8,24.1l4.4,7.2l4.6,7.5l44.2,10.6l-29.5,34.6l0.3,3.8l0.6,8.4l2.6,33.1
			L1703.4,140z"/>
	</g>
</g>
<g id="XMLID_247_" class="st3">
	<rect id="XMLID_184_" x="1958.8" y="21.4" class="st9" width="129.2" height="175.2"/>
	<rect id="XMLID_185_" x="1944.1" y="5.1" class="st9" width="158.6" height="15.5"/>
	<polyline id="XMLID_189_" class="st9" points="1994.4,1 1994.4,-13 2050.4,-13 2050.4,1 	"/>
	<line id="XMLID_190_" class="st9" x1="1991.4" y1="193" x2="1991.4" y2="50"/>
	<line id="XMLID_191_" class="st9" x1="2055.4" y1="193" x2="2055.4" y2="50"/>
	<line id="XMLID_192_" class="st9" x1="2023.4" y1="193" x2="2023.4" y2="50"/>
</g>
</svg>
