<?xml version="1.0" encoding="utf-8"?>
<!-- Generator: Adobe Illustrator 19.0.0, SVG Export Plug-In . SVG Version: 6.00 Build 0)  -->
<svg version="1.1" id="Layer_1" xmlns="http://www.w3.org/2000/svg" xmlns:xlink="http://www.w3.org/1999/xlink" x="0px" y="0px"
	 viewBox="0 0 175.2 205.4" style="enable-background:new 0 0 175.2 205.4;" xml:space="preserve">
<style type="text/css">
	.st0{display:none;}
	.st1{display:inline;}
	.st2{fill:#6DB43D;}
	.st3{fill:#FFFFFF;}
	.st4{fill:none;stroke:#FFFFFF;stroke-width:8;stroke-linecap:round;stroke-linejoin:round;stroke-miterlimit:10;}
	.st5{display:inline;fill:none;stroke:#6DB43D;stroke-width:10;stroke-linecap:round;stroke-linejoin:round;stroke-miterlimit:10;}
	.st6{display:inline;fill:none;stroke:#6DB43D;stroke-width:10;stroke-linecap:round;stroke-linejoin:bevel;stroke-miterlimit:10;}
	.st7{fill:none;stroke:#6DB43D;stroke-width:12;stroke-linejoin:round;stroke-miterlimit:10;}
	.st8{display:inline;fill:#6DB43D;}
	.st9{display:inline;fill:none;stroke:#6DB43D;stroke-width:8;stroke-linejoin:bevel;stroke-miterlimit:10;}
</style>
<g id="XMLID_1_" class="st0">
	<g id="XMLID_6_" class="st1">
		<path id="XMLID_309_" class="st2" d="M-1151.8,102.5c-22.6,0-41,18.4-41,41s18.4,41,41,41s41-18.4,41-41
			S-1129.2,102.5-1151.8,102.5z"/>
		<path id="XMLID_310_" class="st2" d="M-1186.3,176.9l-6,6l-79.3-79.3c-9.1-9.1-14.1-21.2-14.1-34.2c0-13,5-25.1,14.1-34.2
			c9.1-9.1,21.2-14.1,34.2-14.1c13,0,25.1,5,34.2,14.1l7.3,7.3c2,2,5.1,2,7.1,0l7.3-7.3c9.1-9.1,21.2-14.1,34.2-14.1
			s25.1,5,34.2,14.1c9.1,9.1,14.1,21.2,14.1,34.2c0,13-5,25.1-14.1,34.2l-5.5,5.5c2.4,2.3,4.6,4.9,6.5,7.7l6.1-6.1
			c11-11,17-25.6,17-41.3c0-15.6-6-30.3-17-41.3c-11-11-25.6-17-41.3-17s-30.3,6-41.3,17l-3.8,3.8l-3.8-3.8c-11-11-25.6-17-41.3-17
			c-15.6,0-30.3,6-41.3,17c-11,11-17,25.6-17,41.3c0,15.6,6,30.3,17,41.3l82.8,82.8c1,1,2.3,1.5,3.5,1.5c1.3,0,2.6-0.5,3.5-1.5
			l10.2-10.2C-1181.4,181.4-1183.9,179.3-1186.3,176.9z"/>
		<path id="XMLID_321_" class="st3" d="M-1120.9,111.5L-1120.9,111.5l2.5,2.6C-1119.2,113.2-1120,112.3-1120.9,111.5z"/>
		<path id="XMLID_322_" class="st3" d="M-1183.8,174.4c0.8,0.9,1.7,1.7,2.6,2.5L-1183.8,174.4L-1183.8,174.4z"/>
	</g>
	<g id="XMLID_3_" class="st1">
		<line id="XMLID_4_" class="st4" x1="-1126.3" y1="144" x2="-1177.3" y2="144"/>
		<line id="XMLID_5_" class="st4" x1="-1151.3" y1="118" x2="-1151.3" y2="172"/>
	</g>
</g>
<g id="XMLID_66_" class="st0">
	<circle id="XMLID_23_" class="st5" cx="-903" cy="71.3" r="68.8"/>
	<g id="XMLID_44_" class="st1">
		
			<rect id="XMLID_45_" x="-812.7" y="138" transform="matrix(0.7071 -0.7071 0.7071 0.7071 -357.4427 -517.7466)" class="st2" width="18" height="69.2"/>
		
			<rect id="XMLID_46_" x="-842.8" y="131.8" transform="matrix(0.7071 0.7071 -0.7071 0.7071 -145.1322 632.0162)" class="st2" width="14.7" height="18"/>
		
			<rect id="XMLID_47_" x="-856.6" y="118.8" transform="matrix(0.7071 0.7071 -0.7071 0.7071 -158.1598 637.4098)" class="st2" width="16.2" height="18"/>
	</g>
</g>
<g id="XMLID_125_" class="st0">
	<rect id="XMLID_81_" x="-658.3" y="3" class="st6" width="50" height="50"/>
	<rect id="XMLID_120_" x="-658.3" y="78" class="st6" width="50" height="50"/>
	<rect id="XMLID_121_" x="-658.3" y="153" class="st6" width="50" height="50"/>
	<g id="XMLID_123_" class="st1">
		<polyline id="XMLID_134_" class="st7" points="-583.3,23 -566.2,34 -549.1,23 -531.9,34 -514.8,23 -497.7,34 -480.6,23 -463.4,34 
			-446.3,23 		"/>
	</g>
	<g id="XMLID_122_" class="st1">
		<polyline id="XMLID_112_" class="st7" points="-583.3,97 -566.2,108 -549.1,97 -531.9,108 -514.8,97 -497.7,108 -480.6,97 
			-463.4,108 -446.3,97 		"/>
	</g>
	<g id="XMLID_124_" class="st1">
		<polyline id="XMLID_110_" class="st7" points="-583.3,172 -566.2,183 -549.1,172 -531.9,183 -514.8,172 -497.7,183 -480.6,172 
			-463.4,183 -446.3,172 		"/>
	</g>
</g>
<g id="XMLID_32_">
	<path id="XMLID_103_" class="st2" d="M-278.5,116.4c-0.2,0-0.5,0.1-0.7,0.1c-1.6,0.2-3.1,0.5-4.6,0.8c-1.1,0.2-2.5,0.4-3.5,0.6
		v-14.6c-3,0.2-5.8,0.8-8.8,0.8c-0.1,0-0.2,0-0.2,0v19.3l5.6,4.4l0,0c4.7-1,9.3-1.8,14.3-2.5v-9.1
		C-277.3,116.2-277.8,116.3-278.5,116.4z M-278.5,116.4c-0.2,0-0.5,0.1-0.7,0.1c-1.6,0.2-3.1,0.5-4.6,0.8c-1.1,0.2-2.5,0.4-3.5,0.6
		v-14.6c-3,0.2-5.8,0.8-8.8,0.8c-0.1,0-0.2,0-0.2,0v19.3l5.6,4.4l0,0c4.7-1,9.3-1.8,14.3-2.5v-9.1
		C-277.3,116.2-277.8,116.3-278.5,116.4z M-276.6,116.1C-276.5,116.1-276.5,116.1-276.6,116.1c-0.6,0.1-1.3,0.2-1.9,0.3
		c-0.2,0-0.5,0.1-0.7,0.1c-1.6,0.2-3.1,0.5-4.6,0.8c-1.1,0.2-2.5,0.4-3.5,0.6V93.2c-3,0.2-6,0.8-9,0.8h0v29.3l5.6,4.4
		c4.7-1,9.4-1.8,14.1-2.5c0.1,0,0.1,0,0.2,0c0,0,0.1,0,0.1,0v-9.1C-276.3,116.1-276.5,116.1-276.6,116.1z M-170.4,45
		c-16.8-3.5-54.1-5.2-71.1-5.2c-17.1,0-34.3,1.8-51.1,5.2l-3.7,4.4v73.9l5.4,4.4c0.1,0,0.1,0,0.2,0c4.7-1,9.4-1.8,14.1-2.5
		c0.1,0,0.1,0,0.2,0c0,0,0,0,0.1,0c2.9-0.4,5.7-0.8,8.6-1.1c0.1,0,0.2,0,0.3,0c0,0,0,0,0,0c8.5-0.9,17-1.3,25.6-1.3
		c8.2,0,36.4,0.4,44.6,1.3c0.2,0,0.3,0,0.4,0c0.1,0,0.3,0,0.4,0c2.7,0.3,5.4,0.6,8.2,1c0.1,0,0.3,0,0.4,0.1c0.1,0,0.3,0,0.4,0.1
		c4.9,0.7,10.3,1.5,15.1,2.6l5.9-4.4V49.4L-170.4,45z M-175.3,117.8c-4-0.7-8.1-1.3-12-1.8l-0.2,0c-0.1,0-0.2,0-0.3,0
		c-2.7-0.4-5.7-0.7-8.5-1c-0.1,0-0.2,0-0.4,0c-0.1,0-0.3,0-0.5,0c-8.2-0.8-36.4-1.2-44.6-1.2c-8.5,0-17.1,0.4-25.6,1.3
		c-0.1,0-0.3,0-0.4,0c-2.8,0.3-5.8,0.6-8.6,1c-0.1,0-0.2,0-0.3,0c0,0,0,0,0,0c-0.7,0.1-1.3,0.2-1.9,0.3c-0.2,0-0.5,0.1-0.7,0.1
		c-1.6,0.2-3.1,0.5-4.6,0.8c-1.1,0.2-2.5,0.4-3.5,0.6V53c16-2.9,30.8-4.3,46-4.3s50,1.4,66,4.3V117.8z M-276.6,116.1
		C-276.5,116.1-276.5,116.1-276.6,116.1c-0.6,0.1-1.3,0.2-1.9,0.3c-0.2,0-0.5,0.1-0.7,0.1c-1.6,0.2-3.1,0.5-4.6,0.8
		c-1.1,0.2-2.5,0.4-3.5,0.6V93.2c-3,0.2-6,0.8-9,0.8h0v29.3l5.6,4.4c4.7-1,9.4-1.8,14.1-2.5c0.1,0,0.1,0,0.2,0c0,0,0.1,0,0.1,0v-9.1
		C-276.3,116.1-276.5,116.1-276.6,116.1z M-278.5,116.4c-0.2,0-0.5,0.1-0.7,0.1c-1.6,0.2-3.1,0.5-4.6,0.8c-1.1,0.2-2.5,0.4-3.5,0.6
		v-14.6c-3,0.2-5.8,0.8-8.8,0.8c-0.1,0-0.2,0-0.2,0v19.3l5.6,4.4l0,0c4.7-1,9.3-1.8,14.3-2.5v-9.1
		C-277.3,116.2-277.8,116.3-278.5,116.4z"/>
	<path id="XMLID_305_" class="st2" d="M-267.3,115v20.9l-3.6,4.4c-8.7,1.8-17.5,2.4-26.3,2.4c-3,0-6.1,0.3-9.1-0.6
		c-0.1,0-0.1-0.1-0.2-0.1h-0.1c-2.9,0-5.9,0-8.8-0.9c-0.1,0-0.1-0.1-0.2-0.1h0c-2.7,0-5-0.5-7.6-1l-3.2-4V86.5l5-4.4
		c8.1,1.7,16.1,2.5,24.3,2.5c0.2,0,0.2,0.2,0.3,0.2c0.1,0,0.2,0.2,0.4,0.2h0.1c3,0,5.9-0.6,8.9-0.8v9c-3,0.2-6,0.8-9,0.8h0
		c-0.1,0-0.3-0.2-0.3-0.2c-0.1,0,0-0.1-0.2-0.1c-7,0-14.4-0.7-20.4-1.8v40.3c0,0.1,1.1,0.3,2,0.4l0,0l0.1,0c3,0.4,5.8,0.9,8.7,1.2
		c0,0,0,0.2,0.1,0.2h0.1c3.1,0,6.1,0.2,9.2,0.2c7,0,13.8-0.8,20.8-2v-16.2c3-0.4,5.8-0.7,8.6-1C-267.6,115-267.3,115-267.3,115z"/>
	<path id="XMLID_99_" class="st2" d="M-142.7,81.8c-7.8,1.6-15.7,2.2-23.6,2.2h-0.9c-2.8,0-6.1,0.3-8.1,0.2v9c2,0.2,5.2-0.2,8.1-0.2
		h0.9c6.7,0,13,0,20-1.1v40.3c-1,0.1-1.8,0.3-2.6,0.4c-0.1,0-0.2,0-0.3,0c-3,0.5-5.9,0.8-8.9,1c0,0-0.1,0-0.1,0
		c-3,0.2-5.6,0.3-8.6,0.3c-7,0-14.5-0.6-20.5-1.8V116l-0.2,0c-0.1,0-0.2,0-0.3,0c-2.7-0.4-5.5-0.7-8.5-1v21l3.2,4.4
		c8.7,1.8,17.3,2.3,26.1,2.3c3,0,5.9,0.3,8.9-0.7h0.1c0.3,0,0.5,0,0.8,0c2.7,0,5.5,0,8.2-1h0c0.3,0,0.5,0,0.8,0c2.5-0.1,5-0.5,7.4-1
		l3.6-4V86.5L-142.7,81.8z"/>
	<path id="XMLID_92_" class="st2" d="M-306.3,133.7v23.3l-2.9,4.2c-8.5,3.4-17.6,5.2-26.7,5.2c-9.2,0-18.5-1.7-27.3-5.2l-0.8-8
		c6.8-4.4,14-10,21.3-16.8c-7.7-7.9-15.3-17.1-22.6-27.5l5.3-6.8c7.6,3,15.6,4.5,23.6,4.5c3.2,0,6.6-0.2,9.8-0.7
		c3-0.4,6.2-1.1,9.2-2v9.4c-3,0.8-6.2,1.4-9.2,1.8c-3.2,0.4-6.5,0.6-9.7,0.6c-4.6,0-8.8-0.4-13.4-1.3c5.5,7,11.3,13.3,17.3,18.9v6.4
		c-7,6-12.8,11.3-18.8,15.8c5.1,1.2,10.2,1.8,15.4,1.8c6.9,0,14.4-1.2,20.4-3.5v-21.2l0.2,0C-312.1,133.1-309.3,133.4-306.3,133.7z"
		/>
	<path id="XMLID_87_" class="st2" d="M-121.9,136.4c7.3,6.8,14.5,12.4,21.3,16.8l-0.8,8c-8.8,3.5-18,5.2-27.3,5.2
		c-9.1,0-17.7-1.8-26.3-5.2l-2.4-4.2v-23.3c3-0.2,5.8-0.6,8.8-1c0.1,0,0.2,0,0.2,0v21.2c6,2.3,13.2,3.5,20.1,3.5
		c5.2,0,10.3-0.6,15.4-1.8c-6-4.5-12.5-9.7-18.5-15.8v-6.4c6-5.6,11.3-11.9,16.8-18.9c-4.5,0.9-9.2,1.3-13.8,1.3
		c-3.1,0-6.1-0.2-9.2-0.6c-3-0.4-5.8-1-8.8-1.7v-9.3c3,0.9,5.8,1.6,8.8,2c3.1,0.5,6.2,0.7,9.3,0.7c8,0,16-1.5,23.6-4.5l5.3,6.8
		C-106.5,119.3-114.2,128.5-121.9,136.4z"/>
	<g id="XMLID_10_">
		<g id="XMLID_466_">
			<path id="XMLID_473_" class="st2" d="M-264.5,70c0.9,10.2,1.8,20.3,2.7,30.5c-1.5,0.1-3,0.3-4.6,0.4c-1-10.1-2.1-20.3-3.1-30.4
				c-3,0.3-5.9,0.6-8.9,1c-0.2-1.5-0.4-3-0.6-4.5c7.7-1,15.4-1.7,23.1-2.2c0.1,1.5,0.2,3,0.3,4.5C-258.5,69.5-261.5,69.7-264.5,70z"
				/>
			<path id="XMLID_470_" class="st2" d="M-217.9,69c3.7,3.6,5.4,8,5.1,12.9c-0.2,5-2.3,9.1-6,12.5c-3.7,3.4-8,5.1-12.9,5.1
				c-5,0-9.2-1.6-13-5c-3.7-3.4-5.8-7.5-6.1-12.5c-0.3-5,1.4-9.3,5.1-13c3.7-3.7,8.4-5.5,13.9-5.6C-226.2,63.5-221.6,65.3-217.9,69z
				 M-231.7,68.1c-4,0-7.5,1.4-10.2,4.1c-2.7,2.7-4,5.9-3.8,9.6c0.2,3.7,1.7,6.8,4.4,9.3c2.8,2.5,6,3.8,9.7,3.8c3.8,0,7-1.3,9.7-3.8
				c2.7-2.6,4.2-5.7,4.4-9.4c0.1-3.7-1.1-6.9-3.9-9.6C-224.2,69.4-227.7,68.1-231.7,68.1z"/>
			<path id="XMLID_467_" class="st2" d="M-202.1,89c-0.3,3.7-0.6,7.5-0.9,11.2c-1.5-0.1-3-0.2-4.6-0.3c0.8-11.7,1.6-23.4,2.3-35.1
				c3.7,0.2,7.3,0.5,11,0.9c3.1,0.7,5.6,2.1,7.5,4.3c2.3,2.6,3.2,5.6,2.7,8.8c-0.4,3.3-2,5.9-4.7,8c-2.7,2-5.7,2.9-9.1,2.6
				C-199.2,89.2-200.6,89.1-202.1,89z M-200.5,69.7c-0.4,4.9-0.8,9.8-1.2,14.7c1.4,0.1,2.9,0.2,4.3,0.4c2.1,0.2,4-0.3,5.7-1.6
				c1.7-1.3,2.6-2.9,2.9-5c0.2-2-0.3-3.8-1.8-5.4c-1.4-1.6-3.2-2.5-5.4-2.7C-197.5,70-199,69.8-200.5,69.7z"/>
		</g>
	</g>
</g>
<g id="XMLID_98_">
	<polygon id="XMLID_132_" class="st2" points="150.7,46 138.8,46 133,55 144.9,55 	"/>
	<polygon id="XMLID_142_" class="st2" points="131.1,58 98.7,108.5 97.9,111.1 96.2,167.8 67.7,191 67.7,110 67.1,107.5 12.9,10 
		161.9,10 149.1,30 160.9,30 175.2,7.7 171,0 4.4,0 0,7.4 57.7,111.3 57.7,201.5 65.9,205.4 104.3,174.1 106.1,170.4 107.9,112.7 
		143,58 	"/>
	<polygon id="XMLID_143_" class="st2" points="147.1,33 140.7,43 152.6,43 159,33 	"/>
	<g id="XMLID_33_">
		<polygon id="XMLID_53_" class="st2" points="133.1,55 131.1,58 107.7,58 111,55 		"/>
		<polygon id="XMLID_73_" class="st2" points="141.1,43 139.1,46 115.7,46 119,43 		"/>
		<polygon id="XMLID_96_" class="st2" points="149.1,30 147.1,33 123.7,33 127,30 		"/>
	</g>
</g>
<g id="XMLID_180_" class="st0">
	<polygon id="XMLID_186_" class="st8" points="349.4,125.9 347.6,123.9 323.4,133.9 326,100.1 304,74.4 337,66.4 354.7,37.5 
		372,65.7 373.7,65.3 375.5,62.3 377.4,59.3 354.7,22.3 331.9,59.4 289.5,69.6 317.8,102.8 314.4,146.3 352.7,130.5 352.7,129.9 	
		"/>
	<polygon id="XMLID_188_" class="st8" points="497.6,102.8 525.9,69.6 483.5,59.4 460.7,22.3 438,59.3 439.9,62.3 441.7,65.3 
		443.4,65.7 460.7,37.5 478.4,66.4 511.4,74.4 489.4,100.1 492,133.9 467.8,123.9 466,125.9 462.7,129.9 462.7,130.5 501,146.3 	"/>
	<g id="XMLID_129_" class="st1">
		<path id="XMLID_146_" class="st2" d="M388.5,70.3l-8.2-2l-1.5,2.5l-53.6,12.9l32.9,38.6l10.8,4.5l0.3-3.8l-29.5-34.6l44.2-10.6
			L388.5,70.3z M454.4,125.7l2.9-3.3l32.9-38.6l-53.6-12.9l-1.5-2.5l-4.4-7.2l-22.9-37.4l-22.9,37.4l-4.4,7.2l-1.5,2.5l-53.6,12.9
			l32.9,38.6l2.9,3.3l-0.5,6.3l-3.8,48.7l51-21.1l51,21.1l-3.8-48.7L454.4,125.7z M407.7,151l-42,17.4l2.6-33.1l0.6-8.4l0.3-3.8
			l-29.5-34.6l44.2-10.6l4.6-7.5l4.4-7.2l14.8-24.1l14.8,24.1l4.4,7.2l4.6,7.5l44.2,10.6l-29.5,34.6l0.3,3.8l0.6,8.4l2.6,33.1
			L407.7,151z"/>
	</g>
</g>
<g id="XMLID_247_" class="st0">
	<rect id="XMLID_184_" x="663.1" y="32.4" class="st9" width="129.2" height="175.2"/>
	<rect id="XMLID_185_" x="648.4" y="16.1" class="st9" width="158.6" height="15.5"/>
	<polyline id="XMLID_189_" class="st9" points="698.7,12 698.7,-2 754.7,-2 754.7,12 	"/>
	<line id="XMLID_190_" class="st9" x1="695.7" y1="204" x2="695.7" y2="61"/>
	<line id="XMLID_191_" class="st9" x1="759.7" y1="204" x2="759.7" y2="61"/>
	<line id="XMLID_192_" class="st9" x1="727.7" y1="204" x2="727.7" y2="61"/>
</g>
</svg>
