<?xml version="1.0" encoding="utf-8"?>
<!-- Generator: Adobe Illustrator 19.0.0, SVG Export Plug-In . SVG Version: 6.00 Build 0)  -->
<svg version="1.1" id="Layer_1" xmlns="http://www.w3.org/2000/svg" xmlns:xlink="http://www.w3.org/1999/xlink" x="0px" y="0px"
	 viewBox="0 0 266 127.2" style="enable-background:new 0 0 266 127.2;" xml:space="preserve">
<style type="text/css">
	.st0{display:none;}
	.st1{display:inline;}
	.st2{fill:#6DB43D;}
	.st3{fill:#FFFFFF;}
	.st4{fill:none;stroke:#FFFFFF;stroke-width:8;stroke-linecap:round;stroke-linejoin:round;stroke-miterlimit:10;}
	.st5{display:inline;fill:none;stroke:#6DB43D;stroke-width:10;stroke-linecap:round;stroke-linejoin:round;stroke-miterlimit:10;}
	.st6{display:inline;fill:none;stroke:#6DB43D;stroke-width:10;stroke-linecap:round;stroke-linejoin:bevel;stroke-miterlimit:10;}
	.st7{fill:none;stroke:#6DB43D;stroke-width:12;stroke-linejoin:round;stroke-miterlimit:10;}
	.st8{display:inline;fill:#6DB43D;}
	.st9{display:inline;fill:none;stroke:#6DB43D;stroke-width:8;stroke-linejoin:bevel;stroke-miterlimit:10;}
</style>
<g id="XMLID_1_" class="st0">
	<g id="XMLID_6_" class="st1">
		<path id="XMLID_309_" class="st2" d="M-786.5,63.5c-22.6,0-41,18.4-41,41s18.4,41,41,41s41-18.4,41-41S-763.9,63.5-786.5,63.5z"/>
		<path id="XMLID_310_" class="st2" d="M-821,137.8l-6,6l-79.3-79.3c-9.1-9.1-14.1-21.2-14.1-34.2c0-13,5-25.1,14.1-34.2
			C-897.2-13-885-18-872.1-18c13,0,25.1,5,34.2,14.1l7.3,7.3c2,2,5.1,2,7.1,0l7.3-7.3C-807-13-794.9-18-781.9-18s25.1,5,34.2,14.1
			c9.1,9.1,14.1,21.2,14.1,34.2c0,13-5,25.1-14.1,34.2l-5.5,5.5c2.4,2.3,4.6,4.9,6.5,7.7l6.1-6.1c11-11,17-25.6,17-41.3
			c0-15.6-6-30.3-17-41.3c-11-11-25.6-17-41.3-17s-30.3,6-41.3,17l-3.8,3.8l-3.8-3.8c-11-11-25.6-17-41.3-17c-15.6,0-30.3,6-41.3,17
			c-11,11-17,25.6-17,41.3c0,15.6,6,30.3,17,41.3l82.8,82.8c1,1,2.3,1.5,3.5,1.5c1.3,0,2.6-0.5,3.5-1.5l10.2-10.2
			C-816.1,142.4-818.6,140.2-821,137.8z"/>
		<path id="XMLID_321_" class="st3" d="M-755.6,72.5L-755.6,72.5l2.5,2.6C-753.9,74.2-754.7,73.3-755.6,72.5z"/>
		<path id="XMLID_322_" class="st3" d="M-818.5,135.3c0.8,0.9,1.7,1.7,2.6,2.5L-818.5,135.3L-818.5,135.3z"/>
	</g>
	<g id="XMLID_3_" class="st1">
		<line id="XMLID_4_" class="st4" x1="-761" y1="105" x2="-812" y2="105"/>
		<line id="XMLID_5_" class="st4" x1="-786" y1="79" x2="-786" y2="133"/>
	</g>
</g>
<g id="XMLID_66_" class="st0">
	<circle id="XMLID_23_" class="st5" cx="-537.7" cy="32.3" r="68.8"/>
	<g id="XMLID_44_" class="st1">
		
			<rect id="XMLID_45_" x="-447.4" y="99" transform="matrix(0.7071 -0.7071 0.7071 0.7071 -222.8443 -270.8655)" class="st2" width="18" height="69.2"/>
		
			<rect id="XMLID_46_" x="-477.5" y="92.8" transform="matrix(0.7071 0.7071 -0.7071 0.7071 -65.7364 362.2693)" class="st2" width="14.7" height="18"/>
		
			<rect id="XMLID_47_" x="-491.3" y="79.8" transform="matrix(0.7071 0.7071 -0.7071 0.7071 -78.7652 367.6645)" class="st2" width="16.2" height="18"/>
	</g>
</g>
<g id="XMLID_125_" class="st0">
	<rect id="XMLID_81_" x="-293" y="-36" class="st6" width="50" height="50"/>
	<rect id="XMLID_120_" x="-293" y="39" class="st6" width="50" height="50"/>
	<rect id="XMLID_121_" x="-293" y="114" class="st6" width="50" height="50"/>
	<g id="XMLID_123_" class="st1">
		<polyline id="XMLID_134_" class="st7" points="-218,-16 -200.9,-5.1 -183.7,-16 -166.6,-5.1 -149.5,-16 -132.4,-5.1 -115.2,-16 
			-98.1,-5.1 -81,-16 		"/>
	</g>
	<g id="XMLID_122_" class="st1">
		<polyline id="XMLID_112_" class="st7" points="-218,58 -200.9,68.9 -183.7,58 -166.6,68.9 -149.5,58 -132.4,68.9 -115.2,58 
			-98.1,68.9 -81,58 		"/>
	</g>
	<g id="XMLID_124_" class="st1">
		<polyline id="XMLID_110_" class="st7" points="-218,133 -200.9,143.9 -183.7,133 -166.6,143.9 -149.5,133 -132.4,143.9 
			-115.2,133 -98.1,143.9 -81,133 		"/>
	</g>
</g>
<g id="XMLID_32_">
	<path id="XMLID_103_" class="st2" d="M86.8,77.3c-0.2,0-0.5,0.1-0.7,0.1c-1.6,0.2-3.1,0.5-4.6,0.8c-1.1,0.2-2.5,0.4-3.5,0.6V64.2
		c-3,0.2-5.8,0.8-8.8,0.8c-0.1,0-0.2,0-0.2,0v19.3l5.6,4.4l0,0c4.7-1,9.3-1.8,14.3-2.5v-9.1C88,77.1,87.5,77.2,86.8,77.3z
		 M86.8,77.3c-0.2,0-0.5,0.1-0.7,0.1c-1.6,0.2-3.1,0.5-4.6,0.8c-1.1,0.2-2.5,0.4-3.5,0.6V64.2c-3,0.2-5.8,0.8-8.8,0.8
		c-0.1,0-0.2,0-0.2,0v19.3l5.6,4.4l0,0c4.7-1,9.3-1.8,14.3-2.5v-9.1C88,77.1,87.5,77.2,86.8,77.3z M88.8,77
		C88.8,77.1,88.8,77.1,88.8,77c-0.6,0.1-1.3,0.2-1.9,0.3c-0.2,0-0.5,0.1-0.7,0.1c-1.6,0.2-3.1,0.5-4.6,0.8c-1.1,0.2-2.5,0.4-3.5,0.6
		V54.2c-3,0.2-6,0.8-9,0.8h0v29.3l5.6,4.4c4.7-1,9.4-1.8,14.1-2.5c0.1,0,0.1,0,0.2,0c0,0,0.1,0,0.1,0V77C89,77,88.8,77,88.8,77z
		 M195,5.9c-16.8-3.5-54.1-5.2-71.1-5.2c-17.1,0-34.3,1.8-51.1,5.2L69,10.3v73.9l5.4,4.4c0.1,0,0.1,0,0.2,0c4.7-1,9.4-1.8,14.1-2.5
		c0.1,0,0.1,0,0.2,0c0,0,0,0,0.1,0c2.9-0.4,5.7-0.8,8.6-1.1c0.1,0,0.2,0,0.3,0c0,0,0,0,0,0c8.5-0.9,17-1.3,25.6-1.3
		c8.2,0,36.4,0.4,44.6,1.3c0.2,0,0.3,0,0.4,0c0.1,0,0.3,0,0.4,0c2.7,0.3,5.4,0.6,8.2,1c0.1,0,0.3,0,0.4,0.1c0.1,0,0.3,0,0.4,0.1
		c4.9,0.7,10.3,1.5,15.1,2.6l5.9-4.4V10.3L195,5.9z M190,78.8c-4-0.7-8.1-1.3-12-1.8l-0.2,0c-0.1,0-0.2,0-0.3,0
		c-2.7-0.4-5.7-0.7-8.5-1c-0.1,0-0.2,0-0.4,0c-0.1,0-0.3,0-0.5,0c-8.2-0.8-36.4-1.2-44.6-1.2c-8.5,0-17.1,0.4-25.6,1.3
		c-0.1,0-0.3,0-0.4,0c-2.8,0.3-5.8,0.6-8.6,1c-0.1,0-0.2,0-0.3,0c0,0,0,0,0,0c-0.7,0.1-1.3,0.2-1.9,0.3c-0.2,0-0.5,0.1-0.7,0.1
		c-1.6,0.2-3.1,0.5-4.6,0.8c-1.1,0.2-2.5,0.4-3.5,0.6V14c16-2.9,30.8-4.3,46-4.3s50,1.4,66,4.3V78.8z M88.8,77
		C88.8,77.1,88.8,77.1,88.8,77c-0.6,0.1-1.3,0.2-1.9,0.3c-0.2,0-0.5,0.1-0.7,0.1c-1.6,0.2-3.1,0.5-4.6,0.8c-1.1,0.2-2.5,0.4-3.5,0.6
		V54.2c-3,0.2-6,0.8-9,0.8h0v29.3l5.6,4.4c4.7-1,9.4-1.8,14.1-2.5c0.1,0,0.1,0,0.2,0c0,0,0.1,0,0.1,0V77C89,77,88.8,77,88.8,77z
		 M86.8,77.3c-0.2,0-0.5,0.1-0.7,0.1c-1.6,0.2-3.1,0.5-4.6,0.8c-1.1,0.2-2.5,0.4-3.5,0.6V64.2c-3,0.2-5.8,0.8-8.8,0.8
		c-0.1,0-0.2,0-0.2,0v19.3l5.6,4.4l0,0c4.7-1,9.3-1.8,14.3-2.5v-9.1C88,77.1,87.5,77.2,86.8,77.3z"/>
	<path id="XMLID_305_" class="st2" d="M98,75.9v20.9l-3.6,4.4c-8.7,1.8-17.5,2.4-26.3,2.4c-3,0-6.1,0.3-9.1-0.6
		c-0.1,0-0.1-0.1-0.2-0.1h-0.1c-2.9,0-5.9,0-8.8-0.9c-0.1,0-0.1-0.1-0.2-0.1h0c-2.7,0-5-0.5-7.6-1l-3.2-4V47.4l5-4.4
		c8.1,1.7,16.1,2.5,24.3,2.5c0.2,0,0.2,0.2,0.3,0.2c0.1,0,0.2,0.2,0.4,0.2h0.1c3,0,5.9-0.6,8.9-0.8v9c-3,0.2-6,0.8-9,0.8h0
		c-0.1,0-0.3-0.2-0.3-0.2c-0.1,0,0-0.1-0.2-0.1c-7,0-14.4-0.7-20.4-1.8v40.3c0,0.1,1.1,0.3,2,0.4l0,0l0.1,0c3,0.4,5.8,0.9,8.7,1.2
		c0,0,0,0.2,0.1,0.2H59c3.1,0,6.1,0.2,9.2,0.2c7,0,13.8-0.8,20.8-2V77c3-0.4,5.8-0.7,8.6-1C97.7,76,98,76,98,75.9z"/>
	<path id="XMLID_99_" class="st2" d="M222.6,42.7c-7.8,1.6-15.7,2.2-23.6,2.2h-0.9c-2.8,0-6.1,0.3-8.1,0.2v9c2,0.2,5.2-0.2,8.1-0.2
		h0.9c6.7,0,13,0,20-1.1v40.3c-1,0.1-1.8,0.3-2.6,0.4c-0.1,0-0.2,0-0.3,0c-3,0.5-5.9,0.8-8.9,1c0,0-0.1,0-0.1,0
		c-3,0.2-5.6,0.3-8.6,0.3c-7,0-14.5-0.6-20.5-1.8V77l-0.2,0c-0.1,0-0.2,0-0.3,0c-2.7-0.4-5.5-0.7-8.5-1v21l3.2,4.4
		c8.7,1.8,17.3,2.3,26.1,2.3c3,0,5.9,0.3,8.9-0.7h0.1c0.3,0,0.5,0,0.8,0c2.7,0,5.5,0,8.2-1h0c0.3,0,0.5,0,0.8,0c2.5-0.1,5-0.5,7.4-1
		l3.6-4V47.4L222.6,42.7z"/>
	<path id="XMLID_92_" class="st2" d="M59,94.6v23.3l-2.9,4.2c-8.5,3.4-17.6,5.2-26.7,5.2c-9.2,0-18.5-1.7-27.3-5.2l-0.8-8
		c6.8-4.4,14-10,21.3-16.8C14.9,89.4,7.3,80.3,0,69.9l5.3-6.8c7.6,3,15.6,4.5,23.6,4.5c3.2,0,6.6-0.2,9.8-0.7c3-0.4,6.2-1.1,9.2-2
		v9.4c-3,0.8-6.2,1.4-9.2,1.8c-3.2,0.4-6.5,0.6-9.7,0.6c-4.6,0-8.8-0.4-13.4-1.3c5.5,7,11.3,13.3,17.3,18.9v6.4
		c-7,6-12.8,11.3-18.8,15.8c5.1,1.2,10.2,1.8,15.4,1.8c6.9,0,14.4-1.2,20.4-3.5V93.6l0.2,0C53.2,94.1,56,94.4,59,94.6z"/>
	<path id="XMLID_87_" class="st2" d="M243.4,97.4c7.3,6.8,14.5,12.4,21.3,16.8l-0.8,8c-8.8,3.5-18,5.2-27.3,5.2
		c-9.1,0-17.7-1.8-26.3-5.2l-2.4-4.2V94.6c3-0.2,5.8-0.6,8.8-1c0.1,0,0.2,0,0.2,0v21.2c6,2.3,13.2,3.5,20.1,3.5
		c5.2,0,10.3-0.6,15.4-1.8c-6-4.5-12.5-9.7-18.5-15.8v-6.4c6-5.6,11.3-11.9,16.8-18.9c-4.5,0.9-9.2,1.3-13.8,1.3
		c-3.1,0-6.1-0.2-9.2-0.6c-3-0.4-5.8-1-8.8-1.7v-9.3c3,0.9,5.8,1.6,8.8,2c3.1,0.5,6.2,0.7,9.3,0.7c8,0,16-1.5,23.6-4.5l5.3,6.8
		C258.8,80.3,251.1,89.4,243.4,97.4z"/>
	<g id="XMLID_10_">
		<g id="XMLID_453_">
			<path id="XMLID_460_" class="st2" d="M100.9,31c0.9,10.2,1.8,20.3,2.7,30.5c-1.5,0.1-3,0.3-4.6,0.4c-1-10.1-2.1-20.3-3.1-30.4
				c-3,0.3-5.9,0.6-8.9,1c-0.2-1.5-0.4-3-0.6-4.5c7.7-1,15.4-1.7,23.1-2.2c0.1,1.5,0.2,3,0.3,4.5C106.8,30.5,103.8,30.7,100.9,31z"
				/>
			<path id="XMLID_457_" class="st2" d="M147.5,29.9c3.7,3.6,5.4,8,5.1,12.9c-0.2,5-2.3,9.1-6,12.5c-3.7,3.4-8,5.1-12.9,5.1
				c-5,0-9.2-1.6-13-5c-3.7-3.4-5.8-7.5-6.1-12.5c-0.3-5,1.4-9.3,5.1-13c3.7-3.7,8.4-5.5,13.9-5.6C139.1,24.4,143.7,26.3,147.5,29.9
				z M133.6,29c-4,0-7.5,1.4-10.2,4.1c-2.7,2.7-4,5.9-3.8,9.6c0.2,3.7,1.7,6.8,4.4,9.3c2.8,2.5,6,3.8,9.7,3.8c3.8,0,7-1.3,9.7-3.8
				c2.7-2.6,4.2-5.7,4.4-9.4c0.1-3.7-1.1-6.9-3.9-9.6C141.1,30.4,137.6,29,133.6,29z"/>
			<path id="XMLID_454_" class="st2" d="M163.2,49.9c-0.3,3.7-0.6,7.5-0.9,11.2c-1.5-0.1-3-0.2-4.6-0.3c0.8-11.7,1.6-23.4,2.3-35.1
				c3.7,0.2,7.3,0.5,11,0.9c3.1,0.7,5.6,2.1,7.5,4.3c2.3,2.6,3.2,5.6,2.7,8.8c-0.4,3.3-2,5.9-4.7,8c-2.7,2-5.7,2.9-9.1,2.6
				C166.1,50.2,164.7,50.1,163.2,49.9z M164.8,30.7c-0.4,4.9-0.8,9.8-1.2,14.7c1.4,0.1,2.9,0.2,4.3,0.4c2.1,0.2,4-0.3,5.7-1.6
				c1.7-1.3,2.6-2.9,2.9-5c0.2-2-0.3-3.8-1.8-5.4c-1.4-1.6-3.2-2.5-5.4-2.7C167.8,30.9,166.3,30.8,164.8,30.7z"/>
		</g>
	</g>
</g>
<g id="XMLID_98_">
	<polygon id="XMLID_132_" class="st2" points="516,7 504.1,7 498.3,16 510.2,16 	"/>
	<polygon id="XMLID_142_" class="st2" points="496.4,19 464,69.5 463.2,72 461.5,128.7 433,151.9 433,70.9 432.4,68.5 378.2,-29 
		527.2,-29 514.4,-9 526.3,-9 540.6,-31.3 536.4,-39 369.7,-39 365.3,-31.6 423,72.2 423,162.5 431.2,166.3 469.6,135.1 
		471.4,131.3 473.2,73.7 508.3,19 	"/>
	<polygon id="XMLID_143_" class="st2" points="512.5,-6 506,4 517.9,4 524.3,-6 	"/>
	<g id="XMLID_33_">
		<polygon id="XMLID_53_" class="st2" points="498.4,16 496.4,19 473,19 476.3,16 		"/>
		<polygon id="XMLID_73_" class="st2" points="506.4,4 504.4,7 481,7 484.3,4 		"/>
		<polygon id="XMLID_96_" class="st2" points="514.4,-9 512.4,-6 489,-6 492.3,-9 		"/>
	</g>
</g>
<g id="XMLID_180_" class="st0">
	<polygon id="XMLID_186_" class="st8" points="714.7,86.9 713,84.9 688.7,94.9 691.3,61.1 669.4,35.3 702.3,27.4 720,-1.5 
		737.3,26.7 739,26.2 740.8,23.3 742.7,20.2 720,-16.8 697.2,20.4 654.8,30.6 683.1,63.8 679.7,107.2 718,91.4 718.1,90.8 	"/>
	<polygon id="XMLID_188_" class="st8" points="862.9,63.8 891.2,30.6 848.8,20.4 826,-16.8 803.3,20.2 805.2,23.3 807,26.2 
		808.7,26.7 826,-1.5 843.7,27.4 876.7,35.3 854.7,61.1 857.3,94.9 833.1,84.9 831.3,86.9 828,90.8 828,91.4 866.3,107.2 	"/>
	<g id="XMLID_129_" class="st1">
		<path id="XMLID_146_" class="st2" d="M753.9,31.3l-8.2-2l-1.5,2.5l-53.6,12.9l32.9,38.6l10.8,4.5l0.3-3.8L705,49.4l44.2-10.6
			L753.9,31.3z M819.7,86.7l2.9-3.3l32.9-38.6l-53.6-12.9l-1.5-2.5l-4.4-7.2L773-15.2l-22.9,37.4l-4.4,7.2l-1.5,2.5l-53.6,12.9
			l32.9,38.6l2.9,3.3l-0.5,6.3l-3.8,48.7l51-21.1l51,21.1L820.2,93L819.7,86.7z M773,112l-42,17.4l2.6-33.1l0.6-8.4l0.3-3.8
			L705,49.4l44.2-10.6l4.6-7.5l4.4-7.2L773,0.1l14.8,24.1l4.4,7.2l4.6,7.5L841,49.4L811.5,84l0.3,3.8l0.6,8.4l2.6,33.1L773,112z"/>
	</g>
</g>
<g id="XMLID_247_" class="st0">
	<rect id="XMLID_184_" x="1028.4" y="-6.6" class="st9" width="129.2" height="175.2"/>
	<rect id="XMLID_185_" x="1013.7" y="-22.9" class="st9" width="158.6" height="15.5"/>
	<polyline id="XMLID_189_" class="st9" points="1064,-27 1064,-41 1120,-41 1120,-27 	"/>
	<line id="XMLID_190_" class="st9" x1="1061" y1="165" x2="1061" y2="22"/>
	<line id="XMLID_191_" class="st9" x1="1125" y1="165" x2="1125" y2="22"/>
	<line id="XMLID_192_" class="st9" x1="1093" y1="165" x2="1093" y2="22"/>
</g>
</svg>
