<?xml version="1.0" encoding="utf-8"?>
<!-- Generator: Adobe Illustrator 19.0.0, SVG Export Plug-In . SVG Version: 6.00 Build 0)  -->
<svg version="1.1" id="Layer_1" xmlns="http://www.w3.org/2000/svg" xmlns:xlink="http://www.w3.org/1999/xlink" x="0px" y="0px"
	 viewBox="0 0 300 300" style="enable-background:new 0 0 300 300;" xml:space="preserve">
<style type="text/css">
	.st0{display:none;}
	.st1{display:inline;}
	.st2{fill:none;stroke:#6DB43D;stroke-width:10;stroke-linejoin:round;stroke-miterlimit:10;}
	.st3{fill:#6DB43D;}
	.st4{fill:none;stroke:#FFFFFF;stroke-width:8;stroke-linecap:round;stroke-linejoin:round;stroke-miterlimit:10;}
	.st5{display:inline;fill:none;stroke:#6DB43D;stroke-width:10;stroke-linecap:round;stroke-linejoin:round;stroke-miterlimit:10;}
	.st6{display:inline;fill:none;stroke:#6DB43D;stroke-width:10;stroke-linecap:round;stroke-linejoin:bevel;stroke-miterlimit:10;}
	.st7{fill:none;stroke:#6DB43D;stroke-width:12;stroke-linejoin:round;stroke-miterlimit:10;}
	.st8{display:inline;fill:#6DB43D;}
	.st9{display:inline;fill:none;stroke:#6DB43D;stroke-width:8;stroke-linejoin:bevel;stroke-miterlimit:10;}
	.st10{fill:url(#XMLID_60_);}
	.st11{fill:url(#XMLID_71_);}
	.st12{fill:url(#XMLID_72_);}
	.st13{fill:url(#XMLID_74_);}
	.st14{fill:url(#XMLID_75_);}
</style>
<g id="XMLID_1_" class="st0">
	<g id="XMLID_6_" class="st1">
		<path id="XMLID_7_" class="st2" d="M-2015.1,162.1l0.6-0.6l7.3-7.3c10.4-10.4,15.6-24.1,15.6-37.8s-5.2-27.4-15.6-37.8
			c-20.8-20.8-54.7-20.8-75.5,0l-7.3,7.3l-7.3-7.3c-20.8-20.8-54.7-20.8-75.5,0c-10.4,10.4-15.6,24.1-15.6,37.8s5.2,27.4,15.6,37.8
			l82.8,82.8l12.1-12.1"/>
	</g>
	<g id="XMLID_2_" class="st1">
		<path id="XMLID_8_" class="st3" d="M-2039.5,229.5c-16,0-29-13-29-29s13-29,29-29c16,0,29,13,29,29S-2023.5,229.5-2039.5,229.5z"
			/>
		<g id="XMLID_3_">
			<line id="XMLID_4_" class="st4" x1="-2027" y1="201" x2="-2052" y2="201"/>
			<line id="XMLID_5_" class="st4" x1="-2039" y1="189" x2="-2039" y2="214"/>
		</g>
	</g>
</g>
<g id="XMLID_66_" class="st0">
	<circle id="XMLID_23_" class="st5" cx="-1800.7" cy="118.3" r="68.8"/>
	<g id="XMLID_44_" class="st1">
		
			<rect id="XMLID_45_" x="-1710.4" y="185" transform="matrix(0.7071 -0.7071 0.7071 0.7071 -653.6085 -1138.754)" class="st3" width="18" height="69.2"/>
		
			<rect id="XMLID_46_" x="-1740.5" y="178.8" transform="matrix(0.7071 0.7071 -0.7071 0.7071 -374.83 1280.5555)" class="st3" width="14.7" height="18"/>
		
			<rect id="XMLID_47_" x="-1754.3" y="165.8" transform="matrix(0.7071 0.7071 -0.7071 0.7071 -387.8543 1285.9456)" class="st3" width="16.2" height="18"/>
	</g>
</g>
<g id="XMLID_125_" class="st0">
	<rect id="XMLID_81_" x="-1556" y="50" class="st6" width="50" height="50"/>
	<rect id="XMLID_120_" x="-1556" y="125" class="st6" width="50" height="50"/>
	<rect id="XMLID_121_" x="-1556" y="200" class="st6" width="50" height="50"/>
	<g id="XMLID_123_" class="st1">
		<polyline id="XMLID_134_" class="st7" points="-1481,70 -1463.9,81 -1446.8,70 -1429.6,81 -1412.5,70 -1395.4,81 -1378.3,70 
			-1361.1,81 -1344,70 		"/>
	</g>
	<g id="XMLID_122_" class="st1">
		<polyline id="XMLID_112_" class="st7" points="-1481,144 -1463.9,155 -1446.8,144 -1429.6,155 -1412.5,144 -1395.4,155 
			-1378.3,144 -1361.1,155 -1344,144 		"/>
	</g>
	<g id="XMLID_124_" class="st1">
		<polyline id="XMLID_110_" class="st7" points="-1481,219 -1463.9,230 -1446.8,219 -1429.6,230 -1412.5,219 -1395.4,230 
			-1378.3,219 -1361.1,230 -1344,219 		"/>
	</g>
</g>
<g id="XMLID_32_" class="st0">
	<path id="XMLID_103_" class="st8" d="M-1176.2,163.4c-0.2,0-0.5,0.1-0.7,0.1c-1.6,0.2-3.1,0.5-4.6,0.8c-1.1,0.2-2.5,0.4-3.5,0.6
		v-14.6c-3,0.2-5.8,0.8-8.8,0.8c-0.1,0-0.2,0-0.2,0v19.3l5.6,4.4l0,0c4.7-1,9.3-1.8,14.3-2.5v-9.1
		C-1175,163.2-1175.5,163.3-1176.2,163.4z M-1176.2,163.4c-0.2,0-0.5,0.1-0.7,0.1c-1.6,0.2-3.1,0.5-4.6,0.8
		c-1.1,0.2-2.5,0.4-3.5,0.6v-14.6c-3,0.2-5.8,0.8-8.8,0.8c-0.1,0-0.2,0-0.2,0v19.3l5.6,4.4l0,0c4.7-1,9.3-1.8,14.3-2.5v-9.1
		C-1175,163.2-1175.5,163.3-1176.2,163.4z M-1174.3,163.1C-1174.2,163.1-1174.2,163.1-1174.3,163.1c-0.6,0.1-1.3,0.2-1.9,0.3
		c-0.2,0-0.5,0.1-0.7,0.1c-1.6,0.2-3.1,0.5-4.6,0.8c-1.1,0.2-2.5,0.4-3.5,0.6v-24.6c-3,0.2-6,0.8-9,0.8h0v29.3l5.6,4.4
		c4.7-1,9.4-1.8,14.1-2.5c0.1,0,0.1,0,0.2,0c0,0,0.1,0,0.1,0v-9.1C-1174,163.1-1174.2,163.1-1174.3,163.1z M-1068.1,92
		c-16.8-3.5-54.1-5.2-71.1-5.2c-17.1,0-34.3,1.8-51.1,5.2l-3.7,4.4v73.9l5.4,4.4c0.1,0,0.1,0,0.2,0c4.7-1,9.4-1.8,14.1-2.5
		c0.1,0,0.1,0,0.2,0c0,0,0,0,0.1,0c2.9-0.4,5.7-0.8,8.6-1.1c0.1,0,0.2,0,0.3,0c0,0,0,0,0,0c8.5-0.9,17-1.3,25.6-1.3
		c8.2,0,36.4,0.4,44.6,1.3c0.2,0,0.3,0,0.4,0c0.1,0,0.3,0,0.4,0c2.7,0.3,5.4,0.6,8.2,1c0.1,0,0.3,0,0.4,0.1c0.1,0,0.3,0,0.4,0.1
		c4.9,0.7,10.3,1.5,15.1,2.6l5.9-4.4V96.4L-1068.1,92z M-1073,164.8c-4-0.7-8.1-1.3-12-1.8l-0.2,0c-0.1,0-0.2,0-0.3,0
		c-2.7-0.4-5.7-0.7-8.5-1c-0.1,0-0.2,0-0.4,0c-0.1,0-0.3,0-0.5,0c-8.2-0.8-36.4-1.2-44.6-1.2c-8.5,0-17.1,0.4-25.6,1.3
		c-0.1,0-0.3,0-0.4,0c-2.8,0.3-5.8,0.6-8.6,1c-0.1,0-0.2,0-0.3,0c0,0,0,0,0,0c-0.7,0.1-1.3,0.2-1.9,0.3c-0.2,0-0.5,0.1-0.7,0.1
		c-1.6,0.2-3.1,0.5-4.6,0.8c-1.1,0.2-2.5,0.4-3.5,0.6V100c16-2.9,30.8-4.3,46-4.3s50,1.4,66,4.3V164.8z M-1174.3,163.1
		C-1174.2,163.1-1174.2,163.1-1174.3,163.1c-0.6,0.1-1.3,0.2-1.9,0.3c-0.2,0-0.5,0.1-0.7,0.1c-1.6,0.2-3.1,0.5-4.6,0.8
		c-1.1,0.2-2.5,0.4-3.5,0.6v-24.6c-3,0.2-6,0.8-9,0.8h0v29.3l5.6,4.4c4.7-1,9.4-1.8,14.1-2.5c0.1,0,0.1,0,0.2,0c0,0,0.1,0,0.1,0
		v-9.1C-1174,163.1-1174.2,163.1-1174.3,163.1z M-1176.2,163.4c-0.2,0-0.5,0.1-0.7,0.1c-1.6,0.2-3.1,0.5-4.6,0.8
		c-1.1,0.2-2.5,0.4-3.5,0.6v-14.6c-3,0.2-5.8,0.8-8.8,0.8c-0.1,0-0.2,0-0.2,0v19.3l5.6,4.4l0,0c4.7-1,9.3-1.8,14.3-2.5v-9.1
		C-1175,163.2-1175.5,163.3-1176.2,163.4z"/>
	<path id="XMLID_305_" class="st8" d="M-1165,162v20.9l-3.6,4.4c-8.7,1.8-17.5,2.4-26.3,2.4c-3,0-6.1,0.3-9.1-0.6
		c-0.1,0-0.1-0.1-0.2-0.1h-0.1c-2.9,0-5.9,0-8.8-0.9c-0.1,0-0.1-0.1-0.2-0.1h0c-2.7,0-5-0.5-7.6-1l-3.2-4v-49.5l5-4.4
		c8.1,1.7,16.1,2.5,24.3,2.5c0.2,0,0.2,0.2,0.3,0.2c0.1,0,0.2,0.2,0.4,0.2h0.1c3,0,5.9-0.6,8.9-0.8v9c-3,0.2-6,0.8-9,0.8h0
		c-0.1,0-0.3-0.2-0.3-0.2c-0.1,0,0-0.1-0.2-0.1c-7,0-14.4-0.7-20.4-1.8v40.3c0,0.1,1.1,0.3,2,0.4l0,0l0.1,0c3,0.4,5.8,0.9,8.7,1.2
		c0,0,0,0.2,0.1,0.2h0.1c3.1,0,6.1,0.2,9.2,0.2c7,0,13.8-0.8,20.8-2v-16.2c3-0.4,5.8-0.7,8.6-1C-1165.3,162-1165,162-1165,162z"/>
	<path id="XMLID_99_" class="st8" d="M-1040.4,128.8c-7.8,1.6-15.7,2.2-23.6,2.2h-0.9c-2.8,0-6.1,0.3-8.1,0.2v9
		c2,0.2,5.2-0.2,8.1-0.2h0.9c6.7,0,13,0,20-1.1v40.3c-1,0.1-1.8,0.3-2.6,0.4c-0.1,0-0.2,0-0.3,0c-3,0.5-5.9,0.8-8.9,1
		c0,0-0.1,0-0.1,0c-3,0.2-5.6,0.3-8.6,0.3c-7,0-14.5-0.6-20.5-1.8V163l-0.2,0c-0.1,0-0.2,0-0.3,0c-2.7-0.4-5.5-0.7-8.5-1v21l3.2,4.4
		c8.7,1.8,17.3,2.3,26.1,2.3c3,0,5.9,0.3,8.9-0.7h0.1c0.3,0,0.5,0,0.8,0c2.7,0,5.5,0,8.2-1h0c0.3,0,0.5,0,0.8,0c2.5-0.1,5-0.5,7.4-1
		l3.6-4v-49.5L-1040.4,128.8z"/>
	<path id="XMLID_92_" class="st8" d="M-1204,180.7v23.3l-2.9,4.2c-8.5,3.4-17.6,5.2-26.7,5.2c-9.2,0-18.5-1.7-27.3-5.2l-0.8-8
		c6.8-4.4,14-10,21.3-16.8c-7.7-7.9-15.3-17.1-22.6-27.5l5.3-6.8c7.6,3,15.6,4.5,23.6,4.5c3.2,0,6.6-0.2,9.8-0.7
		c3-0.4,6.2-1.1,9.2-2v9.4c-3,0.8-6.2,1.4-9.2,1.8c-3.2,0.4-6.5,0.6-9.7,0.6c-4.6,0-8.8-0.4-13.4-1.3c5.5,7,11.3,13.3,17.3,18.9v6.4
		c-7,6-12.8,11.3-18.8,15.8c5.1,1.2,10.2,1.8,15.4,1.8c6.9,0,14.4-1.2,20.4-3.5v-21.2l0.2,0C-1209.8,180.1-1207,180.4-1204,180.7z"
		/>
	<path id="XMLID_87_" class="st8" d="M-1019.6,183.4c7.3,6.8,14.5,12.4,21.3,16.8l-0.8,8c-8.8,3.5-18,5.2-27.3,5.2
		c-9.1,0-17.7-1.8-26.3-5.2l-2.4-4.2v-23.3c3-0.2,5.8-0.6,8.8-1c0.1,0,0.2,0,0.2,0v21.2c6,2.3,13.2,3.5,20.1,3.5
		c5.2,0,10.3-0.6,15.4-1.8c-6-4.5-12.5-9.7-18.5-15.8v-6.4c6-5.6,11.3-11.9,16.8-18.9c-4.5,0.9-9.2,1.3-13.8,1.3
		c-3.1,0-6.1-0.2-9.2-0.6c-3-0.4-5.8-1-8.8-1.7v-9.3c3,0.9,5.8,1.6,8.8,2c3.1,0.5,6.2,0.7,9.3,0.7c8,0,16-1.5,23.6-4.5l5.3,6.8
		C-1004.2,166.3-1011.9,175.5-1019.6,183.4z"/>
	<g id="XMLID_10_" class="st1">
		<g id="XMLID_161_">
			<path id="XMLID_168_" class="st3" d="M-1162.2,117c0.9,10.2,1.8,20.3,2.7,30.5c-1.5,0.1-3,0.3-4.6,0.4c-1-10.1-2.1-20.3-3.1-30.4
				c-3,0.3-5.9,0.6-8.9,1c-0.2-1.5-0.4-3-0.6-4.5c7.7-1,15.4-1.7,23.1-2.2c0.1,1.5,0.2,3,0.3,4.5
				C-1156.2,116.5-1159.2,116.7-1162.2,117z"/>
			<path id="XMLID_165_" class="st3" d="M-1115.6,116c3.7,3.6,5.4,8,5.1,12.9c-0.2,5-2.3,9.1-6,12.5c-3.7,3.4-8,5.1-12.9,5.1
				c-5,0-9.2-1.6-13-5c-3.7-3.4-5.8-7.5-6.1-12.5c-0.3-5,1.4-9.3,5.1-13c3.7-3.7,8.4-5.5,13.9-5.6
				C-1124,110.5-1119.3,112.3-1115.6,116z M-1129.4,115.1c-4,0-7.5,1.4-10.2,4.1c-2.7,2.7-4,5.9-3.8,9.6c0.2,3.7,1.7,6.8,4.4,9.3
				c2.8,2.5,6,3.8,9.7,3.8c3.8,0,7-1.3,9.7-3.8c2.7-2.6,4.2-5.7,4.4-9.4c0.1-3.7-1.1-6.9-3.9-9.6
				C-1121.9,116.4-1125.4,115.1-1129.4,115.1z"/>
			<path id="XMLID_162_" class="st3" d="M-1099.8,136c-0.3,3.7-0.6,7.5-0.9,11.2c-1.5-0.1-3-0.2-4.6-0.3c0.8-11.7,1.6-23.4,2.3-35.1
				c3.7,0.2,7.3,0.5,11,0.9c3.1,0.7,5.6,2.1,7.5,4.3c2.3,2.6,3.2,5.6,2.7,8.8c-0.4,3.3-2,5.9-4.7,8c-2.7,2-5.7,2.9-9.1,2.6
				C-1096.9,136.2-1098.3,136.1-1099.8,136z M-1098.2,116.7c-0.4,4.9-0.8,9.8-1.2,14.7c1.4,0.1,2.9,0.2,4.3,0.4
				c2.1,0.2,4-0.3,5.7-1.6c1.7-1.3,2.6-2.9,2.9-5c0.2-2-0.3-3.8-1.8-5.4c-1.4-1.6-3.2-2.5-5.4-2.7
				C-1095.2,117-1096.7,116.8-1098.2,116.7z"/>
		</g>
	</g>
</g>
<g id="XMLID_98_" class="st0">
	<polygon id="XMLID_132_" class="st8" points="-747,93 -758.9,93 -764.7,102 -752.8,102 	"/>
	<polygon id="XMLID_142_" class="st8" points="-766.6,105 -799,155.5 -799.8,158.1 -801.5,214.8 -830,238 -830,157 -830.6,154.5 
		-884.8,57 -735.8,57 -748.6,77 -736.8,77 -722.5,54.7 -726.7,47 -893.3,47 -897.7,54.4 -840,158.3 -840,248.5 -831.8,252.4 
		-793.4,221.1 -791.6,217.4 -789.8,159.7 -754.7,105 	"/>
	<polygon id="XMLID_143_" class="st8" points="-750.6,80 -757,90 -745.1,90 -738.7,80 	"/>
	<g id="XMLID_33_" class="st1">
		<polygon id="XMLID_53_" class="st3" points="-764.6,102 -766.6,105 -790,105 -786.7,102 		"/>
		<polygon id="XMLID_73_" class="st3" points="-756.6,90 -758.6,93 -782,93 -778.7,90 		"/>
		<polygon id="XMLID_96_" class="st3" points="-748.6,77 -750.6,80 -774,80 -770.7,77 		"/>
	</g>
</g>
<g id="XMLID_180_" class="st0">
	<polygon id="XMLID_186_" class="st8" points="-548.3,172.9 -550.1,170.9 -574.3,180.9 -571.7,147.1 -593.7,121.4 -560.7,113.4 
		-543,84.5 -525.7,112.7 -524,112.3 -522.2,109.3 -520.3,106.3 -543,69.3 -565.8,106.4 -608.2,116.6 -579.9,149.8 -583.3,193.3 
		-545,177.5 -545,176.9 	"/>
	<polygon id="XMLID_188_" class="st8" points="-400.1,149.8 -371.8,116.6 -414.2,106.4 -437,69.3 -459.7,106.3 -457.8,109.3 
		-456,112.3 -454.3,112.7 -437,84.5 -419.3,113.4 -386.3,121.4 -408.3,147.1 -405.7,180.9 -429.9,170.9 -431.7,172.9 -435,176.9 
		-435,177.5 -396.7,193.3 	"/>
	<g id="XMLID_129_" class="st1">
		<path id="XMLID_146_" class="st3" d="M-509.2,117.3l-8.2-2l-1.5,2.5l-53.6,12.9l32.9,38.6l10.8,4.5l0.3-3.8l-29.5-34.6l44.2-10.6
			L-509.2,117.3z M-443.3,172.7l2.9-3.3l32.9-38.6l-53.6-12.9l-1.5-2.5l-4.4-7.2L-490,70.8l-22.9,37.4l-4.4,7.2l-1.5,2.5l-53.6,12.9
			l32.9,38.6l2.9,3.3l-0.5,6.3l-3.8,48.7l51-21.1l51,21.1l-3.8-48.7L-443.3,172.7z M-490,198l-42,17.4l2.6-33.1l0.6-8.4l0.3-3.8
			l-29.5-34.6l44.2-10.6l4.6-7.5l4.4-7.2l14.8-24.1l14.8,24.1l4.4,7.2l4.6,7.5l44.2,10.6l-29.5,34.6l0.3,3.8l0.6,8.4l2.6,33.1
			L-490,198z"/>
	</g>
</g>
<g id="XMLID_247_" class="st0">
	<rect id="XMLID_184_" x="-234.6" y="79.4" class="st9" width="129.2" height="175.2"/>
	<rect id="XMLID_185_" x="-249.3" y="63.1" class="st9" width="158.6" height="15.5"/>
	<polyline id="XMLID_189_" class="st9" points="-199,59 -199,45 -143,45 -143,59 	"/>
	<line id="XMLID_190_" class="st9" x1="-202" y1="251" x2="-202" y2="108"/>
	<line id="XMLID_191_" class="st9" x1="-138" y1="251" x2="-138" y2="108"/>
	<line id="XMLID_192_" class="st9" x1="-170" y1="251" x2="-170" y2="108"/>
</g>
<g id="XMLID_25_">
	<g id="XMLID_108_">
		<linearGradient id="XMLID_60_" gradientUnits="userSpaceOnUse" x1="237.2725" y1="238.2249" x2="97.7284" y2="96.3716">
			<stop  offset="1.076729e-007" style="stop-color:#C2D634"/>
			<stop  offset="1" style="stop-color:#6DB43D"/>
		</linearGradient>
		<path id="XMLID_62_" class="st10" d="M150,210.6c-1.9,0-3.8-0.1-5.8-0.3c-3-0.3-6-0.8-8.9-1.5l-0.3-0.1c-0.3-0.1-0.6-0.1-0.9-0.2
			c-0.7-0.2-1.4-0.4-2.1-0.6l0,0c0,0-0.1,0-0.1,0c-19.3-6-34.3-21-40.3-40.3c0,0,0,0.1,0,0.1l0-0.1h0l0-0.1
			c-0.2-0.7-0.4-1.4-0.6-2.1c-0.1-0.2-0.1-0.5-0.2-0.8l-0.1-0.3c-0.7-2.9-1.2-5.9-1.5-8.9c-0.2-2-0.3-3.9-0.3-5.8
			c0-1.9,0.1-3.8,0.3-5.8c0.3-3,0.8-6,1.5-8.9l0.1-0.3c0.1-0.3,0.1-0.6,0.2-0.9c0.2-0.7,0.4-1.4,0.6-2.1l0-0.1c0,0,0-0.1,0-0.1
			c6-19.3,21-34.3,40.3-40.3c0,0-0.1,0-0.1,0l0.2,0v0l0.1-0.1c0,0,0,0,0,0l0,0c0.7-0.2,1.4-0.4,2.1-0.6c0.2-0.1,0.5-0.1,0.8-0.2
			l0.3-0.1c2.9-0.7,5.9-1.2,8.9-1.5c4-0.4,7.6-0.4,11.6,0c3,0.3,6,0.8,8.9,1.5l0.3,0.1c0.3,0.1,0.6,0.1,0.9,0.2
			c0.7,0.2,1.4,0.4,2.1,0.6l0,0c0.1,0,0.1,0,0.2,0.1c19.3,6,34.3,21,40.3,40.3c0,0,0-0.1,0-0.1l0,0.1h0l0,0.1
			c0.2,0.7,0.4,1.4,0.6,2.1c0.1,0.2,0.1,0.5,0.2,0.8l0.1,0.3c0.7,2.9,1.2,5.9,1.5,8.9c0.2,2,0.3,3.9,0.3,5.8c0,1.9-0.1,3.8-0.3,5.8
			c-0.3,3-0.8,6-1.5,8.9l-0.1,0.3c-0.1,0.3-0.1,0.6-0.2,0.9c-0.2,0.7-0.4,1.4-0.6,2.1l0,0c0,0.1,0,0.1,0,0.2
			c-6,19.3-21,34.3-40.3,40.3c0,0,0.1,0,0.1,0l-0.1,0v0l-0.1,0c-0.7,0.2-1.4,0.4-2.1,0.6c-0.2,0.1-0.5,0.1-0.8,0.2l-0.3,0.1
			c-2.9,0.7-5.9,1.2-8.9,1.5C153.8,210.5,151.9,210.6,150,210.6z M134.5,200.3c0.6,0.2,1.2,0.4,1.8,0.5c0.3,0.1,0.5,0.1,0.7,0.2
			l0.3,0.1c2.5,0.6,5.1,1.1,7.7,1.3c3.4,0.3,6.6,0.3,10.1,0c2.6-0.3,5.2-0.7,7.7-1.3l0.3-0.1c0.2-0.1,0.4-0.1,0.6-0.2
			c0.7-0.2,1.3-0.4,1.9-0.5c0,0-0.1,0-0.1,0l0.2-0.1c16.8-5.2,29.9-18.3,35.1-35.1l0,0c0,0,0-0.1,0-0.1c0.2-0.6,0.4-1.2,0.5-1.8
			c0.1-0.3,0.1-0.5,0.2-0.7l0.1-0.3c0.6-2.5,1.1-5.1,1.3-7.7c0.2-1.7,0.2-3.4,0.2-5c0-1.7-0.1-3.3-0.2-5c-0.3-2.6-0.7-5.2-1.3-7.7
			l-0.1-0.3c-0.1-0.2-0.1-0.4-0.2-0.6c-0.2-0.7-0.4-1.3-0.5-1.9c0,0,0,0.1,0,0.1l0-0.1h0l0-0.1c-5.2-16.8-18.3-29.9-35.1-35.1l0,0
			c0,0-0.1,0-0.1,0c-0.6-0.2-1.2-0.4-1.8-0.5c-0.3-0.1-0.5-0.1-0.7-0.2l-0.3-0.1c-2.5-0.6-5.1-1.1-7.7-1.3c-3.4-0.3-6.6-0.3-10.1,0
			c-2.6,0.3-5.2,0.7-7.7,1.3L137,98c-0.2,0.1-0.4,0.1-0.6,0.2c-0.7,0.2-1.3,0.4-1.9,0.5c0,0,0.1,0,0.1-0.1l-0.3,0.1c0,0,0,0,0,0l0,0
			c-16.8,5.2-29.9,18.3-35.1,35.1l0,0c0,0,0,0.1,0,0.1c-0.2,0.6-0.4,1.2-0.5,1.8c-0.1,0.3-0.1,0.5-0.2,0.7l-0.1,0.3
			c-0.6,2.5-1.1,5.1-1.3,7.7c-0.2,1.7-0.2,3.4-0.2,5c0,1.7,0.1,3.3,0.2,5c0.3,2.6,0.7,5.2,1.3,7.7l0.1,0.3c0.1,0.2,0.1,0.4,0.2,0.6
			c0.2,0.7,0.4,1.3,0.5,1.9c0,0,0-0.1,0-0.1l0,0.1h0l0,0.1c5.2,16.8,18.3,29.9,35.1,35.1l0,0C134.4,200.3,134.4,200.3,134.5,200.3z"
			/>
	</g>
	<g id="XMLID_107_">
		<linearGradient id="XMLID_71_" gradientUnits="userSpaceOnUse" x1="237.2725" y1="238.2249" x2="97.7284" y2="96.3716">
			<stop  offset="1.076729e-007" style="stop-color:#C2D634"/>
			<stop  offset="1" style="stop-color:#6DB43D"/>
		</linearGradient>
		<path id="XMLID_56_" class="st11" d="M150,210.6c-1.9,0-3.8-0.1-5.8-0.3c-3-0.3-6-0.8-8.9-1.5l-0.3-0.1c-0.3-0.1-0.6-0.1-0.9-0.2
			c-0.7-0.2-1.4-0.4-2.1-0.6l0,0c0,0-0.1,0-0.1,0c-19.3-6-34.3-21-40.3-40.3c0,0,0,0.1,0,0.1l0-0.1h0l0-0.1
			c-0.2-0.7-0.4-1.4-0.6-2.1c-0.1-0.2-0.1-0.5-0.2-0.8l-0.1-0.3c-0.7-2.9-1.2-5.9-1.5-8.9c-0.2-2-0.3-3.9-0.3-5.8
			c0-1.9,0.1-3.8,0.3-5.8c0.3-3,0.8-6,1.5-8.9l0.1-0.3c0.1-0.3,0.1-0.6,0.2-0.9c0.2-0.7,0.4-1.4,0.6-2.1l0-0.1c0,0,0-0.1,0-0.1
			c6-19.3,21-34.3,40.3-40.3c0,0-0.1,0-0.1,0l0.2,0v0l0.1-0.1c0,0,0,0,0,0l0,0c0.7-0.2,1.4-0.4,2.1-0.6c0.2-0.1,0.5-0.1,0.8-0.2
			l0.3-0.1c2.9-0.7,5.9-1.2,8.9-1.5c4-0.4,7.6-0.4,11.6,0c3,0.3,6,0.8,8.9,1.5l0.3,0.1c0.3,0.1,0.6,0.1,0.9,0.2
			c0.7,0.2,1.4,0.4,2.1,0.6l0,0c0.1,0,0.1,0,0.2,0.1c19.3,6,34.3,21,40.3,40.3c0,0,0-0.1,0-0.1l0,0.1h0l0,0.1
			c0.2,0.7,0.4,1.4,0.6,2.1c0.1,0.2,0.1,0.5,0.2,0.8l0.1,0.3c0.7,2.9,1.2,5.9,1.5,8.9c0.2,2,0.3,3.9,0.3,5.8c0,1.9-0.1,3.8-0.3,5.8
			c-0.3,3-0.8,6-1.5,8.9l-0.1,0.3c-0.1,0.3-0.1,0.6-0.2,0.9c-0.2,0.7-0.4,1.4-0.6,2.1l0,0c0,0.1,0,0.1,0,0.2
			c-6,19.3-21,34.3-40.3,40.3c0,0,0.1,0,0.1,0l-0.1,0v0l-0.1,0c-0.7,0.2-1.4,0.4-2.1,0.6c-0.2,0.1-0.5,0.1-0.8,0.2l-0.3,0.1
			c-2.9,0.7-5.9,1.2-8.9,1.5C153.8,210.5,151.9,210.6,150,210.6z M134.5,200.3c0.6,0.2,1.2,0.4,1.8,0.5c0.3,0.1,0.5,0.1,0.7,0.2
			l0.3,0.1c2.5,0.6,5.1,1.1,7.7,1.3c3.4,0.3,6.6,0.3,10.1,0c2.6-0.3,5.2-0.7,7.7-1.3l0.3-0.1c0.2-0.1,0.4-0.1,0.6-0.2
			c0.7-0.2,1.3-0.4,1.9-0.5c0,0-0.1,0-0.1,0l0.2-0.1c16.8-5.2,29.9-18.3,35.1-35.1l0,0c0,0,0-0.1,0-0.1c0.2-0.6,0.4-1.2,0.5-1.8
			c0.1-0.3,0.1-0.5,0.2-0.7l0.1-0.3c0.6-2.5,1.1-5.1,1.3-7.7c0.2-1.7,0.2-3.4,0.2-5c0-1.7-0.1-3.3-0.2-5c-0.3-2.6-0.7-5.2-1.3-7.7
			l-0.1-0.3c-0.1-0.2-0.1-0.4-0.2-0.6c-0.2-0.7-0.4-1.3-0.5-1.9c0,0,0,0.1,0,0.1l0-0.1h0l0-0.1c-5.2-16.8-18.3-29.9-35.1-35.1l0,0
			c0,0-0.1,0-0.1,0c-0.6-0.2-1.2-0.4-1.8-0.5c-0.3-0.1-0.5-0.1-0.7-0.2l-0.3-0.1c-2.5-0.6-5.1-1.1-7.7-1.3c-3.4-0.3-6.6-0.3-10.1,0
			c-2.6,0.3-5.2,0.7-7.7,1.3L137,98c-0.2,0.1-0.4,0.1-0.6,0.2c-0.7,0.2-1.3,0.4-1.9,0.5c0,0,0.1,0,0.1-0.1l-0.3,0.1c0,0,0,0,0,0l0,0
			c-16.8,5.2-29.9,18.3-35.1,35.1l0,0c0,0,0,0.1,0,0.1c-0.2,0.6-0.4,1.2-0.5,1.8c-0.1,0.3-0.1,0.5-0.2,0.7l-0.1,0.3
			c-0.6,2.5-1.1,5.1-1.3,7.7c-0.2,1.7-0.2,3.4-0.2,5c0,1.7,0.1,3.3,0.2,5c0.3,2.6,0.7,5.2,1.3,7.7l0.1,0.3c0.1,0.2,0.1,0.4,0.2,0.6
			c0.2,0.7,0.4,1.3,0.5,1.9c0,0,0-0.1,0-0.1l0,0.1h0l0,0.1c5.2,16.8,18.3,29.9,35.1,35.1l0,0C134.4,200.3,134.4,200.3,134.5,200.3z"
			/>
	</g>
	<g id="XMLID_27_">
		<linearGradient id="XMLID_72_" gradientUnits="userSpaceOnUse" x1="237.2728" y1="238.2247" x2="97.7287" y2="96.3713">
			<stop  offset="1.076729e-007" style="stop-color:#C2D634"/>
			<stop  offset="1" style="stop-color:#6DB43D"/>
		</linearGradient>
		<path id="XMLID_28_" class="st12" d="M150,178.2c-15.8,0-28.7-12.9-28.7-28.7c0-15.8,12.9-28.7,28.7-28.7s28.7,12.9,28.7,28.7
			C178.7,165.3,165.8,178.2,150,178.2z M150,128.8c-11.4,0-20.7,9.3-20.7,20.7c0,11.4,9.3,20.7,20.7,20.7s20.7-9.3,20.7-20.7
			C170.7,138.1,161.4,128.8,150,128.8z"/>
	</g>
	<g id="XMLID_85_">
		<linearGradient id="XMLID_74_" gradientUnits="userSpaceOnUse" x1="237.6391" y1="237.8644" x2="98.095" y2="96.011">
			<stop  offset="1.076729e-007" style="stop-color:#C2D634"/>
			<stop  offset="1" style="stop-color:#6DB43D"/>
		</linearGradient>
		<path id="XMLID_64_" class="st13" d="M165.6,208.6l-1.1-4.3l-1.9,0.1l0-0.2l1.9,0l0,0h0l-0.7-2.8c0,0,0,0,0,0l-0.1-0.5
			c0.4-0.1,0.8-0.2,1.2-0.3l0.6-0.2l1.2,3.8h4c0,3.4-3.4,4.1-4.5,4.4C165.9,208.5,165.7,208.5,165.6,208.6z M166.5,204.1l-1.4-3.7
			L166.5,204.1z M134.4,208.6c-0.1,0-0.3-0.1-0.5-0.1c-1.1-0.2-4.5-1-4.5-4.3l0.2,0l0,0h-0.2h0.2l-0.2-0.2l4,0.2l0.2-0.4l1-3.3
			l0.6,0.2c0.4,0.1,0.8,0.2,1.2,0.3l-0.1,0.5c0,0,0,0,0,0l-0.7,2.8h0l0,0l1.9,0l0,0v0c0,0,0,0,0,0l0,0.2l-1.9-0.1L134.4,208.6z
			 M170.4,204.1h-3.8l4-0.2L170.4,204.1z M204.6,170l0-0.5l0,0L204.6,170l0-0.5l-0.7,0.4l0.7-3.9l0,0l-3.9-0.8
			c0.2-0.9,0.4-1.4,0.5-1.8c0-0.1,0.1-0.1,0.1-0.2c0,0,0-0.1,0-0.1l3.3,0.8l0-1.9v0l0.7,0.1L205,164l4.1,1.1c0,0.1-0.1,0.2-0.1,0.3
			c-0.1,0.4-0.2,0.8-0.4,1.2l-0.3,0.8l-1.8,1L204.6,170z M95.4,170l-1.9-1.5l-1.9-1.1l-0.3-0.8c-0.1-0.4-0.3-0.8-0.4-1.2
			c0-0.1-0.1-0.2-0.1-0.3L95,164l-0.3-1.9l0.7-0.1v0l0,0v1.9l3.3-0.8c0,0,0,0.1,0,0.1c0,0.1,0.1,0.2,0.1,0.2
			c0.1,0.4,0.3,0.9,0.5,1.8l-3.9,0.8l0.7,3.9l-0.7-0.4V170z M204.6,136l0-1.4l0,0v0l-2.4,0.6c0,0,0,0,0,0l-0.9,0.2l-0.2-0.7
			c-0.1-0.4-0.2-0.9-0.3-1.3c-0.1-0.4-0.2-0.8-0.2-0.9c0,0.3,0.1,0.6,0.2,0.9c0-0.2-0.1-0.4-0.1-0.6l3.9-0.8v-4
			c1.7,0,3.4,1.1,3.9,3.2l0.1,0c0.2,0.8,0.3,1.4,0.5,2l0.1,0.3l-4.4,1.2V136z M95.4,136l0-1.4l-4.5-1.2l0.1-0.3
			c0.1-0.6,0.3-1.2,0.5-2l0.1,0c0.5-2.1,2.2-3.1,3.9-3.2l0,0c0,0,0,0,0,0v4l3.9,0.8c0,0.2-0.1,0.4-0.1,0.6c0.1-0.3,0.2-0.6,0.2-0.9
			c0,0.2-0.1,0.5-0.2,1l0,0c-0.1,0.4-0.2,0.9-0.3,1.3l-0.2,0.7l-0.9-0.2c0,0,0,0,0,0l-2.4-0.6v0l0,0L95.4,136z M166.4,98.9
			c-0.2,0-0.5-0.1-0.8-0.2l-0.1,0c-0.6-0.2-1.1-0.3-1.7-0.5l0.2-0.7c0,0,0,0,0,0l0.7-2.6h2.1h-2.1l0,0l0,0l1.2-4.5
			c0.2,0,0.4,0.1,0.6,0.1c1.3,0.2,4.6,0.9,4.6,4.3h0l0,0h-4.2h0.2L166.4,98.9z M133.7,98.9l-0.6-3.9l-4.1,0c0-3.4,3.3-4.1,4.6-4.3
			c0.2,0,0.4-0.1,0.6-0.1l1.2,4.5l0,0l0,0h0l0.7,2.6c0,0,0,0,0,0l0.2,0.7c-0.6,0.2-1.1,0.3-1.7,0.5l-0.1,0l0,0L133.7,98.9z"/>
	</g>
	<g id="XMLID_59_">
		<linearGradient id="XMLID_75_" gradientUnits="userSpaceOnUse" x1="237.5266" y1="237.975" x2="97.9825" y2="96.1217">
			<stop  offset="1.076729e-007" style="stop-color:#C2D634"/>
			<stop  offset="1" style="stop-color:#6DB43D"/>
		</linearGradient>
		<path id="XMLID_30_" class="st14" d="M167,252h-34l-4-4v-17.9C99.3,222.7,76.9,200,69.4,170H49l-4-4v-34l4-4h20.4
			c7.6-29.5,30-51.7,59.6-59.1V47l4-4h34l4,4v21.9c29.6,7.4,52,29.6,59.6,59.1H251l4,4v34l-4,4h-20.4c-7.5,30.1-30,52.7-59.6,60.1
			V248L167,252z M137,244h26v-17.1l3.2-3.9c29.1-6.1,51.1-28.3,57.4-57.8l3.9-3.2H247v-26h-19.5l-3.9-3.1
			c-6.3-29-28.3-50.8-57.4-56.9l-3.2-3.9V51h-26v21.1l-3.2,3.9c-29.1,6.1-51,27.9-57.3,56.8l-3.9,3.2H53v26h19.6l3.9,3.2
			c6.2,29.6,28.2,51.7,57.3,57.8l3.2,3.9V244z M150,210.6c-1.9,0-3.8-0.1-5.8-0.3c-3-0.3-6-0.8-8.9-1.5l-0.4-0.1
			c-0.3-0.1-0.5-0.1-0.8-0.2c-0.2,0-0.4-0.1-0.6-0.1c-0.5-0.1-1.5-0.3-2.3-0.7c-18.9-6-33.7-21.1-39.7-40.6l0.2-0.1l-0.4-0.3
			c-0.1-0.3-0.1-0.4-0.2-0.6c-0.1-0.3-0.2-0.6-0.3-1.1l-0.1-0.2c-0.1-0.3-0.1-0.5-0.2-0.8c-0.7-3-1.2-5.8-1.5-8.8
			c-0.2-2-0.3-3.9-0.3-5.8c0-1.9,0.1-3.8,0.3-5.8c0.3-3,0.8-6,1.5-8.9c0-0.1,0-0.2,0.1-0.3c0.1-0.4,0.1-0.8,0.2-1.1l0.1-0.3
			c0.1-0.6,0.3-1.2,0.5-1.9l0.4-0.4l-0.3-0.1c6-18.5,21.2-33.6,39.7-39.5c0.9-0.4,1.8-0.6,2.3-0.7c0.2,0,0.4-0.1,0.6-0.1
			c0.2,0,0.5-0.1,0.7-0.2l0.3-0.1c2.9-0.7,5.9-1.2,8.9-1.5c4-0.4,7.6-0.4,11.6,0c3,0.3,6,0.8,8.9,1.5l0.4,0.1
			c0.3,0.1,0.6,0.1,0.9,0.2c0.1,0,0.3,0.1,0.5,0.1c0.5,0.1,1.5,0.3,2.3,0.7c18.5,5.9,33.6,21,39.7,39.5l-0.3,0.1l0.4,0.4
			c0.2,0.8,0.3,1.4,0.5,2l0.1,0.2c0.1,0.3,0.1,0.6,0.2,0.9c0,0.1,0,0.2,0.1,0.4c0.7,2.9,1.2,5.9,1.5,9c0.2,2,0.3,3.9,0.3,5.8
			s-0.1,3.9-0.3,5.8l0,0c-0.3,3-0.8,6-1.5,8.9c-0.1,0.3-0.2,0.6-0.2,0.8c0,0.1,0,0.1-0.1,0.2c-0.1,0.3-0.2,0.7-0.3,1
			c-0.1,0.2-0.1,0.3-0.2,0.6l-0.4,0.3l0.2,0.1c-6,19.4-20.8,34.6-39.7,40.6c-0.9,0.4-1.8,0.6-2.3,0.7c-0.2,0-0.4,0.1-0.6,0.1
			c-0.3,0.1-0.5,0.1-0.8,0.2l-0.3,0.1c-2.9,0.7-5.9,1.2-8.9,1.5C153.8,210.5,151.9,210.6,150,210.6z M165.6,200.5
			c-1.1,0.3-2.6,1.6-2.6,3.7l2.8-3.9c16.6-5.1,29.7-18.4,34.9-35.4l0,0c0.2-0.7,0.3-1.1,0.4-1.4c0-0.1,0.1-0.2,0.1-0.3
			c0.1-0.3,0.2-0.5,0.2-0.7c0,0,0-0.1,0-0.1c0.6-2.5,1.1-5.1,1.3-7.7c0.2-1.7,0.2-3.4,0.2-5.1c0-1.7-0.1-3.4-0.2-5.1
			c-0.3-2.7-0.7-5.3-1.3-7.8c-0.1-0.2-0.1-0.4-0.2-0.7c0-0.1-0.1-0.3-0.1-0.4l-0.1-0.3c-0.1-0.6-0.3-1.2-0.5-1.9l0,0
			c-5.3-16.3-18.7-29.5-35-34.5l-2.8-3.8c0,2,1.5,3.3,2.6,3.6c-0.2,0-0.4-0.1-0.7-0.1c-0.4-0.1-0.8-0.1-1-0.2
			c-0.2-0.1-0.4-0.1-0.6-0.1c-0.2,0-0.4-0.1-0.5-0.1c-2.5-0.6-5.1-1.1-7.7-1.3c-3.4-0.3-6.6-0.3-10.1,0c-2.6,0.3-5.2,0.7-7.7,1.3
			l-0.4,0.1c-0.2,0-0.4,0.1-0.5,0.1c-0.4,0.1-0.7,0.2-1.1,0.2c-0.2,0-0.5,0.1-0.7,0.1c1.1-0.3,2.6-1.6,2.6-3.7l-2.8,3.9
			c-16.3,5-29.7,18.2-35,34.5l0,0c-0.2,0.7-0.3,1.3-0.4,1.9l-0.1,0.4c0,0.1,0,0.2-0.1,0.3c-0.1,0.3-0.1,0.7-0.2,0.9
			c-0.6,2.5-1.1,5.1-1.3,7.7c-0.2,1.7-0.2,3.4-0.2,5c0,1.6,0.1,3.3,0.2,5c0.3,2.6,0.7,5.1,1.3,7.7c0,0.2,0.1,0.3,0.1,0.5l0.1,0.4
			c0.1,0.2,0.1,0.3,0.1,0.4c0.1,0.3,0.3,0.7,0.4,1.4l0,0c5.3,17.1,18.3,30.3,34.9,35.4l2.8,3.8c0-2-1.5-3.3-2.6-3.6
			c0.2,0,0.4,0.1,0.7,0.1c0.4,0.1,0.8,0.2,1,0.2l0.1,0c0.1,0,0.3,0.1,0.5,0.1c0.2,0,0.4,0.1,0.5,0.1c2.5,0.6,5.1,1.1,7.7,1.3
			c3.4,0.3,6.6,0.3,10.1,0c2.6-0.3,5.2-0.7,7.7-1.3l0.4-0.1c0.2,0,0.4-0.1,0.5-0.1l0.1,0c0.3-0.1,0.7-0.1,1-0.2
			C165.1,200.6,165.4,200.5,165.6,200.5z"/>
	</g>
</g>
</svg>
