<?xml version="1.0" encoding="utf-8"?>
<!-- Generator: Adobe Illustrator 19.0.0, SVG Export Plug-In . SVG Version: 6.00 Build 0)  -->
<svg version="1.1" id="Layer_1" xmlns="http://www.w3.org/2000/svg" xmlns:xlink="http://www.w3.org/1999/xlink" x="0px" y="0px"
	 viewBox="0 0 322.3 300" style="enable-background:new 0 0 322.3 300;" xml:space="preserve">
<style type="text/css">
	.st0{display:none;}
	.st1{display:inline;}
	.st2{fill:url(#XMLID_278_);}
	.st3{fill:#FFFFFF;}
	.st4{display:inline;fill:url(#XMLID_279_);}
	.st5{display:inline;fill:#FFFFFF;}
	.st6{fill:url(#XMLID_280_);}
	.st7{fill:url(#XMLID_284_);}
	.st8{fill:url(#XMLID_286_);}
	.st9{fill:url(#XMLID_287_);}
	.st10{display:inline;fill:none;stroke:#6DB43D;stroke-width:10;stroke-linecap:round;stroke-linejoin:bevel;stroke-miterlimit:10;}
	.st11{fill:none;stroke:#6DB43D;stroke-width:12;stroke-linejoin:round;stroke-miterlimit:10;}
	.st12{display:inline;fill:url(#XMLID_288_);}
	.st13{display:inline;fill:#6DB43D;}
	.st14{fill:#6DB43D;}
	.st15{display:inline;fill:none;stroke:#6DB43D;stroke-width:8;stroke-linejoin:bevel;stroke-miterlimit:10;}
	.st16{fill:url(#XMLID_289_);}
	.st17{fill:url(#XMLID_290_);}
</style>
<g id="XMLID_1_" class="st0">
	<g id="XMLID_3_" class="st1">
		<linearGradient id="XMLID_278_" gradientUnits="userSpaceOnUse" x1="-846.2944" y1="67.1065" x2="-678.0489" y2="235.352">
			<stop  offset="1.076729e-007" style="stop-color:#6DB43D"/>
			<stop  offset="1" style="stop-color:#C2D634"/>
		</linearGradient>
		<path id="XMLID_238_" class="st2" d="M-797,243.4c-1.7,0-3.4-0.7-4.6-1.9l-82.8-82.8c-11.3-11.3-17.5-26.3-17.5-42.3
			c0-16,6.2-31.1,17.5-42.3c11.3-11.3,26.3-17.5,42.3-17.5s31.1,6.2,42.3,17.5l2.7,2.7l2.7-2.7C-783,62.8-768,56.6-752,56.6
			c16,0,31.1,6.2,42.3,17.5c11.3,11.3,17.5,26.3,17.5,42.3c0,16-6.2,31.1-17.5,42.3l-82.8,82.8C-793.6,242.7-795.3,243.4-797,243.4z
			 M-842.1,69.6c-12.6,0-24.3,4.8-33.1,13.7c-8.8,8.8-13.7,20.6-13.7,33.1c0,12.6,4.8,24.3,13.7,33.1l78.2,78.2l78.2-78.2
			c8.8-8.8,13.7-20.6,13.7-33.1c0-12.6-4.8-24.3-13.7-33.1c-8.8-8.8-20.6-13.7-33.1-13.7s-24.3,4.8-33.1,13.7l-7.3,7.3
			c-1.2,1.2-2.9,1.9-4.6,1.9c-1.7,0-3.4-0.7-4.6-1.9l-7.3-7.3C-817.7,74.5-829.5,69.6-842.1,69.6z"/>
		<path id="XMLID_234_" class="st3" d="M-752,58.1c15.6,0,30.3,6,41.3,17c11,11,17,25.6,17,41.3c0,15.6-6,30.3-17,41.3l-70.7,70.7
			l-7.4-6.7l71.1-71.1c9.1-9.1,14.1-21.2,14.1-34.2c0-13-5-25.1-14.1-34.2c-9.1-9.1-21.2-14.1-34.2-14.1s-25.1,5-34.2,14.1l-7.3,7.3
			c-1,1-2.3,1.5-3.5,1.5c-1.3,0-2.6-0.5-3.5-1.5l-7.3-7.3c-9.1-9.1-21.2-14.1-34.2-14.1c-13,0-25.1,5-34.2,14.1
			c-9.1,9.1-14.1,21.2-14.1,34.2c0,13,5,25.1,14.1,34.2l79.2,79.2l8.2-8.2l7.4,6.7l-12.1,12.1c-1,1-2.3,1.5-3.5,1.5
			c-1.3,0-2.6-0.5-3.5-1.5l-82.8-82.8c-11-11-17-25.6-17-41.3c0-15.6,6-30.3,17-41.3c11-11,25.6-17,41.3-17c15.6,0,30.3,6,41.3,17
			l3.8,3.8l3.8-3.8C-782.2,64.2-767.6,58.1-752,58.1 M-752,55.1c-16.4,0-31.8,6.4-43.4,17.9l-1.7,1.7l-1.7-1.7
			c-11.5-11.5-26.9-17.9-43.4-17.9c-16.4,0-31.8,6.4-43.4,17.9c-11.5,11.5-17.9,26.9-17.9,43.4c0,16.4,6.4,31.8,17.9,43.4l82.8,82.8
			c1.5,1.5,3.5,2.3,5.7,2.3c2.1,0,4.1-0.8,5.7-2.3l12.1-12.1l70.7-70.7c11.5-11.5,17.9-26.9,17.9-43.4c0-16.4-6.4-31.8-17.9-43.4
			C-720.1,61.5-735.5,55.1-752,55.1L-752,55.1z M-797,94c2.1,0,4.1-0.8,5.7-2.3l7.3-7.3c8.5-8.5,19.9-13.2,32.1-13.2
			c12.2,0,23.5,4.7,32.1,13.2c8.5,8.5,13.2,19.9,13.2,32.1c0,12.2-4.7,23.5-13.2,32.1l-71.1,71.1l-6.1,6.1l-77.1-77.1
			c-8.5-8.5-13.2-19.9-13.2-32.1c0-12.2,4.7-23.5,13.2-32.1c8.5-8.5,19.9-13.2,32.1-13.2c12.2,0,23.5,4.7,32.1,13.2l7.3,7.3
			C-801.2,93.2-799.1,94-797,94L-797,94z"/>
	</g>
	<g id="XMLID_61_">
		<linearGradient id="XMLID_279_" gradientUnits="userSpaceOnUse" x1="-867.1068" y1="79.9033" x2="-694.7298" y2="252.2802">
			<stop  offset="1.076729e-007" style="stop-color:#6DB43D"/>
			<stop  offset="1" style="stop-color:#C2D634"/>
		</linearGradient>
		<path id="XMLID_296_" class="st4" d="M-746.5,238c-20.7,0-37.6-16.9-37.6-37.6c0-20.7,16.9-37.6,37.6-37.6
			c20.7,0,37.6,16.9,37.6,37.6C-709,221.2-725.8,238-746.5,238z M-762.1,199c-1.9,0-3.5,1.6-3.5,3.5s1.6,3.5,3.5,3.5h11.1v11.3
			c0,1.9,1.6,3.5,3.5,3.5s3.5-1.6,3.5-3.5V206h13c1.9,0,3.5-1.6,3.5-3.5s-1.6-3.5-3.5-3.5h-13v-12.8c0-1.9-1.6-3.5-3.5-3.5
			s-3.5,1.6-3.5,3.5V199H-762.1z"/>
		<path id="XMLID_291_" class="st5" d="M-746.5,164.4c19.9,0,36.1,16.2,36.1,36.1c0,19.9-16.2,36.1-36.1,36.1s-36.1-16.2-36.1-36.1
			C-782.6,180.6-766.4,164.4-746.5,164.4 M-762.1,207.5h9.6v9.8c0,2.7,2.3,5,5,5s5-2.2,5-5v-9.8h11.5c2.7,0,5-2.3,5-5s-2.2-5-5-5
			h-11.5v-11.3c0-2.7-2.3-5-5-5s-5,2.2-5,5v11.3h-9.6c-2.7,0-5,2.3-5,5S-764.8,207.5-762.1,207.5 M-746.5,161.4
			c-21.5,0-39.1,17.5-39.1,39.1s17.5,39.1,39.1,39.1s39.1-17.5,39.1-39.1S-725,161.4-746.5,161.4L-746.5,161.4z M-762.1,204.5
			c-1.1,0-2-0.9-2-2s0.9-2,2-2h9.6h3v-3v-11.3c0-1.1,0.9-2,2-2s2,0.9,2,2v11.3v3h3h11.5c1.1,0,2,0.9,2,2s-0.9,2-2,2h-11.5h-3v3v9.8
			c0,1.1-0.9,2-2,2s-2-0.9-2-2v-9.8v-3h-3H-762.1L-762.1,204.5z"/>
	</g>
</g>
<g id="XMLID_66_" class="st0">
	<g id="XMLID_44_" class="st1">
		<linearGradient id="XMLID_280_" gradientUnits="userSpaceOnUse" x1="-563.8684" y1="64.0967" x2="-373.8036" y2="254.1615">
			<stop  offset="1.076729e-007" style="stop-color:#6DB43D"/>
			<stop  offset="1" style="stop-color:#C2D634"/>
		</linearGradient>
		<polygon id="XMLID_45_" class="st6" points="-428.9,186.9 -441.1,199.1 -394.3,245.8 -382.2,233.7 		"/>
		<linearGradient id="XMLID_284_" gradientUnits="userSpaceOnUse" x1="-525.2006" y1="102.7646" x2="-395.4212" y2="232.544">
			<stop  offset="1.076729e-007" style="stop-color:#6DB43D"/>
			<stop  offset="1" style="stop-color:#C2D634"/>
		</linearGradient>
		<polygon id="XMLID_46_" class="st7" points="-434.4,185.2 -441.2,178.5 -449.5,186.8 -442.7,193.5 		"/>
		<linearGradient id="XMLID_286_" gradientUnits="userSpaceOnUse" x1="-563.8685" y1="64.0968" x2="-373.8037" y2="254.1616">
			<stop  offset="1.076729e-007" style="stop-color:#6DB43D"/>
			<stop  offset="1" style="stop-color:#C2D634"/>
		</linearGradient>
		<polygon id="XMLID_47_" class="st8" points="-442.9,172.9 -453.8,162 -465.9,174.2 -455,185.1 		"/>
		<linearGradient id="XMLID_287_" gradientUnits="userSpaceOnUse" x1="-562.9132" y1="63.1415" x2="-372.8484" y2="253.2063">
			<stop  offset="1.076729e-007" style="stop-color:#6DB43D"/>
			<stop  offset="1" style="stop-color:#C2D634"/>
		</linearGradient>
		<path id="XMLID_5_" class="st9" d="M-506.4,190.1c-38.8,0-70.4-31.6-70.4-70.4c0-38.8,31.6-70.4,70.4-70.4s70.4,31.6,70.4,70.4
			C-436,158.5-467.6,190.1-506.4,190.1z M-506.4,58.7c-33.6,0-60.9,27.3-60.9,60.9s27.3,60.9,60.9,60.9s60.9-27.3,60.9-60.9
			S-472.9,58.7-506.4,58.7z"/>
	</g>
</g>
<g id="XMLID_125_" class="st0">
	<rect id="XMLID_81_" x="-263" y="50" class="st10" width="50" height="50"/>
	<rect id="XMLID_120_" x="-263" y="125" class="st10" width="50" height="50"/>
	<rect id="XMLID_121_" x="-263" y="200" class="st10" width="50" height="50"/>
	<g id="XMLID_123_" class="st1">
		<polyline id="XMLID_134_" class="st11" points="-188,70 -170.9,81 -153.8,70 -136.6,81 -119.5,70 -102.4,81 -85.3,70 -68.1,81 
			-51,70 		"/>
	</g>
	<g id="XMLID_122_" class="st1">
		<polyline id="XMLID_112_" class="st11" points="-188,144 -170.9,155 -153.8,144 -136.6,155 -119.5,144 -102.4,155 -85.3,144 
			-68.1,155 -51,144 		"/>
	</g>
	<g id="XMLID_124_" class="st1">
		<polyline id="XMLID_110_" class="st11" points="-188,219 -170.9,230 -153.8,219 -136.6,230 -119.5,219 -102.4,230 -85.3,219 
			-68.1,230 -51,219 		"/>
	</g>
</g>
<g id="XMLID_98_" class="st0">
	<linearGradient id="XMLID_288_" gradientUnits="userSpaceOnUse" x1="435.567" y1="75.1916" x2="555.449" y2="195.0736">
		<stop  offset="1.076729e-007" style="stop-color:#6DB43D"/>
		<stop  offset="1" style="stop-color:#C2D634"/>
	</linearGradient>
	<polygon id="XMLID_142_" class="st12" points="534.5,107 503.6,155.2 502.9,157.6 501.2,191.6 454,233.7 454,156.6 453.5,154.1 
		401.9,61 563.8,61 534.5,107 545.8,107 576.5,59.1 572.5,52 393.8,52 389.4,59 444,157.8 444,243.7 452.1,247.4 508.8,197.7 
		510.6,194.1 512.3,159.2 545.8,107 	"/>
</g>
<g id="XMLID_180_" class="st0">
	<polygon id="XMLID_186_" class="st13" points="744.7,172.9 742.9,170.9 718.7,180.9 721.3,147.1 699.3,121.4 732.3,113.4 750,84.5 
		767.3,112.7 769,112.3 770.8,109.3 772.7,106.3 750,69.3 727.2,106.4 684.8,116.6 713.1,149.8 709.7,193.3 748,177.5 748,176.9 	
		"/>
	<polygon id="XMLID_188_" class="st13" points="892.9,149.8 921.2,116.6 878.8,106.4 856,69.3 833.3,106.3 835.2,109.3 837,112.3 
		838.7,112.7 856,84.5 873.7,113.4 906.6,121.4 884.7,147.1 887.3,180.9 863.1,170.9 861.3,172.9 857.9,176.9 858,177.5 
		896.3,193.3 	"/>
	<g id="XMLID_129_" class="st1">
		<path id="XMLID_146_" class="st14" d="M783.8,117.3l-8.2-2l-1.5,2.5l-53.6,12.9l32.9,38.6l10.8,4.5l0.3-3.8L735,135.5l44.2-10.6
			L783.8,117.3z M849.7,172.7l2.9-3.3l32.9-38.6l-53.6-12.9l-1.5-2.5l-4.4-7.2L803,70.8l-22.9,37.4l-4.4,7.2l-1.5,2.5l-53.6,12.9
			l32.9,38.6l2.9,3.3l-0.5,6.3l-3.8,48.7l51-21.1l51,21.1l-3.8-48.7L849.7,172.7z M803,198l-42,17.4l2.6-33.1l0.6-8.4l0.3-3.8
			L735,135.5l44.2-10.6l4.6-7.5l4.4-7.2L803,86.1l14.8,24.1l4.4,7.2l4.6,7.5l44.2,10.6l-29.5,34.6l0.3,3.8l0.6,8.4l2.6,33.1L803,198
			z"/>
	</g>
</g>
<g id="XMLID_247_" class="st0">
	<rect id="XMLID_184_" x="1058.4" y="79.4" class="st15" width="129.2" height="175.2"/>
	<rect id="XMLID_185_" x="1043.7" y="63.1" class="st15" width="158.6" height="15.5"/>
	<polyline id="XMLID_189_" class="st15" points="1094,59 1094,45 1150,45 1150,59 	"/>
	<line id="XMLID_190_" class="st15" x1="1091" y1="251" x2="1091" y2="108"/>
	<line id="XMLID_191_" class="st15" x1="1155" y1="251" x2="1155" y2="108"/>
	<line id="XMLID_192_" class="st15" x1="1123" y1="251" x2="1123" y2="108"/>
</g>
<g id="XMLID_34_">
	<linearGradient id="XMLID_289_" gradientUnits="userSpaceOnUse" x1="17.27" y1="58.72" x2="306.659" y2="348.109">
		<stop  offset="1.076729e-007" style="stop-color:#6DB43D"/>
		<stop  offset="1" style="stop-color:#C2D634"/>
	</linearGradient>
	<path id="XMLID_72_" class="st16" d="M322.3,184.6l-2.8-6.6H273v-53l-4.2-4H224V60.7l-4-3.7H104l-4,3.7V121H53.3l-4.3,4v53H2.8
		L0,184.6l28.9,28.8L0,242.2l2.8,6.8h63.5l3.7-4v-28h71.8l4.2-3.5V181h30v32.5l4.3,3.5H252v28l4,4h63.5l2.8-6.8l-28.9-28.8
		L322.3,184.6z M62,241H12.5L37,216.1v-5.7L12.5,186H49v27.5l4.3,3.5H62V241z M138,209H70h-8h-5v-23v-8v-49h43v47.7l4,4.3h34V209z
		 M146,173h-8h-30v-44v-8V65h108v56v8v44h-32h-8H146z M184,209v-28h36l4-4.3V129h41v49v8v23h-5h-8H184z M309.8,241H260v-24h8.8
		l4.2-3.5V186h36.8L285,210.4v5.7L309.8,241z"/>
	<g id="XMLID_80_">
		<linearGradient id="XMLID_290_" gradientUnits="userSpaceOnUse" x1="55.8355" y1="20.1545" x2="345.2245" y2="309.5435">
			<stop  offset="1.076729e-007" style="stop-color:#6DB43D"/>
			<stop  offset="1" style="stop-color:#C2D634"/>
		</linearGradient>
		<path id="XMLID_85_" class="st17" d="M161.2,90.8l9.2,18.6l20.5,3L176,126.9l3.5,20.5l-18.4-9.7l-18.4,9.7l3.5-20.5l-14.9-14.5
			l20.5-3L161.2,90.8 M161.2,72.8L154,87.3l-7.3,14.8l-16.4,2.4l-16,2.3l11.6,11.3l11.9,11.6l-2.8,16.3l-2.7,16l14.3-7.5l14.7-7.7
			l14.7,7.7l14.3,7.5l-2.7-16l-2.8-16.3l11.9-11.6l11.6-11.3l-16-2.3l-16.4-2.4l-7.3-14.8L161.2,72.8z"/>
	</g>
</g>
</svg>
