<?xml version="1.0" encoding="utf-8"?>
<!-- Generator: Adobe Illustrator 19.0.0, SVG Export Plug-In . SVG Version: 6.00 Build 0)  -->
<svg version="1.1" id="Layer_1" xmlns="http://www.w3.org/2000/svg" xmlns:xlink="http://www.w3.org/1999/xlink" x="0px" y="0px"
	 viewBox="0 0 300 300" style="enable-background:new 0 0 300 300;" xml:space="preserve">
<style type="text/css">
	.st0{display:none;}
	.st1{display:inline;}
	.st2{fill:url(#XMLID_151_);}
	.st3{fill:#FFFFFF;}
	.st4{fill:url(#XMLID_152_);}
	.st5{fill:url(#XMLID_153_);}
	.st6{fill:url(#XMLID_155_);}
	.st7{fill:url(#XMLID_156_);}
	.st8{fill:url(#XMLID_157_);}
	.st9{display:inline;fill:none;stroke:#6DB43D;stroke-width:10;stroke-linecap:round;stroke-linejoin:bevel;stroke-miterlimit:10;}
	.st10{fill:none;stroke:#6DB43D;stroke-width:12;stroke-linejoin:round;stroke-miterlimit:10;}
	.st11{fill:url(#XMLID_161_);}
	.st12{display:inline;fill:#6DB43D;}
	.st13{fill:#6DB43D;}
	.st14{display:inline;fill:none;stroke:#6DB43D;stroke-width:8;stroke-linejoin:bevel;stroke-miterlimit:10;}
	.st15{display:inline;fill:url(#XMLID_162_);}
	.st16{fill:url(#XMLID_163_);}
</style>
<g id="XMLID_1_" class="st0">
	<g id="XMLID_3_" class="st1">
		<linearGradient id="XMLID_151_" gradientUnits="userSpaceOnUse" x1="-1179.2844" y1="67.1065" x2="-1011.0389" y2="235.352">
			<stop  offset="1.076729e-007" style="stop-color:#6DB43D"/>
			<stop  offset="1" style="stop-color:#C2D634"/>
		</linearGradient>
		<path id="XMLID_280_" class="st2" d="M-1130,243.4c-1.7,0-3.4-0.7-4.6-1.9l-82.8-82.8c-11.3-11.3-17.5-26.3-17.5-42.3
			c0-16,6.2-31.1,17.5-42.3c11.3-11.3,26.3-17.5,42.3-17.5s31.1,6.2,42.3,17.5l2.7,2.7l2.7-2.7c11.3-11.3,26.3-17.5,42.3-17.5
			c16,0,31.1,6.2,42.3,17.5c11.3,11.3,17.5,26.3,17.5,42.3c0,16-6.2,31.1-17.5,42.3l-9,9l-9.2-9.2l9-9c8.8-8.8,13.7-20.6,13.7-33.1
			c0-12.6-4.8-24.3-13.7-33.1c-8.8-8.8-20.6-13.7-33.1-13.7s-24.3,4.8-33.1,13.7l-7.3,7.3c-1.2,1.2-2.9,1.9-4.6,1.9
			c-1.7,0-3.4-0.7-4.6-1.9l-7.3-7.3c-8.8-8.8-20.6-13.7-33.1-13.7s-24.3,4.8-33.1,13.7c-8.8,8.8-13.7,20.6-13.7,33.1
			c0,12.6,4.8,24.3,13.7,33.1l78.2,78.2l8.6-8.6l9.2,9.2l-13.1,13.1C-1126.6,242.7-1128.3,243.4-1130,243.4z"/>
		<path id="XMLID_277_" class="st3" d="M-1084.9,58.1c15.6,0,30.3,6,41.3,17c11,11,17,25.6,17,41.3c0,15.6-6,30.3-17,41.3l-8,8
			l-7.1-7.1l8-8c9.1-9.1,14.1-21.2,14.1-34.2c0-13-5-25.1-14.1-34.2c-9.1-9.1-21.2-14.1-34.2-14.1s-25.1,5-34.2,14.1l-7.3,7.3
			c-1,1-2.3,1.5-3.5,1.5c-1.3,0-2.6-0.5-3.5-1.5l-7.3-7.3c-9.1-9.1-21.2-14.1-34.2-14.1c-13,0-25.1,5-34.2,14.1
			c-9.1,9.1-14.1,21.2-14.1,34.2c0,13,5,25.1,14.1,34.2l79.2,79.2l8.6-8.6l7.1,7.1l-12.1,12.1c-1,1-2.3,1.5-3.5,1.5
			c-1.3,0-2.6-0.5-3.5-1.5l-82.8-82.8c-11-11-17-25.6-17-41.3c0-15.6,6-30.3,17-41.3c11-11,25.6-17,41.3-17c15.6,0,30.3,6,41.3,17
			l3.8,3.8l3.8-3.8C-1115.2,64.2-1100.6,58.1-1084.9,58.1 M-1084.9,55.1c-16.4,0-31.8,6.4-43.4,17.9l-1.7,1.7l-1.7-1.7
			c-11.5-11.5-26.9-17.9-43.4-17.9s-31.8,6.4-43.4,17.9c-11.5,11.5-17.9,26.9-17.9,43.4c0,16.4,6.4,31.8,17.9,43.4l82.8,82.8
			c1.5,1.5,3.5,2.3,5.7,2.3c2.1,0,4.1-0.8,5.7-2.3l12.1-12.1l2.1-2.1l-2.1-2.1l-7.1-7.1l-2.1-2.1l-2.1,2.1l-6.4,6.4l-77.1-77.1
			c-8.5-8.5-13.2-19.9-13.2-32.1c0-12.2,4.7-23.5,13.2-32.1c8.5-8.5,19.9-13.2,32.1-13.2c12.2,0,23.5,4.7,32.1,13.2l7.3,7.3
			c1.5,1.5,3.5,2.3,5.7,2.3c2.1,0,4.1-0.8,5.7-2.3l7.3-7.3c8.5-8.5,19.9-13.2,32.1-13.2s23.5,4.7,32.1,13.2
			c8.5,8.5,13.2,19.9,13.2,32.1c0,12.2-4.7,23.5-13.2,32.1l-8,8l-2.1,2.1l2.1,2.1l7.1,7.1l2.1,2.1l2.1-2.1l8-8
			c11.5-11.5,17.9-26.9,17.9-43.4c0-16.4-6.4-31.8-17.9-43.4C-1053.1,61.5-1068.5,55.1-1084.9,55.1L-1084.9,55.1z"/>
	</g>
	<g id="XMLID_61_" class="st1">
		<linearGradient id="XMLID_152_" gradientUnits="userSpaceOnUse" x1="-1200.0967" y1="79.9033" x2="-1027.7197" y2="252.2802">
			<stop  offset="1.076729e-007" style="stop-color:#6DB43D"/>
			<stop  offset="1" style="stop-color:#C2D634"/>
		</linearGradient>
		<path id="XMLID_296_" class="st4" d="M-1079.5,238c-20.7,0-37.6-16.9-37.6-37.6c0-20.7,16.9-37.6,37.6-37.6
			c20.7,0,37.6,16.9,37.6,37.6C-1042,221.2-1058.8,238-1079.5,238z M-1095.1,199c-1.9,0-3.5,1.6-3.5,3.5s1.6,3.5,3.5,3.5h11.1v11.3
			c0,1.9,1.6,3.5,3.5,3.5s3.5-1.6,3.5-3.5V206h13c1.9,0,3.5-1.6,3.5-3.5s-1.6-3.5-3.5-3.5h-13v-12.8c0-1.9-1.6-3.5-3.5-3.5
			s-3.5,1.6-3.5,3.5V199H-1095.1z"/>
		<path id="XMLID_291_" class="st3" d="M-1079.5,164.4c19.9,0,36.1,16.2,36.1,36.1c0,19.9-16.2,36.1-36.1,36.1
			c-19.9,0-36.1-16.2-36.1-36.1C-1115.6,180.6-1099.4,164.4-1079.5,164.4 M-1095.1,207.5h9.6v9.8c0,2.7,2.3,5,5,5s5-2.2,5-5v-9.8
			h11.5c2.7,0,5-2.3,5-5s-2.2-5-5-5h-11.5v-11.3c0-2.7-2.3-5-5-5s-5,2.2-5,5v11.3h-9.6c-2.7,0-5,2.3-5,5S-1097.8,207.5-1095.1,207.5
			 M-1079.5,161.4c-21.5,0-39.1,17.5-39.1,39.1s17.5,39.1,39.1,39.1c21.5,0,39.1-17.5,39.1-39.1S-1058,161.4-1079.5,161.4
			L-1079.5,161.4z M-1095.1,204.5c-1.1,0-2-0.9-2-2s0.9-2,2-2h9.6h3v-3v-11.3c0-1.1,0.9-2,2-2s2,0.9,2,2v11.3v3h3h11.5
			c1.1,0,2,0.9,2,2s-0.9,2-2,2h-11.5h-3v3v9.8c0,1.1-0.9,2-2,2s-2-0.9-2-2v-9.8v-3h-3H-1095.1L-1095.1,204.5z"/>
	</g>
</g>
<g id="XMLID_66_" class="st0">
	<g id="XMLID_44_" class="st1">
		<linearGradient id="XMLID_153_" gradientUnits="userSpaceOnUse" x1="-896.8584" y1="64.0967" x2="-706.7936" y2="254.1615">
			<stop  offset="1.076729e-007" style="stop-color:#6DB43D"/>
			<stop  offset="1" style="stop-color:#C2D634"/>
		</linearGradient>
		<polygon id="XMLID_45_" class="st5" points="-761.9,186.9 -774,199.1 -727.3,245.8 -715.1,233.7 		"/>
		<linearGradient id="XMLID_155_" gradientUnits="userSpaceOnUse" x1="-858.1906" y1="102.7646" x2="-728.4113" y2="232.544">
			<stop  offset="1.076729e-007" style="stop-color:#6DB43D"/>
			<stop  offset="1" style="stop-color:#C2D634"/>
		</linearGradient>
		<polygon id="XMLID_46_" class="st6" points="-767.4,185.2 -774.2,178.5 -782.5,186.8 -775.7,193.5 		"/>
		<linearGradient id="XMLID_156_" gradientUnits="userSpaceOnUse" x1="-896.8585" y1="64.0968" x2="-706.7937" y2="254.1616">
			<stop  offset="1.076729e-007" style="stop-color:#6DB43D"/>
			<stop  offset="1" style="stop-color:#C2D634"/>
		</linearGradient>
		<polygon id="XMLID_47_" class="st7" points="-775.9,172.9 -786.8,162 -798.9,174.2 -788,185.1 		"/>
		<linearGradient id="XMLID_157_" gradientUnits="userSpaceOnUse" x1="-895.9032" y1="63.1415" x2="-705.8384" y2="253.2063">
			<stop  offset="1.076729e-007" style="stop-color:#6DB43D"/>
			<stop  offset="1" style="stop-color:#C2D634"/>
		</linearGradient>
		<path id="XMLID_5_" class="st8" d="M-839.4,190.1c-38.8,0-70.4-31.6-70.4-70.4c0-38.8,31.6-70.4,70.4-70.4
			c38.8,0,70.4,31.6,70.4,70.4C-769,158.5-800.6,190.1-839.4,190.1z M-839.4,58.7c-33.6,0-60.9,27.3-60.9,60.9s27.3,60.9,60.9,60.9
			c33.6,0,60.9-27.3,60.9-60.9S-805.8,58.7-839.4,58.7z"/>
	</g>
</g>
<g id="XMLID_125_" class="st0">
	<rect id="XMLID_81_" x="-596" y="50" class="st9" width="50" height="50"/>
	<rect id="XMLID_120_" x="-596" y="125" class="st9" width="50" height="50"/>
	<rect id="XMLID_121_" x="-596" y="200" class="st9" width="50" height="50"/>
	<g id="XMLID_123_" class="st1">
		<polyline id="XMLID_134_" class="st10" points="-521,70 -503.9,81 -486.8,70 -469.6,81 -452.5,70 -435.4,81 -418.3,70 -401.1,81 
			-384,70 		"/>
	</g>
	<g id="XMLID_122_" class="st1">
		<polyline id="XMLID_112_" class="st10" points="-521,144 -503.9,155 -486.8,144 -469.6,155 -452.5,144 -435.4,155 -418.3,144 
			-401.1,155 -384,144 		"/>
	</g>
	<g id="XMLID_124_" class="st1">
		<polyline id="XMLID_110_" class="st10" points="-521,219 -503.9,230 -486.8,219 -469.6,230 -452.5,219 -435.4,230 -418.3,219 
			-401.1,230 -384,219 		"/>
	</g>
</g>
<g id="XMLID_98_">
	<linearGradient id="XMLID_161_" gradientUnits="userSpaceOnUse" x1="102.5771" y1="75.1916" x2="222.4591" y2="195.0736">
		<stop  offset="1.076729e-007" style="stop-color:#6DB43D"/>
		<stop  offset="1" style="stop-color:#C2D634"/>
	</linearGradient>
	<polygon id="XMLID_142_" class="st11" points="201.5,107 170.7,155.2 169.9,157.6 168.2,191.6 121,233.7 121,156.6 120.5,154.1 
		68.9,61 230.8,61 201.5,107 212.8,107 243.5,59.1 239.5,52 60.9,52 56.4,59 111,157.8 111,243.7 119.1,247.4 175.8,197.7 
		177.7,194.1 179.3,159.2 212.8,107 	"/>
</g>
<g id="XMLID_180_" class="st0">
	<polygon id="XMLID_186_" class="st12" points="411.7,172.9 409.9,170.9 385.7,180.9 388.3,147.1 366.3,121.4 399.3,113.4 417,84.5 
		434.3,112.7 436,112.3 437.8,109.3 439.7,106.3 417,69.3 394.2,106.4 351.8,116.6 380.1,149.8 376.7,193.3 415,177.5 415,176.9 	
		"/>
	<polygon id="XMLID_188_" class="st12" points="559.9,149.8 588.2,116.6 545.8,106.4 523,69.3 500.3,106.3 502.2,109.3 504,112.3 
		505.7,112.7 523,84.5 540.7,113.4 573.7,121.4 551.7,147.1 554.3,180.9 530.1,170.9 528.3,172.9 525,176.9 525,177.5 563.3,193.3 	
		"/>
	<g id="XMLID_129_" class="st1">
		<path id="XMLID_146_" class="st13" d="M450.8,117.3l-8.2-2l-1.5,2.5l-53.6,12.9l32.9,38.6l10.8,4.5l0.3-3.8L402,135.5l44.2-10.6
			L450.8,117.3z M516.7,172.7l2.9-3.3l32.9-38.6l-53.6-12.9l-1.5-2.5l-4.4-7.2L470,70.8l-22.9,37.4l-4.4,7.2l-1.5,2.5l-53.6,12.9
			l32.9,38.6l2.9,3.3l-0.5,6.3l-3.8,48.7l51-21.1l51,21.1l-3.8-48.7L516.7,172.7z M470,198l-42,17.4l2.6-33.1l0.6-8.4l0.3-3.8
			L402,135.5l44.2-10.6l4.6-7.5l4.4-7.2L470,86.1l14.8,24.1l4.4,7.2l4.6,7.5l44.2,10.6l-29.5,34.6l0.3,3.8l0.6,8.4l2.6,33.1L470,198
			z"/>
	</g>
</g>
<g id="XMLID_247_" class="st0">
	<rect id="XMLID_184_" x="725.4" y="79.4" class="st14" width="129.2" height="175.2"/>
	<rect id="XMLID_185_" x="710.7" y="63.1" class="st14" width="158.6" height="15.5"/>
	<polyline id="XMLID_189_" class="st14" points="761,59 761,45 817,45 817,59 	"/>
	<line id="XMLID_190_" class="st14" x1="758" y1="251" x2="758" y2="108"/>
	<line id="XMLID_191_" class="st14" x1="822" y1="251" x2="822" y2="108"/>
	<line id="XMLID_192_" class="st14" x1="790" y1="251" x2="790" y2="108"/>
</g>
<g id="XMLID_34_" class="st0">
	<linearGradient id="XMLID_162_" gradientUnits="userSpaceOnUse" x1="-315.72" y1="58.72" x2="-26.331" y2="348.109">
		<stop  offset="1.076729e-007" style="stop-color:#6DB43D"/>
		<stop  offset="1" style="stop-color:#C2D634"/>
	</linearGradient>
	<path id="XMLID_72_" class="st15" d="M-10.7,184.6l-2.8-6.6H-60v-53l-4.2-4H-109V60.7l-4-3.7h-116l-4,3.7V121h-46.7l-4.3,4v53
		h-46.2l-2.8,6.6l28.9,28.8l-28.9,28.8l2.8,6.8h63.5l3.7-4v-28h71.8l4.2-3.5V181h30v32.5l4.3,3.5H-81v28l4,4h63.5l2.8-6.8
		l-28.9-28.8L-10.7,184.6z M-271,241h-49.5l24.5-24.9v-5.7l-24.5-24.4h36.5v27.5l4.3,3.5h8.7V241z M-195,209h-68h-8h-5v-23v-8v-49
		h43v47.7l4,4.3h34V209z M-187,173h-8h-30v-44v-8V65h108v56v8v44h-32h-8H-187z M-149,209v-28h36l4-4.3V129h41v49v8v23h-5h-8H-149z
		 M-23.2,241H-73v-24h8.8l4.2-3.5V186h36.8L-48,210.4v5.7L-23.2,241z"/>
	<g id="XMLID_80_" class="st1">
		<linearGradient id="XMLID_163_" gradientUnits="userSpaceOnUse" x1="-277.1545" y1="20.1545" x2="12.2345" y2="309.5435">
			<stop  offset="1.076729e-007" style="stop-color:#6DB43D"/>
			<stop  offset="1" style="stop-color:#C2D634"/>
		</linearGradient>
		<path id="XMLID_85_" class="st16" d="M-171.8,90.8l9.2,18.6l20.5,3l-14.9,14.5l3.5,20.5l-18.4-9.7l-18.4,9.7l3.5-20.5l-14.9-14.5
			l20.5-3L-171.8,90.8 M-171.8,72.8l-7.2,14.5l-7.3,14.8l-16.4,2.4l-16,2.3l11.6,11.3l11.9,11.6l-2.8,16.3l-2.7,16l14.3-7.5
			l14.7-7.7l14.7,7.7l14.3,7.5l-2.7-16l-2.8-16.3l11.9-11.6l11.6-11.3l-16-2.3l-16.4-2.4l-7.3-14.8L-171.8,72.8z"/>
	</g>
</g>
</svg>
