<?xml version="1.0" encoding="utf-8"?>
<!-- Generator: Adobe Illustrator 19.0.0, SVG Export Plug-In . SVG Version: 6.00 Build 0)  -->
<svg version="1.1" id="Layer_1" xmlns="http://www.w3.org/2000/svg" xmlns:xlink="http://www.w3.org/1999/xlink" x="0px" y="0px"
	 viewBox="0 0 300 300" style="enable-background:new 0 0 300 300;" xml:space="preserve">
<style type="text/css">
	.st0{fill:url(#XMLID_4_);}
	.st1{fill:url(#XMLID_5_);}
	.st2{display:none;}
	.st3{display:inline;fill:none;stroke:#6DB43D;stroke-width:10;stroke-linecap:round;stroke-linejoin:round;stroke-miterlimit:10;}
	.st4{display:inline;}
	.st5{fill:#6DB43D;}
	.st6{display:inline;fill:none;stroke:#6DB43D;stroke-width:10;stroke-linecap:round;stroke-linejoin:bevel;stroke-miterlimit:10;}
	.st7{fill:none;stroke:#6DB43D;stroke-width:12;stroke-linejoin:round;stroke-miterlimit:10;}
	.st8{display:inline;fill:#6DB43D;}
	.st9{display:inline;fill:none;stroke:#6DB43D;stroke-width:8;stroke-linejoin:bevel;stroke-miterlimit:10;}
</style>
<g id="XMLID_1_">
	<g id="XMLID_2_">
		<linearGradient id="XMLID_4_" gradientUnits="userSpaceOnUse" x1="87.9272" y1="56.9192" x2="227.8831" y2="235.4258">
			<stop  offset="0" style="stop-color:#6DB43D"/>
			<stop  offset="1" style="stop-color:#C2D634"/>
		</linearGradient>
		<path id="XMLID_28_" class="st0" d="M200.5,161.5c-21.5,0-39,17.5-39,39c0,21.5,17.5,39,39,39c21.5,0,39-17.5,39-39
			C239.5,179,222,161.5,200.5,161.5z M218,205h-13v15c0,2.2-1.8,4-4,4s-4-1.8-4-4v-15h-14c-2.2,0-4-1.8-4-4s1.8-4,4-4h14v-13
			c0-2.2,1.8-4,4-4s4,1.8,4,4v13h13c2.2,0,4,1.8,4,4S220.2,205,218,205z"/>
	</g>
	<linearGradient id="XMLID_5_" gradientUnits="userSpaceOnUse" x1="97.5047" y1="49.4101" x2="237.4606" y2="227.9167">
		<stop  offset="0" style="stop-color:#6DB43D"/>
		<stop  offset="1" style="stop-color:#C2D634"/>
	</linearGradient>
	<path id="XMLID_8_" class="st1" d="M158.4,221.5l-8.4,8.4l-79.3-79.3c-9.1-9.1-14.1-21.2-14.1-34.2c0-13,5-25.1,14.1-34.2
		C79.8,73.1,91.9,68,104.9,68c13,0,25.1,5,34.2,14.1l7.3,7.3c2,2,5.1,2,7.1,0l7.3-7.3C170,73.1,182.1,68,195.1,68s25.1,5,34.2,14.1
		c9.1,9.1,14.1,21.2,14.1,34.2c0,13-5,25.1-14.1,34.2l-7.8,7.8c3.1,1.5,6,3.4,8.6,5.5l6.3-6.3c11-11,17-25.6,17-41.3
		c0-15.6-6-30.3-17-41.3c-11-11-25.6-17-41.3-17s-30.3,6-41.3,17l-3.8,3.8l-3.8-3.8c-11-11-25.6-17-41.3-17c-15.6,0-30.3,6-41.3,17
		c-11,11-17,25.6-17,41.3c0,15.6,6,30.3,17,41.3l82.8,82.8c1,1,2.3,1.5,3.5,1.5c1.3,0,2.6-0.5,3.5-1.5l10.4-10.4
		C161.8,227.4,160,224.5,158.4,221.5z"/>
</g>
<g id="XMLID_66_" class="st2">
	<circle id="XMLID_23_" class="st3" cx="439.3" cy="118.3" r="68.8"/>
	<g id="XMLID_44_" class="st4">
		
			<rect id="XMLID_45_" x="529.6" y="185" transform="matrix(0.7071 -0.7071 0.7071 0.7071 2.4723 445.1652)" class="st5" width="18" height="69.2"/>
		
			<rect id="XMLID_46_" x="499.5" y="178.8" transform="matrix(0.7071 0.7071 -0.7071 0.7071 281.2509 -303.3637)" class="st5" width="14.7" height="18"/>
		
			<rect id="XMLID_47_" x="485.7" y="165.8" transform="matrix(0.7071 0.7071 -0.7071 0.7071 268.218 -297.9651)" class="st5" width="16.2" height="18"/>
	</g>
</g>
<g id="XMLID_125_" class="st2">
	<rect id="XMLID_81_" x="684" y="50" class="st6" width="50" height="50"/>
	<rect id="XMLID_120_" x="684" y="125" class="st6" width="50" height="50"/>
	<rect id="XMLID_121_" x="684" y="200" class="st6" width="50" height="50"/>
	<g id="XMLID_123_" class="st4">
		<polyline id="XMLID_134_" class="st7" points="759,70 776.1,81 793.2,70 810.4,81 827.5,70 844.6,81 861.7,70 878.9,81 896,70 		
			"/>
	</g>
	<g id="XMLID_122_" class="st4">
		<polyline id="XMLID_112_" class="st7" points="759,144 776.1,155 793.2,144 810.4,155 827.5,144 844.6,155 861.7,144 878.9,155 
			896,144 		"/>
	</g>
	<g id="XMLID_124_" class="st4">
		<polyline id="XMLID_110_" class="st7" points="759,219 776.1,230 793.2,219 810.4,230 827.5,219 844.6,230 861.7,219 878.9,230 
			896,219 		"/>
	</g>
</g>
<g id="XMLID_32_" class="st2">
	<path id="XMLID_103_" class="st8" d="M1063.8,163.4c-0.2,0-0.5,0.1-0.7,0.1c-1.6,0.2-3.1,0.5-4.6,0.8c-1.1,0.2-2.5,0.4-3.5,0.6
		v-14.6c-3,0.2-5.8,0.8-8.8,0.8c-0.1,0-0.2,0-0.2,0v19.3l5.6,4.4l0,0c4.7-1,9.3-1.8,14.3-2.5v-9.1
		C1065,163.2,1064.5,163.3,1063.8,163.4z M1063.8,163.4c-0.2,0-0.5,0.1-0.7,0.1c-1.6,0.2-3.1,0.5-4.6,0.8c-1.1,0.2-2.5,0.4-3.5,0.6
		v-14.6c-3,0.2-5.8,0.8-8.8,0.8c-0.1,0-0.2,0-0.2,0v19.3l5.6,4.4l0,0c4.7-1,9.3-1.8,14.3-2.5v-9.1
		C1065,163.2,1064.5,163.3,1063.8,163.4z M1065.7,163.1C1065.8,163.1,1065.8,163.1,1065.7,163.1c-0.6,0.1-1.3,0.2-1.9,0.3
		c-0.2,0-0.5,0.1-0.7,0.1c-1.6,0.2-3.1,0.5-4.6,0.8c-1.1,0.2-2.5,0.4-3.5,0.6v-24.6c-3,0.2-6,0.8-9,0.8h0v29.3l5.6,4.4
		c4.7-1,9.4-1.8,14.1-2.5c0.1,0,0.1,0,0.2,0c0,0,0.1,0,0.1,0v-9.1C1066,163.1,1065.8,163.1,1065.7,163.1z M1171.9,92
		c-16.8-3.5-54.1-5.2-71.1-5.2c-17.1,0-34.3,1.8-51.1,5.2l-3.7,4.4v73.9l5.4,4.4c0.1,0,0.1,0,0.2,0c4.7-1,9.4-1.8,14.1-2.5
		c0.1,0,0.1,0,0.2,0c0,0,0,0,0.1,0c2.9-0.4,5.7-0.8,8.6-1.1c0.1,0,0.2,0,0.3,0c0,0,0,0,0,0c8.5-0.9,17-1.3,25.6-1.3
		c8.2,0,36.4,0.4,44.6,1.3c0.2,0,0.3,0,0.4,0c0.1,0,0.3,0,0.4,0c2.7,0.3,5.4,0.6,8.2,1c0.1,0,0.3,0,0.4,0.1c0.1,0,0.3,0,0.4,0.1
		c4.9,0.7,10.3,1.5,15.1,2.6l5.9-4.4V96.4L1171.9,92z M1167,164.8c-4-0.7-8.1-1.3-12-1.8l-0.2,0c-0.1,0-0.2,0-0.3,0
		c-2.7-0.4-5.7-0.7-8.5-1c-0.1,0-0.2,0-0.4,0c-0.1,0-0.3,0-0.5,0c-8.2-0.8-36.4-1.2-44.6-1.2c-8.5,0-17.1,0.4-25.6,1.3
		c-0.1,0-0.3,0-0.4,0c-2.8,0.3-5.8,0.6-8.6,1c-0.1,0-0.2,0-0.3,0c0,0,0,0,0,0c-0.7,0.1-1.3,0.2-1.9,0.3c-0.2,0-0.5,0.1-0.7,0.1
		c-1.6,0.2-3.1,0.5-4.6,0.8c-1.1,0.2-2.5,0.4-3.5,0.6V100c16-2.9,30.8-4.3,46-4.3s50,1.4,66,4.3V164.8z M1065.7,163.1
		C1065.8,163.1,1065.8,163.1,1065.7,163.1c-0.6,0.1-1.3,0.2-1.9,0.3c-0.2,0-0.5,0.1-0.7,0.1c-1.6,0.2-3.1,0.5-4.6,0.8
		c-1.1,0.2-2.5,0.4-3.5,0.6v-24.6c-3,0.2-6,0.8-9,0.8h0v29.3l5.6,4.4c4.7-1,9.4-1.8,14.1-2.5c0.1,0,0.1,0,0.2,0c0,0,0.1,0,0.1,0
		v-9.1C1066,163.1,1065.8,163.1,1065.7,163.1z M1063.8,163.4c-0.2,0-0.5,0.1-0.7,0.1c-1.6,0.2-3.1,0.5-4.6,0.8
		c-1.1,0.2-2.5,0.4-3.5,0.6v-14.6c-3,0.2-5.8,0.8-8.8,0.8c-0.1,0-0.2,0-0.2,0v19.3l5.6,4.4l0,0c4.7-1,9.3-1.8,14.3-2.5v-9.1
		C1065,163.2,1064.5,163.3,1063.8,163.4z"/>
	<path id="XMLID_305_" class="st8" d="M1075,162v20.9l-3.6,4.4c-8.7,1.8-17.5,2.4-26.3,2.4c-3,0-6.1,0.3-9.1-0.6
		c-0.1,0-0.1-0.1-0.2-0.1h-0.1c-2.9,0-5.9,0-8.8-0.9c-0.1,0-0.1-0.1-0.2-0.1h0c-2.7,0-5-0.5-7.6-1l-3.2-4v-49.5l5-4.4
		c8.1,1.7,16.1,2.5,24.3,2.5c0.2,0,0.2,0.2,0.3,0.2c0.1,0,0.2,0.2,0.4,0.2h0.1c3,0,5.9-0.6,8.9-0.8v9c-3,0.2-6,0.8-9,0.8h0
		c-0.1,0-0.3-0.2-0.3-0.2c-0.1,0,0-0.1-0.2-0.1c-7,0-14.4-0.7-20.4-1.8v40.3c0,0.1,1.1,0.3,2,0.4l0,0l0.1,0c3,0.4,5.8,0.9,8.7,1.2
		c0,0,0,0.2,0.1,0.2h0.1c3.1,0,6.1,0.2,9.2,0.2c7,0,13.8-0.8,20.8-2v-16.2c3-0.4,5.8-0.7,8.6-1C1074.7,162,1075,162,1075,162z"/>
	<path id="XMLID_99_" class="st8" d="M1199.6,128.8c-7.8,1.6-15.7,2.2-23.6,2.2h-0.9c-2.8,0-6.1,0.3-8.1,0.2v9
		c2,0.2,5.2-0.2,8.1-0.2h0.9c6.7,0,13,0,20-1.1v40.3c-1,0.1-1.8,0.3-2.6,0.4c-0.1,0-0.2,0-0.3,0c-3,0.5-5.9,0.8-8.9,1
		c0,0-0.1,0-0.1,0c-3,0.2-5.6,0.3-8.6,0.3c-7,0-14.5-0.6-20.5-1.8V163l-0.2,0c-0.1,0-0.2,0-0.3,0c-2.7-0.4-5.5-0.7-8.5-1v21l3.2,4.4
		c8.7,1.8,17.3,2.3,26.1,2.3c3,0,5.9,0.3,8.9-0.7h0.1c0.3,0,0.5,0,0.8,0c2.7,0,5.5,0,8.2-1h0c0.3,0,0.5,0,0.8,0c2.5-0.1,5-0.5,7.4-1
		l3.6-4v-49.5L1199.6,128.8z"/>
	<path id="XMLID_92_" class="st8" d="M1036,180.7v23.3l-2.9,4.2c-8.5,3.4-17.6,5.2-26.7,5.2c-9.2,0-18.5-1.7-27.3-5.2l-0.8-8
		c6.8-4.4,14-10,21.3-16.8c-7.7-7.9-15.3-17.1-22.6-27.5l5.3-6.8c7.6,3,15.6,4.5,23.6,4.5c3.2,0,6.6-0.2,9.8-0.7
		c3-0.4,6.2-1.1,9.2-2v9.4c-3,0.8-6.2,1.4-9.2,1.8c-3.2,0.4-6.5,0.6-9.7,0.6c-4.6,0-8.8-0.4-13.4-1.3c5.5,7,11.3,13.3,17.3,18.9v6.4
		c-7,6-12.8,11.3-18.8,15.8c5.1,1.2,10.2,1.8,15.4,1.8c6.9,0,14.4-1.2,20.4-3.5v-21.2l0.2,0C1030.2,180.1,1033,180.4,1036,180.7z"/>
	<path id="XMLID_87_" class="st8" d="M1220.4,183.4c7.3,6.8,14.5,12.4,21.3,16.8l-0.8,8c-8.8,3.5-18,5.2-27.3,5.2
		c-9.1,0-17.7-1.8-26.3-5.2l-2.4-4.2v-23.3c3-0.2,5.8-0.6,8.8-1c0.1,0,0.2,0,0.2,0v21.2c6,2.3,13.2,3.5,20.1,3.5
		c5.2,0,10.3-0.6,15.4-1.8c-6-4.5-12.5-9.7-18.5-15.8v-6.4c6-5.6,11.3-11.9,16.8-18.9c-4.5,0.9-9.2,1.3-13.8,1.3
		c-3.1,0-6.1-0.2-9.2-0.6c-3-0.4-5.8-1-8.8-1.7v-9.3c3,0.9,5.8,1.6,8.8,2c3.1,0.5,6.2,0.7,9.3,0.7c8,0,16-1.5,23.6-4.5l5.3,6.8
		C1235.8,166.3,1228.1,175.5,1220.4,183.4z"/>
	<g id="XMLID_10_" class="st4">
		<g id="XMLID_84_">
			<path id="XMLID_93_" class="st5" d="M1077.8,117c0.9,10.2,1.8,20.3,2.7,30.5c-1.5,0.1-3,0.3-4.6,0.4c-1-10.1-2.1-20.3-3.1-30.4
				c-3,0.3-5.9,0.6-8.9,1c-0.2-1.5-0.4-3-0.6-4.5c7.7-1,15.4-1.7,23.1-2.2c0.1,1.5,0.2,3,0.3,4.5
				C1083.8,116.5,1080.8,116.7,1077.8,117z"/>
			<path id="XMLID_89_" class="st5" d="M1124.4,116c3.7,3.6,5.4,8,5.1,12.9c-0.2,5-2.3,9.1-6,12.5c-3.7,3.4-8,5.1-12.9,5.1
				c-5,0-9.2-1.6-13-5c-3.7-3.4-5.8-7.5-6.1-12.5c-0.3-5,1.4-9.3,5.1-13c3.7-3.7,8.4-5.5,13.9-5.6
				C1116,110.5,1120.7,112.3,1124.4,116z M1110.6,115.1c-4,0-7.5,1.4-10.2,4.1c-2.7,2.7-4,5.9-3.8,9.6c0.2,3.7,1.7,6.8,4.4,9.3
				c2.8,2.5,6,3.8,9.7,3.8c3.8,0,7-1.3,9.7-3.8c2.7-2.6,4.2-5.7,4.4-9.4c0.1-3.7-1.1-6.9-3.9-9.6
				C1118.1,116.4,1114.6,115.1,1110.6,115.1z"/>
			<path id="XMLID_85_" class="st5" d="M1140.2,136c-0.3,3.7-0.6,7.5-0.9,11.2c-1.5-0.1-3-0.2-4.6-0.3c0.8-11.7,1.6-23.4,2.3-35.1
				c3.7,0.2,7.3,0.5,11,0.9c3.1,0.7,5.6,2.1,7.5,4.3c2.3,2.6,3.2,5.6,2.7,8.8c-0.4,3.3-2,5.9-4.7,8c-2.7,2-5.7,2.9-9.1,2.6
				C1143.1,136.2,1141.7,136.1,1140.2,136z M1141.8,116.7c-0.4,4.9-0.8,9.8-1.2,14.7c1.4,0.1,2.9,0.2,4.3,0.4c2.1,0.2,4-0.3,5.7-1.6
				c1.7-1.3,2.6-2.9,2.9-5c0.2-2-0.3-3.8-1.8-5.4c-1.4-1.6-3.2-2.5-5.4-2.7C1144.8,117,1143.3,116.8,1141.8,116.7z"/>
		</g>
	</g>
</g>
<g id="XMLID_98_" class="st2">
	<polygon id="XMLID_132_" class="st8" points="1493,93 1481.1,93 1475.3,102 1487.2,102 	"/>
	<polygon id="XMLID_142_" class="st8" points="1473.4,105 1441,155.5 1440.2,158.1 1438.5,214.8 1410,238 1410,157 1409.4,154.5 
		1355.2,57 1504.2,57 1491.4,77 1503.2,77 1517.5,54.7 1513.3,47 1346.7,47 1342.3,54.4 1400,158.3 1400,248.5 1408.2,252.4 
		1446.6,221.1 1448.4,217.4 1450.2,159.7 1485.3,105 	"/>
	<polygon id="XMLID_143_" class="st8" points="1489.4,80 1483,90 1494.9,90 1501.3,80 	"/>
	<g id="XMLID_33_" class="st4">
		<polygon id="XMLID_53_" class="st5" points="1475.4,102 1473.4,105 1450,105 1453.3,102 		"/>
		<polygon id="XMLID_73_" class="st5" points="1483.4,90 1481.4,93 1458,93 1461.3,90 		"/>
		<polygon id="XMLID_96_" class="st5" points="1491.4,77 1489.4,80 1466,80 1469.3,77 		"/>
	</g>
</g>
<g id="XMLID_180_" class="st2">
	<polygon id="XMLID_186_" class="st8" points="1691.7,172.9 1689.9,170.9 1665.7,180.9 1668.3,147.1 1646.3,121.4 1679.3,113.4 
		1697,84.5 1714.3,112.7 1716,112.3 1717.8,109.3 1719.7,106.3 1697,69.3 1674.2,106.4 1631.8,116.6 1660.1,149.8 1656.7,193.3 
		1695,177.5 1695,176.9 	"/>
	<polygon id="XMLID_188_" class="st8" points="1839.9,149.8 1868.2,116.6 1825.8,106.4 1803,69.3 1780.3,106.3 1782.2,109.3 
		1784,112.3 1785.7,112.7 1803,84.5 1820.7,113.4 1853.7,121.4 1831.7,147.1 1834.3,180.9 1810.1,170.9 1808.3,172.9 1805,176.9 
		1805,177.5 1843.3,193.3 	"/>
	<g id="XMLID_129_" class="st4">
		<path id="XMLID_146_" class="st5" d="M1730.8,117.3l-8.2-2l-1.5,2.5l-53.6,12.9l32.9,38.6l10.8,4.5l0.3-3.8l-29.5-34.6l44.2-10.6
			L1730.8,117.3z M1796.7,172.7l2.9-3.3l32.9-38.6l-53.6-12.9l-1.5-2.5l-4.4-7.2L1750,70.8l-22.9,37.4l-4.4,7.2l-1.5,2.5l-53.6,12.9
			l32.9,38.6l2.9,3.3l-0.5,6.3l-3.8,48.7l51-21.1l51,21.1l-3.8-48.7L1796.7,172.7z M1750,198l-42,17.4l2.6-33.1l0.6-8.4l0.3-3.8
			l-29.5-34.6l44.2-10.6l4.6-7.5l4.4-7.2l14.8-24.1l14.8,24.1l4.4,7.2l4.6,7.5l44.2,10.6l-29.5,34.6l0.3,3.8l0.6,8.4l2.6,33.1
			L1750,198z"/>
	</g>
</g>
<g id="XMLID_247_" class="st2">
	<rect id="XMLID_184_" x="2005.4" y="79.4" class="st9" width="129.2" height="175.2"/>
	<rect id="XMLID_185_" x="1990.7" y="63.1" class="st9" width="158.6" height="15.5"/>
	<polyline id="XMLID_189_" class="st9" points="2041,59 2041,45 2097,45 2097,59 	"/>
	<line id="XMLID_190_" class="st9" x1="2038" y1="251" x2="2038" y2="108"/>
	<line id="XMLID_191_" class="st9" x1="2102" y1="251" x2="2102" y2="108"/>
	<line id="XMLID_192_" class="st9" x1="2070" y1="251" x2="2070" y2="108"/>
</g>
</svg>
