<?xml version="1.0" encoding="utf-8"?>
<!-- Generator: Adobe Illustrator 19.0.0, SVG Export Plug-In . SVG Version: 6.00 Build 0)  -->
<svg version="1.1" id="Layer_1" xmlns="http://www.w3.org/2000/svg" xmlns:xlink="http://www.w3.org/1999/xlink" x="0px" y="0px"
	 viewBox="0 0 300 300" style="enable-background:new 0 0 300 300;" xml:space="preserve">
<style type="text/css">
	.st0{display:none;}
	.st1{display:inline;}
	.st2{fill:url(#XMLID_107_);}
	.st3{fill:#FFFFFF;}
	.st4{fill:url(#XMLID_108_);}
	.st5{fill:url(#XMLID_114_);}
	.st6{fill:url(#XMLID_115_);}
	.st7{fill:url(#XMLID_116_);}
	.st8{fill:url(#XMLID_117_);}
	.st9{display:inline;fill:none;stroke:#6DB43D;stroke-width:10;stroke-linecap:round;stroke-linejoin:bevel;stroke-miterlimit:10;}
	.st10{fill:none;stroke:#6DB43D;stroke-width:12;stroke-linejoin:round;stroke-miterlimit:10;}
	.st11{display:inline;fill:url(#XMLID_118_);}
	.st12{display:inline;fill:#6DB43D;}
	.st13{fill:#6DB43D;}
	.st14{display:inline;fill:none;stroke:#6DB43D;stroke-width:8;stroke-linejoin:bevel;stroke-miterlimit:10;}
	.st15{display:inline;fill:url(#XMLID_119_);}
	.st16{fill:url(#XMLID_126_);}
</style>
<g id="XMLID_1_" class="st0">
	<g id="XMLID_3_" class="st1">
		<linearGradient id="XMLID_107_" gradientUnits="userSpaceOnUse" x1="-219.2844" y1="67.1065" x2="-51.0388" y2="235.352">
			<stop  offset="1.076729e-007" style="stop-color:#6DB43D"/>
			<stop  offset="1" style="stop-color:#C2D634"/>
		</linearGradient>
		<path id="XMLID_280_" class="st2" d="M-170,243.4c-1.7,0-3.4-0.7-4.6-1.9l-82.8-82.8c-11.3-11.3-17.5-26.3-17.5-42.3
			c0-16,6.2-31.1,17.5-42.3c11.3-11.3,26.3-17.5,42.3-17.5s31.1,6.2,42.3,17.5l2.7,2.7l2.7-2.7c11.3-11.3,26.3-17.5,42.3-17.5
			c16,0,31.1,6.2,42.3,17.5c11.3,11.3,17.5,26.3,17.5,42.3c0,16-6.2,31.1-17.5,42.3l-9,9l-9.2-9.2l9-9c8.8-8.8,13.7-20.6,13.7-33.1
			c0-12.6-4.8-24.3-13.7-33.1c-8.8-8.8-20.6-13.7-33.1-13.7s-24.3,4.8-33.1,13.7l-7.3,7.3c-1.2,1.2-2.9,1.9-4.6,1.9
			c-1.7,0-3.4-0.7-4.6-1.9l-7.3-7.3c-8.8-8.8-20.6-13.7-33.1-13.7s-24.3,4.8-33.1,13.7c-8.8,8.8-13.7,20.6-13.7,33.1
			c0,12.6,4.8,24.3,13.7,33.1l78.2,78.2l8.6-8.6l9.2,9.2l-13.1,13.1C-166.6,242.7-168.3,243.4-170,243.4z"/>
		<path id="XMLID_277_" class="st3" d="M-124.9,58.1c15.6,0,30.3,6,41.3,17c11,11,17,25.6,17,41.3c0,15.6-6,30.3-17,41.3l-8,8
			l-7.1-7.1l8-8c9.1-9.1,14.1-21.2,14.1-34.2c0-13-5-25.1-14.1-34.2c-9.1-9.1-21.2-14.1-34.2-14.1c-13,0-25.1,5-34.2,14.1l-7.3,7.3
			c-1,1-2.3,1.5-3.5,1.5c-1.3,0-2.6-0.5-3.5-1.5l-7.3-7.3c-9.1-9.1-21.2-14.1-34.2-14.1c-13,0-25.1,5-34.2,14.1
			c-9.1,9.1-14.1,21.2-14.1,34.2c0,13,5,25.1,14.1,34.2l79.2,79.2l8.6-8.6l7.1,7.1l-12.1,12.1c-1,1-2.3,1.5-3.5,1.5
			c-1.3,0-2.6-0.5-3.5-1.5l-82.8-82.8c-11-11-17-25.6-17-41.3c0-15.6,6-30.3,17-41.3c11-11,25.6-17,41.3-17c15.6,0,30.3,6,41.3,17
			l3.8,3.8l3.8-3.8C-155.2,64.2-140.6,58.1-124.9,58.1 M-124.9,55.1c-16.4,0-31.8,6.4-43.4,17.9l-1.7,1.7l-1.7-1.7
			c-11.5-11.5-26.9-17.9-43.4-17.9s-31.8,6.4-43.4,17.9c-11.5,11.5-17.9,26.9-17.9,43.4c0,16.4,6.4,31.8,17.9,43.4l82.8,82.8
			c1.5,1.5,3.5,2.3,5.7,2.3c2.1,0,4.1-0.8,5.7-2.3l12.1-12.1l2.1-2.1l-2.1-2.1l-7.1-7.1l-2.1-2.1l-2.1,2.1l-6.4,6.4l-77.1-77.1
			c-8.5-8.5-13.2-19.9-13.2-32.1c0-12.2,4.7-23.5,13.2-32.1c8.5-8.5,19.9-13.2,32.1-13.2c12.2,0,23.5,4.7,32.1,13.2l7.3,7.3
			c1.5,1.5,3.5,2.3,5.7,2.3c2.1,0,4.1-0.8,5.7-2.3l7.3-7.3c8.5-8.5,19.9-13.2,32.1-13.2c12.2,0,23.5,4.7,32.1,13.2
			c8.5,8.5,13.2,19.9,13.2,32.1c0,12.2-4.7,23.5-13.2,32.1l-8,8l-2.1,2.1l2.1,2.1l7.1,7.1l2.1,2.1l2.1-2.1l8-8
			c11.5-11.5,17.9-26.9,17.9-43.4c0-16.4-6.4-31.8-17.9-43.4C-93.1,61.5-108.5,55.1-124.9,55.1L-124.9,55.1z"/>
	</g>
	<g id="XMLID_61_" class="st1">
		<linearGradient id="XMLID_108_" gradientUnits="userSpaceOnUse" x1="-240.0967" y1="79.9033" x2="-67.7198" y2="252.2802">
			<stop  offset="1.076729e-007" style="stop-color:#6DB43D"/>
			<stop  offset="1" style="stop-color:#C2D634"/>
		</linearGradient>
		<path id="XMLID_296_" class="st4" d="M-119.5,238c-20.7,0-37.6-16.9-37.6-37.6c0-20.7,16.9-37.6,37.6-37.6
			c20.7,0,37.6,16.9,37.6,37.6C-82,221.2-98.8,238-119.5,238z M-135.1,199c-1.9,0-3.5,1.6-3.5,3.5s1.6,3.5,3.5,3.5h11.1v11.3
			c0,1.9,1.6,3.5,3.5,3.5s3.5-1.6,3.5-3.5V206h13c1.9,0,3.5-1.6,3.5-3.5s-1.6-3.5-3.5-3.5h-13v-12.8c0-1.9-1.6-3.5-3.5-3.5
			s-3.5,1.6-3.5,3.5V199H-135.1z"/>
		<path id="XMLID_291_" class="st3" d="M-119.5,164.4c19.9,0,36.1,16.2,36.1,36.1c0,19.9-16.2,36.1-36.1,36.1
			c-19.9,0-36.1-16.2-36.1-36.1C-155.6,180.6-139.4,164.4-119.5,164.4 M-135.1,207.5h9.6v9.8c0,2.7,2.3,5,5,5s5-2.2,5-5v-9.8h11.5
			c2.7,0,5-2.3,5-5s-2.2-5-5-5h-11.5v-11.3c0-2.7-2.3-5-5-5s-5,2.2-5,5v11.3h-9.6c-2.7,0-5,2.3-5,5S-137.8,207.5-135.1,207.5
			 M-119.5,161.4c-21.5,0-39.1,17.5-39.1,39.1s17.5,39.1,39.1,39.1s39.1-17.5,39.1-39.1S-98,161.4-119.5,161.4L-119.5,161.4z
			 M-135.1,204.5c-1.1,0-2-0.9-2-2s0.9-2,2-2h9.6h3v-3v-11.3c0-1.1,0.9-2,2-2s2,0.9,2,2v11.3v3h3h11.5c1.1,0,2,0.9,2,2s-0.9,2-2,2
			h-11.5h-3v3v9.8c0,1.1-0.9,2-2,2s-2-0.9-2-2v-9.8v-3h-3H-135.1L-135.1,204.5z"/>
	</g>
</g>
<g id="XMLID_66_">
	<g id="XMLID_44_">
		<linearGradient id="XMLID_114_" gradientUnits="userSpaceOnUse" x1="63.1416" y1="64.0967" x2="253.2064" y2="254.1615">
			<stop  offset="1.076729e-007" style="stop-color:#6DB43D"/>
			<stop  offset="1" style="stop-color:#C2D634"/>
		</linearGradient>
		<polygon id="XMLID_45_" class="st5" points="198.1,186.9 186,199.1 232.7,245.8 244.9,233.7 		"/>
		<linearGradient id="XMLID_115_" gradientUnits="userSpaceOnUse" x1="101.8094" y1="102.7646" x2="231.5888" y2="232.544">
			<stop  offset="1.076729e-007" style="stop-color:#6DB43D"/>
			<stop  offset="1" style="stop-color:#C2D634"/>
		</linearGradient>
		<polygon id="XMLID_46_" class="st6" points="192.6,185.2 185.8,178.5 177.5,186.8 184.3,193.5 		"/>
		<linearGradient id="XMLID_116_" gradientUnits="userSpaceOnUse" x1="63.1415" y1="64.0968" x2="253.2063" y2="254.1616">
			<stop  offset="1.076729e-007" style="stop-color:#6DB43D"/>
			<stop  offset="1" style="stop-color:#C2D634"/>
		</linearGradient>
		<polygon id="XMLID_47_" class="st7" points="184.1,172.9 173.2,162 161.1,174.2 172,185.1 		"/>
		<linearGradient id="XMLID_117_" gradientUnits="userSpaceOnUse" x1="64.0968" y1="63.1415" x2="254.1616" y2="253.2063">
			<stop  offset="1.076729e-007" style="stop-color:#6DB43D"/>
			<stop  offset="1" style="stop-color:#C2D634"/>
		</linearGradient>
		<path id="XMLID_5_" class="st8" d="M120.6,190.1c-38.8,0-70.4-31.6-70.4-70.4c0-38.8,31.6-70.4,70.4-70.4S191,80.8,191,119.6
			C191,158.5,159.4,190.1,120.6,190.1z M120.6,58.7c-33.6,0-60.9,27.3-60.9,60.9s27.3,60.9,60.9,60.9s60.9-27.3,60.9-60.9
			S154.2,58.7,120.6,58.7z"/>
	</g>
</g>
<g id="XMLID_125_" class="st0">
	<rect id="XMLID_81_" x="364" y="50" class="st9" width="50" height="50"/>
	<rect id="XMLID_120_" x="364" y="125" class="st9" width="50" height="50"/>
	<rect id="XMLID_121_" x="364" y="200" class="st9" width="50" height="50"/>
	<g id="XMLID_123_" class="st1">
		<polyline id="XMLID_134_" class="st10" points="439,70 456.1,81 473.2,70 490.4,81 507.5,70 524.6,81 541.7,70 558.9,81 576,70 		
			"/>
	</g>
	<g id="XMLID_122_" class="st1">
		<polyline id="XMLID_112_" class="st10" points="439,144 456.1,155 473.2,144 490.4,155 507.5,144 524.6,155 541.7,144 558.9,155 
			576,144 		"/>
	</g>
	<g id="XMLID_124_" class="st1">
		<polyline id="XMLID_110_" class="st10" points="439,219 456.1,230 473.2,219 490.4,230 507.5,219 524.6,230 541.7,219 558.9,230 
			576,219 		"/>
	</g>
</g>
<g id="XMLID_98_" class="st0">
	<linearGradient id="XMLID_118_" gradientUnits="userSpaceOnUse" x1="1062.577" y1="75.1916" x2="1182.4591" y2="195.0736">
		<stop  offset="1.076729e-007" style="stop-color:#6DB43D"/>
		<stop  offset="1" style="stop-color:#C2D634"/>
	</linearGradient>
	<polygon id="XMLID_142_" class="st11" points="1161.5,107 1130.7,155.2 1129.9,157.6 1128.2,191.6 1081,233.7 1081,156.6 
		1080.5,154.1 1028.9,61 1190.8,61 1161.5,107 1172.8,107 1203.5,59.1 1199.5,52 1020.9,52 1016.4,59 1071,157.8 1071,243.7 
		1079.1,247.4 1135.8,197.7 1137.7,194.1 1139.3,159.2 1172.8,107 	"/>
</g>
<g id="XMLID_180_" class="st0">
	<polygon id="XMLID_186_" class="st12" points="1371.7,172.9 1369.9,170.9 1345.7,180.9 1348.3,147.1 1326.3,121.4 1359.3,113.4 
		1377,84.5 1394.3,112.7 1396,112.3 1397.8,109.3 1399.7,106.3 1377,69.3 1354.2,106.4 1311.8,116.6 1340.1,149.8 1336.7,193.3 
		1375,177.5 1375,176.9 	"/>
	<polygon id="XMLID_188_" class="st12" points="1519.9,149.8 1548.2,116.6 1505.8,106.4 1483,69.3 1460.3,106.3 1462.2,109.3 
		1464,112.3 1465.7,112.7 1483,84.5 1500.7,113.4 1533.7,121.4 1511.7,147.1 1514.3,180.9 1490.1,170.9 1488.3,172.9 1485,176.9 
		1485,177.5 1523.3,193.3 	"/>
	<g id="XMLID_129_" class="st1">
		<path id="XMLID_146_" class="st13" d="M1410.8,117.3l-8.2-2l-1.5,2.5l-53.6,12.9l32.9,38.6l10.8,4.5l0.3-3.8l-29.5-34.6l44.2-10.6
			L1410.8,117.3z M1476.7,172.7l2.9-3.3l32.9-38.6l-53.6-12.9l-1.5-2.5l-4.4-7.2L1430,70.8l-22.9,37.4l-4.4,7.2l-1.5,2.5l-53.6,12.9
			l32.9,38.6l2.9,3.3l-0.5,6.3l-3.8,48.7l51-21.1l51,21.1l-3.8-48.7L1476.7,172.7z M1430,198l-42,17.4l2.6-33.1l0.6-8.4l0.3-3.8
			l-29.5-34.6l44.2-10.6l4.6-7.5l4.4-7.2l14.8-24.1l14.8,24.1l4.4,7.2l4.6,7.5l44.2,10.6l-29.5,34.6l0.3,3.8l0.6,8.4l2.6,33.1
			L1430,198z"/>
	</g>
</g>
<g id="XMLID_247_" class="st0">
	<rect id="XMLID_184_" x="1685.4" y="79.4" class="st14" width="129.2" height="175.2"/>
	<rect id="XMLID_185_" x="1670.7" y="63.1" class="st14" width="158.6" height="15.5"/>
	<polyline id="XMLID_189_" class="st14" points="1721,59 1721,45 1777,45 1777,59 	"/>
	<line id="XMLID_190_" class="st14" x1="1718" y1="251" x2="1718" y2="108"/>
	<line id="XMLID_191_" class="st14" x1="1782" y1="251" x2="1782" y2="108"/>
	<line id="XMLID_192_" class="st14" x1="1750" y1="251" x2="1750" y2="108"/>
</g>
<g id="XMLID_34_" class="st0">
	<linearGradient id="XMLID_119_" gradientUnits="userSpaceOnUse" x1="644.28" y1="58.72" x2="933.669" y2="348.109">
		<stop  offset="1.076729e-007" style="stop-color:#6DB43D"/>
		<stop  offset="1" style="stop-color:#C2D634"/>
	</linearGradient>
	<path id="XMLID_72_" class="st15" d="M949.3,184.6l-2.8-6.6H900v-53l-4.2-4H851V60.7l-4-3.7H731l-4,3.7V121h-46.7l-4.3,4v53h-46.2
		l-2.8,6.6l28.9,28.8L627,242.2l2.8,6.8h63.5l3.7-4v-28h71.8l4.2-3.5V181h30v32.5l4.3,3.5H879v28l4,4h63.5l2.8-6.8l-28.9-28.8
		L949.3,184.6z M689,241h-49.5l24.5-24.9v-5.7L639.5,186H676v27.5l4.3,3.5h8.7V241z M765,209h-68h-8h-5v-23v-8v-49h43v47.7l4,4.3h34
		V209z M773,173h-8h-30v-44v-8V65h108v56v8v44h-32h-8H773z M811,209v-28h36l4-4.3V129h41v49v8v23h-5h-8H811z M936.8,241H887v-24h8.8
		l4.2-3.5V186h36.8L912,210.4v5.7L936.8,241z"/>
	<g id="XMLID_80_" class="st1">
		<linearGradient id="XMLID_126_" gradientUnits="userSpaceOnUse" x1="682.8455" y1="20.1545" x2="972.2346" y2="309.5435">
			<stop  offset="1.076729e-007" style="stop-color:#6DB43D"/>
			<stop  offset="1" style="stop-color:#C2D634"/>
		</linearGradient>
		<path id="XMLID_85_" class="st16" d="M788.2,90.8l9.2,18.6l20.5,3L803,126.9l3.5,20.5l-18.4-9.7l-18.4,9.7l3.5-20.5l-14.9-14.5
			l20.5-3L788.2,90.8 M788.2,72.8L781,87.3l-7.3,14.8l-16.4,2.4l-16,2.3l11.6,11.3l11.9,11.6l-2.8,16.3l-2.7,16l14.3-7.5l14.7-7.7
			l14.7,7.7l14.3,7.5l-2.7-16l-2.8-16.3l11.9-11.6l11.6-11.3l-16-2.3l-16.4-2.4l-7.3-14.8L788.2,72.8z"/>
	</g>
</g>
</svg>
