<?xml version="1.0" encoding="utf-8"?>
<!-- Generator: Adobe Illustrator 19.0.0, SVG Export Plug-In . SVG Version: 6.00 Build 0)  -->
<svg version="1.1" xmlns="http://www.w3.org/2000/svg" xmlns:xlink="http://www.w3.org/1999/xlink" x="0px" y="0px"
	 viewBox="0 0 300 300" style="enable-background:new 0 0 300 300;" xml:space="preserve">
<style type="text/css">
	.st0{fill:none;stroke:#6DB43D;stroke-width:10;stroke-linejoin:round;stroke-miterlimit:10;}
	.st1{fill:#6DB43D;}
	.st2{display:none;}
	.st3{display:inline;}
	.st4{fill:none;stroke:#6DB43D;stroke-width:10;stroke-linecap:round;stroke-linejoin:round;stroke-miterlimit:10;}
	.st5{fill:none;stroke:#6DB43D;stroke-width:10;stroke-linecap:round;stroke-linejoin:bevel;stroke-miterlimit:10;}
	.st6{fill:none;stroke:#6DB43D;stroke-width:12;stroke-linejoin:round;stroke-miterlimit:10;}
	.st7{fill:none;stroke:#6DB43D;stroke-width:8;stroke-linejoin:bevel;stroke-miterlimit:10;}
</style>
<g id="Layer_1">
	<g id="XMLID_1_">
		<g id="XMLID_6_">
			<path id="XMLID_7_" class="st0" d="M224.9,162.1l0.6-0.6l7.3-7.3c10.4-10.4,15.6-24.1,15.6-37.8s-5.2-27.4-15.6-37.8
				c-20.8-20.8-54.7-20.8-75.5,0L150,86l-7.3-7.3c-20.8-20.8-54.7-20.8-75.5,0C56.8,89,51.6,102.7,51.6,116.4s5.2,27.4,15.6,37.8
				L150,237l12.1-12.1"/>
		</g>
		<path id="XMLID_94_" class="st1" d="M200.5,171.5c-16,0-29,13-29,29c0,16,13,29,29,29c16,0,29-13,29-29
			C229.5,184.5,216.5,171.5,200.5,171.5z M213,205h-8v9c0,2.2-1.8,4-4,4s-4-1.8-4-4v-9h-9c-2.2,0-4-1.8-4-4s1.8-4,4-4h9v-8
			c0-2.2,1.8-4,4-4s4,1.8,4,4v8h8c2.2,0,4,1.8,4,4S215.2,205,213,205z"/>
	</g>
</g>
<g id="Layer_2" class="st2">
	<g id="XMLID_97_" class="st3">
		<circle id="XMLID_105_" class="st4" cx="439.3" cy="118.3" r="68.8"/>
		<g id="XMLID_100_">
			
				<rect id="XMLID_104_" x="529.6" y="185" transform="matrix(0.7071 -0.7071 0.7071 0.7071 2.4723 445.1652)" class="st1" width="18" height="69.2"/>
			
				<rect id="XMLID_102_" x="499.5" y="178.8" transform="matrix(0.7071 0.7071 -0.7071 0.7071 281.2509 -303.3637)" class="st1" width="14.7" height="18"/>
			
				<rect id="XMLID_101_" x="485.7" y="165.8" transform="matrix(0.7071 0.7071 -0.7071 0.7071 268.218 -297.9651)" class="st1" width="16.2" height="18"/>
		</g>
	</g>
</g>
<g id="Layer_3" class="st2">
	<g id="XMLID_125_" class="st3">
		<rect id="XMLID_81_" x="685" y="50" class="st5" width="50" height="50"/>
		<rect id="XMLID_120_" x="685" y="125" class="st5" width="50" height="50"/>
		<rect id="XMLID_121_" x="685" y="200" class="st5" width="50" height="50"/>
		<g id="XMLID_123_">
			<polyline id="XMLID_140_" class="st6" points="760,70 777.1,81 794.2,70 811.4,81 828.5,70 845.6,81 862.7,70 879.9,81 897,70 
							"/>
		</g>
		<g id="XMLID_122_">
			<polyline id="XMLID_138_" class="st6" points="760,144 777.1,155 794.2,144 811.4,155 828.5,144 845.6,155 862.7,144 879.9,155 
				897,144 			"/>
		</g>
		<g id="XMLID_124_">
			<polyline id="XMLID_136_" class="st6" points="760,219 777.1,230 794.2,219 811.4,230 828.5,219 845.6,230 862.7,219 879.9,230 
				897,219 			"/>
		</g>
	</g>
</g>
<g id="Layer_4" class="st2">
	<g id="XMLID_113_" class="st3">
		<path id="XMLID_150_" class="st1" d="M1063.8,184.4c-0.2,0-0.5,0.1-0.7,0.1c-1.6,0.2-3.1,0.5-4.6,0.8c-1.1,0.2-2.5,0.4-3.5,0.6
			v-14.6c-3,0.2-5.8,0.8-8.8,0.8c-0.1,0-0.2,0-0.2,0v19.3l5.6,4.4l0,0c4.7-1,9.3-1.8,14.3-2.5v-9.1
			C1065,184.2,1064.5,184.3,1063.8,184.4z M1063.8,184.4c-0.2,0-0.5,0.1-0.7,0.1c-1.6,0.2-3.1,0.5-4.6,0.8c-1.1,0.2-2.5,0.4-3.5,0.6
			v-14.6c-3,0.2-5.8,0.8-8.8,0.8c-0.1,0-0.2,0-0.2,0v19.3l5.6,4.4l0,0c4.7-1,9.3-1.8,14.3-2.5v-9.1
			C1065,184.2,1064.5,184.3,1063.8,184.4z M1065.7,184.1C1065.8,184.1,1065.8,184.1,1065.7,184.1c-0.6,0.1-1.3,0.2-1.9,0.3
			c-0.2,0-0.5,0.1-0.7,0.1c-1.6,0.2-3.1,0.5-4.6,0.8c-1.1,0.2-2.5,0.4-3.5,0.6v-24.6c-3,0.2-6,0.8-9,0.8h0v29.3l5.6,4.4
			c4.7-1,9.4-1.8,14.1-2.5c0.1,0,0.1,0,0.2,0c0,0,0.1,0,0.1,0v-9.1C1066,184.1,1065.8,184.1,1065.7,184.1z M1171.9,113
			c-16.8-3.5-54.1-5.2-71.1-5.2c-17.1,0-34.3,1.8-51.1,5.2l-3.7,4.4v73.9l5.4,4.4c0.1,0,0.1,0,0.2,0c4.7-1,9.4-1.8,14.1-2.5
			c0.1,0,0.1,0,0.2,0c0,0,0,0,0.1,0c2.9-0.4,5.7-0.8,8.6-1.1c0.1,0,0.2,0,0.3,0c0,0,0,0,0,0c8.5-0.9,17-1.3,25.6-1.3
			c8.2,0,36.4,0.4,44.6,1.3c0.2,0,0.3,0,0.4,0c0.1,0,0.3,0,0.4,0c2.7,0.3,5.4,0.6,8.2,1c0.1,0,0.3,0,0.4,0.1c0.1,0,0.3,0,0.4,0.1
			c4.9,0.7,10.3,1.5,15.1,2.6l5.9-4.4v-73.9L1171.9,113z M1167,185.8c-4-0.7-8.1-1.3-12-1.8l-0.2,0c-0.1,0-0.2,0-0.3,0
			c-2.7-0.4-5.7-0.7-8.5-1c-0.1,0-0.2,0-0.4,0c-0.1,0-0.3,0-0.5,0c-8.2-0.8-36.4-1.2-44.6-1.2c-8.5,0-17.1,0.4-25.6,1.3
			c-0.1,0-0.3,0-0.4,0c-2.8,0.3-5.8,0.6-8.6,1c-0.1,0-0.2,0-0.3,0c0,0,0,0,0,0c-0.7,0.1-1.3,0.2-1.9,0.3c-0.2,0-0.5,0.1-0.7,0.1
			c-1.6,0.2-3.1,0.5-4.6,0.8c-1.1,0.2-2.5,0.4-3.5,0.6V121c16-2.9,30.8-4.3,46-4.3s50,1.4,66,4.3V185.8z M1065.7,184.1
			C1065.8,184.1,1065.8,184.1,1065.7,184.1c-0.6,0.1-1.3,0.2-1.9,0.3c-0.2,0-0.5,0.1-0.7,0.1c-1.6,0.2-3.1,0.5-4.6,0.8
			c-1.1,0.2-2.5,0.4-3.5,0.6v-24.6c-3,0.2-6,0.8-9,0.8h0v29.3l5.6,4.4c4.7-1,9.4-1.8,14.1-2.5c0.1,0,0.1,0,0.2,0c0,0,0.1,0,0.1,0
			v-9.1C1066,184.1,1065.8,184.1,1065.7,184.1z M1063.8,184.4c-0.2,0-0.5,0.1-0.7,0.1c-1.6,0.2-3.1,0.5-4.6,0.8
			c-1.1,0.2-2.5,0.4-3.5,0.6v-14.6c-3,0.2-5.8,0.8-8.8,0.8c-0.1,0-0.2,0-0.2,0v19.3l5.6,4.4l0,0c4.7-1,9.3-1.8,14.3-2.5v-9.1
			C1065,184.2,1064.5,184.3,1063.8,184.4z"/>
		<path id="XMLID_305_" class="st1" d="M1075,183v20.9l-3.6,4.4c-8.7,1.8-17.5,2.4-26.3,2.4c-3,0-6.1,0.3-9.1-0.6
			c-0.1,0-0.1-0.1-0.2-0.1h-0.1c-2.9,0-5.9,0-8.8-0.9c-0.1,0-0.1-0.1-0.2-0.1h0c-2.7,0-5-0.5-7.6-1l-3.2-4v-49.5l5-4.4
			c8.1,1.7,16.1,2.5,24.3,2.5c0.2,0,0.2,0.2,0.3,0.2c0.1,0,0.2,0.2,0.4,0.2h0.1c3,0,5.9-0.6,8.9-0.8v9c-3,0.2-6,0.8-9,0.8h0
			c-0.1,0-0.3-0.2-0.3-0.2c-0.1,0,0-0.1-0.2-0.1c-7,0-14.4-0.7-20.4-1.8v40.3c0,0.1,1.1,0.3,2,0.4l0,0l0.1,0c3,0.4,5.8,0.9,8.7,1.2
			c0,0,0,0.2,0.1,0.2h0.1c3.1,0,6.1,0.2,9.2,0.2c7,0,13.8-0.8,20.8-2v-16.2c3-0.4,5.8-0.7,8.6-1C1074.7,183,1075,183,1075,183z"/>
		<path id="XMLID_149_" class="st1" d="M1199.6,149.8c-7.8,1.6-15.7,2.2-23.6,2.2h-0.9c-2.8,0-6.1,0.3-8.1,0.2v9
			c2,0.2,5.2-0.2,8.1-0.2h0.9c6.7,0,13,0,20-1.1v40.3c-1,0.1-1.8,0.3-2.6,0.4c-0.1,0-0.2,0-0.3,0c-3,0.5-5.9,0.8-8.9,1
			c0,0-0.1,0-0.1,0c-3,0.2-5.6,0.3-8.6,0.3c-7,0-14.5-0.6-20.5-1.8V184l-0.2,0c-0.1,0-0.2,0-0.3,0c-2.7-0.4-5.5-0.7-8.5-1v21
			l3.2,4.4c8.7,1.8,17.3,2.3,26.1,2.3c3,0,5.9,0.3,8.9-0.7h0.1c0.3,0,0.5,0,0.8,0c2.7,0,5.5,0,8.2-1h0c0.3,0,0.5,0,0.8,0
			c2.5-0.1,5-0.5,7.4-1l3.6-4v-49.5L1199.6,149.8z"/>
		<path id="XMLID_148_" class="st1" d="M1036,201.7v23.3l-2.9,4.2c-8.5,3.4-17.6,5.2-26.7,5.2c-9.2,0-18.5-1.7-27.3-5.2l-0.8-8
			c6.8-4.4,14-10,21.3-16.8c-7.7-7.9-15.3-17.1-22.6-27.5l5.3-6.8c7.6,3,15.6,4.5,23.6,4.5c3.2,0,6.6-0.2,9.8-0.7
			c3-0.4,6.2-1.1,9.2-2v9.4c-3,0.8-6.2,1.4-9.2,1.8c-3.2,0.4-6.5,0.6-9.7,0.6c-4.6,0-8.8-0.4-13.4-1.3c5.5,7,11.3,13.3,17.3,18.9
			v6.4c-7,6-12.8,11.3-18.8,15.8c5.1,1.2,10.2,1.8,15.4,1.8c6.9,0,14.4-1.2,20.4-3.5v-21.2l0.2,0
			C1030.2,201.1,1033,201.4,1036,201.7z"/>
		<path id="XMLID_147_" class="st1" d="M1220.4,204.4c7.3,6.8,14.5,12.4,21.3,16.8l-0.8,8c-8.8,3.5-18,5.2-27.3,5.2
			c-9.1,0-17.7-1.8-26.3-5.2l-2.4-4.2v-23.3c3-0.2,5.8-0.6,8.8-1c0.1,0,0.2,0,0.2,0v21.2c6,2.3,13.2,3.5,20.1,3.5
			c5.2,0,10.3-0.6,15.4-1.8c-6-4.5-12.5-9.7-18.5-15.8v-6.4c6-5.6,11.3-11.9,16.8-18.9c-4.5,0.9-9.2,1.3-13.8,1.3
			c-3.1,0-6.1-0.2-9.2-0.6c-3-0.4-5.8-1-8.8-1.7v-9.3c3,0.9,5.8,1.6,8.8,2c3.1,0.5,6.2,0.7,9.3,0.7c8,0,16-1.5,23.6-4.5l5.3,6.8
			C1235.8,187.3,1228.1,196.5,1220.4,204.4z"/>
		<g id="XMLID_134_">
			<g id="XMLID_554_">
				<path id="XMLID_561_" class="st1" d="M1077.8,138.4c0.9,10.2,1.8,20.3,2.7,30.5c-1.5,0.1-3,0.3-4.6,0.4
					c-1-10.1-2.1-20.3-3.1-30.4c-3,0.3-5.9,0.6-8.9,1c-0.2-1.5-0.4-3-0.6-4.5c7.7-1,15.4-1.7,23.1-2.2c0.1,1.5,0.2,3,0.3,4.5
					C1083.8,137.9,1080.8,138.1,1077.8,138.4z"/>
				<path id="XMLID_558_" class="st1" d="M1124.4,137.4c3.7,3.6,5.4,8,5.1,12.9c-0.2,5-2.3,9.1-6,12.5c-3.7,3.4-8,5.1-12.9,5.1
					c-5,0-9.2-1.6-13-5c-3.7-3.4-5.8-7.5-6.1-12.5c-0.3-5,1.4-9.3,5.1-13c3.7-3.7,8.4-5.5,13.9-5.6
					C1116,131.8,1120.7,133.7,1124.4,137.4z M1110.6,136.5c-4,0-7.5,1.4-10.2,4.1c-2.7,2.7-4,5.9-3.8,9.6c0.2,3.7,1.7,6.8,4.4,9.3
					c2.8,2.5,6,3.8,9.7,3.8c3.8,0,7-1.3,9.7-3.8c2.7-2.6,4.2-5.7,4.4-9.4c0.1-3.7-1.1-6.9-3.9-9.6
					C1118.1,137.8,1114.6,136.4,1110.6,136.5z"/>
				<path id="XMLID_555_" class="st1" d="M1140.2,157.4c-0.3,3.7-0.6,7.5-0.9,11.2c-1.5-0.1-3-0.2-4.6-0.3
					c0.8-11.7,1.6-23.4,2.3-35.1c3.7,0.2,7.3,0.5,11,0.9c3.1,0.7,5.6,2.1,7.5,4.3c2.3,2.6,3.2,5.6,2.7,8.8c-0.4,3.3-2,5.9-4.7,8
					c-2.7,2-5.7,2.9-9.1,2.6C1143.1,157.6,1141.7,157.5,1140.2,157.4z M1141.8,138.1c-0.4,4.9-0.8,9.8-1.2,14.7
					c1.4,0.1,2.9,0.2,4.3,0.4c2.1,0.2,4-0.3,5.7-1.6c1.7-1.3,2.6-2.9,2.9-5c0.2-2-0.3-3.8-1.8-5.4c-1.4-1.6-3.2-2.5-5.4-2.7
					C1144.8,138.3,1143.3,138.2,1141.8,138.1z"/>
			</g>
		</g>
	</g>
</g>
<g id="Layer_5" class="st2">
	<g id="XMLID_98_" class="st3">
		<polygon id="XMLID_132_" class="st1" points="1493,93 1481.1,93 1475.3,102 1487.2,102 		"/>
		<polygon id="XMLID_142_" class="st1" points="1473.4,105 1441,155.5 1440.2,158.1 1438.5,214.8 1410,238 1410,157 1409.4,154.5 
			1355.2,57 1504.2,57 1491.4,77 1503.2,77 1517.5,54.7 1513.3,47 1346.7,47 1342.3,54.4 1400,158.3 1400,248.5 1408.2,252.4 
			1446.6,221.1 1448.4,217.4 1450.2,159.7 1485.3,105 		"/>
		<polygon id="XMLID_143_" class="st1" points="1489.4,80 1483,90 1494.9,90 1501.3,80 		"/>
		<g id="XMLID_33_">
			<polygon id="XMLID_53_" class="st1" points="1475.4,102 1473.4,105 1450,105 1453.3,102 			"/>
			<polygon id="XMLID_73_" class="st1" points="1483.4,90 1481.4,93 1458,93 1461.3,90 			"/>
			<polygon id="XMLID_96_" class="st1" points="1491.4,77 1489.4,80 1466,80 1469.3,77 			"/>
		</g>
	</g>
</g>
<g id="Layer_6" class="st2">
	<g id="XMLID_180_" class="st3">
		<polygon id="XMLID_186_" class="st1" points="1691.7,173.9 1689.9,171.9 1665.7,181.9 1668.3,148.1 1646.3,122.4 1679.3,114.4 
			1697,85.5 1714.3,113.7 1716,113.3 1717.8,110.3 1719.7,107.3 1697,70.3 1674.2,107.4 1631.8,117.6 1660.1,150.8 1656.7,194.3 
			1695,178.5 1695,177.9 		"/>
		<polygon id="XMLID_188_" class="st1" points="1839.9,150.8 1868.2,117.6 1825.8,107.4 1803,70.3 1780.3,107.3 1782.2,110.3 
			1784,113.3 1785.7,113.7 1803,85.5 1820.7,114.4 1853.7,122.4 1831.7,148.1 1834.3,181.9 1810.1,171.9 1808.3,173.9 1805,177.9 
			1805,178.5 1843.3,194.3 		"/>
		<g id="XMLID_129_">
			<path id="XMLID_146_" class="st1" d="M1730.8,118.8l-8.2-2l-1.5,2.5l-53.6,12.9l32.9,38.6l10.8,4.5l0.3-3.8L1682,137l44.2-10.6
				L1730.8,118.8z M1796.7,174.2l2.9-3.3l32.9-38.6l-53.6-12.9l-1.5-2.5l-4.4-7.2L1750,72.3l-22.9,37.4l-4.4,7.2l-1.5,2.5
				l-53.6,12.9l32.9,38.6l2.9,3.3l-0.5,6.3l-3.8,48.7l51-21.1l51,21.1l-3.8-48.7L1796.7,174.2z M1750,199.5l-42,17.4l2.6-33.1
				l0.6-8.4l0.3-3.8L1682,137l44.2-10.6l4.6-7.5l4.4-7.2l14.8-24.1l14.8,24.1l4.4,7.2l4.6,7.5L1818,137l-29.5,34.6l0.3,3.8l0.6,8.4
				l2.6,33.1L1750,199.5z"/>
		</g>
	</g>
</g>
<g id="Layer_7" class="st2">
	<g id="XMLID_247_" class="st3">
		<rect id="XMLID_220_" x="2005.4" y="79.6" class="st7" width="129.2" height="175.2"/>
		<rect id="XMLID_219_" x="1990.7" y="63.3" class="st7" width="158.6" height="15.5"/>
		<polyline id="XMLID_218_" class="st7" points="2041,59 2041,45 2097,45 2097,59 		"/>
		<line id="XMLID_217_" class="st7" x1="2038" y1="251" x2="2038" y2="108"/>
		<line id="XMLID_216_" class="st7" x1="2102" y1="251" x2="2102" y2="108"/>
		<line id="XMLID_215_" class="st7" x1="2070" y1="251" x2="2070" y2="108"/>
	</g>
</g>
</svg>
